/* XPM */
static char *result[] = {
/* columns rows colors chars-per-pixel */
"64 64 240 2 ",
"   c #152E3C",
".  c #1C2E3B",
"X  c #122B36",
"o  c #0D323E",
"O  c #15323D",
"+  c #1B333D",
"@  c #1E383E",
"#  c #0E2B3D",
"$  c #222E3A",
"%  c #23353E",
"&  c #2A353D",
"*  c #25393F",
"=  c #2D3C3D",
"-  c #34363D",
";  c #343B3D",
":  c #3A3C3C",
">  c #3A3A35",
",  c #3E332D",
"<  c #443A37",
"1  c #37403E",
"2  c #0A2E43",
"3  c #0D2F48",
"4  c #042E47",
"5  c #132E44",
"6  c #162D46",
"7  c #053146",
"8  c #0C3245",
"9  c #05334B",
"0  c #0B344B",
"q  c #05394D",
"w  c #0A384D",
"e  c #0A3847",
"r  c #143344",
"t  c #1C3543",
"y  c #1C3944",
"u  c #12344B",
"i  c #1A3649",
"p  c #143A4B",
"a  c #1C394A",
"s  c #133A45",
"d  c #033552",
"f  c #0A3652",
"g  c #033A54",
"h  c #0B3A52",
"j  c #033C5C",
"k  c #0A3D5C",
"l  c #003758",
"z  c #133C53",
"x  c #163B55",
"c  c #223543",
"v  c #243B45",
"b  c #2C3C44",
"n  c #253D4A",
"m  c #2B3D4A",
"M  c #263645",
"N  c #333D44",
"B  c #3A3D42",
"V  c #323E49",
"C  c #273D52",
"Z  c #023D64",
"A  c #013E69",
"S  c #0A3F61",
"D  c #013F70",
"F  c #413C42",
"G  c #05415C",
"H  c #0B435D",
"J  c #13445D",
"K  c #1A4359",
"L  c #2D4144",
"P  c #26414C",
"I  c #2C414B",
"U  c #274147",
"Y  c #344145",
"T  c #32414A",
"R  c #3A4249",
"E  c #264252",
"W  c #2C4250",
"Q  c #064463",
"!  c #0B4463",
"~  c #0C4965",
"^  c #04456B",
"/  c #0A446A",
"(  c #044B6C",
")  c #0B4A6C",
"_  c #124462",
"`  c #144A68",
"'  c #024673",
"]  c #024C74",
"[  c #0B4A73",
"{  c #014C7A",
"}  c #0C4E7C",
"|  c #0A4571",
" . c #134E75",
".. c #015076",
"X. c #02517C",
"o. c #0B537D",
"O. c #0D5174",
"+. c #135274",
"@. c #1B5C7C",
"#. c #165779",
"$. c #18526E",
"%. c #224E67",
"&. c #245B7A",
"*. c #09607E",
"=. c #28617D",
"-. c #004E82",
";. c #0A4F81",
":. c #015483",
">. c #035985",
",. c #0A5983",
"<. c #005589",
"1. c #025C8C",
"2. c #0A5D8B",
"3. c #0C5580",
"4. c #135C84",
"5. c #1C5C81",
"6. c #175E8B",
"7. c #0B5E93",
"8. c #015F93",
"9. c #195F92",
"0. c #04618E",
"q. c #0B628D",
"w. c #17658B",
"e. c #046494",
"r. c #0C6394",
"t. c #0A6995",
"y. c #0B6A9B",
"u. c #076799",
"i. c #136393",
"p. c #126C9C",
"a. c #176996",
"s. c #14729E",
"d. c #1B729A",
"f. c #0E709F",
"g. c #27698B",
"h. c #226D95",
"j. c #27749A",
"k. c #0C6DA2",
"l. c #056DA7",
"z. c #126EA3",
"x. c #186EA1",
"c. c #0C73A4",
"v. c #0473AD",
"b. c #0C75AC",
"n. c #0E79AD",
"m. c #0D78A6",
"M. c #1474A5",
"N. c #1B75A4",
"B. c #1579A6",
"V. c #1C7AA5",
"C. c #1375AB",
"Z. c #1A76AA",
"A. c #137AAD",
"S. c #1B7AAC",
"D. c #0674B3",
"F. c #0C76B2",
"G. c #0679B3",
"H. c #0D7AB3",
"J. c #0D7BBA",
"K. c #0875B9",
"L. c #1376B2",
"P. c #137BB3",
"I. c #1A7CB3",
"U. c #137DBB",
"Y. c #187CB9",
"T. c #2375A4",
"R. c #237AA4",
"E. c #237BAB",
"W. c #297DAA",
"Q. c #247DB3",
"!. c #307EAC",
"~. c #0D7AC1",
"^. c #127DC1",
"/. c #1A7FC3",
"(. c #1A80AC",
"). c #1481BC",
"_. c #1B84BC",
"`. c #1A85BB",
"'. c #2785B9",
"]. c #3789BB",
"[. c #3B84AF",
"{. c #478EBB",
"}. c #1483C4",
"|. c #1A85C2",
" X c #1D89C4",
".X c #1B86C8",
"XX c #1E8BCB",
"oX c #1585CA",
"OX c #1F91CC",
"+X c #1E8AD2",
"@X c #238BC5",
"#X c #238DCB",
"$X c #2A8AC5",
"%X c #388DC8",
"&X c #2491CD",
"*X c #2B93CE",
"=X c #3D91C5",
"-X c #3C92CB",
";X c #3797CB",
":X c #2494D2",
">X c #2B95D3",
",X c #2B9AD5",
"<X c #2A96DA",
"1X c #2C9ADB",
"2X c #2698D7",
"3X c #3495D3",
"4X c #339AD4",
"5X c #339CDC",
"6X c #3B9CDC",
"7X c #3697D8",
"8X c #268CD0",
"9X c #33A2DC",
"0X c #3AA2DD",
"qX c #2D9CE3",
"wX c #2F9EEC",
"eX c #349EE4",
"rX c #3A9EE2",
"tX c #319EEA",
"yX c #389FEA",
"uX c #2EA2EB",
"iX c #2FA2E5",
"pX c #34A3E5",
"aX c #3BA3E4",
"sX c #34A2EB",
"dX c #3AA3EA",
"fX c #3CA8EA",
"gX c #39A9E3",
"hX c #34A3F1",
"jX c #38A5F4",
"kX c #2DA2F1",
"lX c #4293C5",
"zX c #4193C9",
"xX c #429EDD",
"cX c #489ED5",
"vX c #468FC2",
"bX c #44A1DD",
"nX c #4AA2DA",
"mX c #43A4E2",
"MX c #45A8E8",
"NX c #49A9EB",
/* pixels */
". . & = N N N N N $ . + O O % . r O O + + . 6 6 c 6 . . 6 + O O . + O O O O O + B B < B B N . . +     r 5 + t . 5 O r O r t . . ",
"M M b N Y N N N N N v v y U M b n U * * M m C C C M b M b m b y b * n n n v b b B B B B B V b b & b n n n m M n n n n n v M b M ",
"T m N V Y N N N N N T P W I V R Y : 1 1 1 Y T m I I N T T T T L L P L L L Y L T N N N V N N M L Y 1 ; B B B N N L L T T T T V V ",
"y y t c t % % % c % y s s r . m ; > > > 1 % t y t t @ t c c y i y i a y i t @ t c c v n 6 c i % Y ; - : - N * c i t i t t t t c ",
"9 0 r 8 8 r 8 r u e 7 e q e e a V B - Y b + e q q q e e w 0 0 0 0 0 0 3 0 8 8 8 8 0 7 9 9 7 9 e P U B B T m p e 0 u 8 e 9 e 9 f ",
"Q ! ! ! ! ! H G k ! Q #.@.@.&.K c N B M t K J G G G G H ! ! A ! S / S ! ! ! ! _ ! ! ! ` @.@.w.#.J E V N M a z ! S S _ H H Q A / ",
"] ] ] ' ( ( ' ( ] ] X.d.j.T.T._ 5 m Y + o J ` ( ..( ( ( ' [ [ } ' ' ' ] ' ] ' ' ] ] ( o.R.R.E.j.) K I b   8 ! )  .| ) ) ( ] [ { ",
"r.r.r.r.7.r.r.i.r.:.:.M.B.x.W./ 5 m T % o H ) ] ....( ..{ { { } i.i.7.r.u.u.r.r.r.0.{ :.V.C.b.M.O.J m V t w ) ( [ | ..( ( ] { -.",
"Q.Z.E.E.S.N.S.V.Z.:.-.m.C.M.N.^ u m b c r H ) ( ..] ..( ' ] ] ,.R.V.W.S.M.S.(.S.B.s.{ :.B.m.U.C.] J m N s e ( ( ' [ ..( ( ( ] X.",
"u.Z.z.e.t.M.V.S.Z.u.u.A.m.'.].} 2 m L i 8 H [ ] ] ] ] o.q.2.q.t.T.s.0.t.(.m.e.y.B.s.0.e.I.A.P.M.X.~ I N r q ( ..{ { ] ( *.q.q.r.",
"<.S.c.{ <.M.S.c.C.I.A.P.C.;XcXo.7 P P t 8 ! ] ] ] { ' i.R.V.V.V.(.e.] >.(.t.{ >.B.m.M.m.A.b.P.y.X.~ I L s q ( ] ] ] { X.d.d.V.C.",
"u.S.M.e.u.C.C.A.L.L.F.n.(.4XnX} 7 I L t 8 H ( { { >.2.s.S.f.t.y.(.c.e.y.B.y.e.u.m.P.@X@XF.P.$X'.X.~ P b e g ( ..' { 2.0.q.t.M.S.",
"A.A.C.A.A.n.n.U.L.F.G.G.G.4XbXo.8 b L t e ! ( X.' i.T.N.B.e.{ 1.n.(.A.(.C.B.A.Y.n.`.9X,X).).0X7X{ ` U L s g ^ ] ] { d.M.X...t.S.",
"n.b.C.A.n.n.P.b.U. X@XH.J.>XbXo.8 b Y + 8 ~ ] 1.2.x.E.C.B.c.<.k.n.G.b.C.I.I.A.b.n.).,X&XH.).aX3XX._ L = r 9 ) ' ] ] M.S.t.0.M.A.",
"P.m.C.S.P.n.P.H.U.4XpXU.H.3XnX} 2 b T % 8 ~ ] e.S.S.M.C.U.A.C.S.B.A.A.L.L.L.b.P.A.b.b.F.F.}.sX3XX.` L b r g ) ] ' ] k.P.S.C.Y.P.",
"m.A.S.C.m.P.P.b.P.0XaXJ.H.7XmX} 0 b N t e Q [ t.S.c.y.A.F.b.I.C.B.C.A.L.L.Y. X_.@XY.A.J.F.U.dX7X} J U b r f ) ..o.1.M.L.A.M.L.P.",
"P.m.A.P.b.F.P.F.H.0XfX}.D.1XmX} 3 b T + 7 ~ ( i.S.0.{ e.P.A.P.C.A.C.L.F.F.#XaXfXgX,XG.n.J.^.dX3XX.J P b r w ^ ..d.R.C.I.C.P.L.P.",
"n.b.A.P.H.^._.F.Y.&X:X}.J.5XxX3.8 m T t e H ' i.E.8.{ y.I.b.C.B.m.m.Y.Y.U.XX1X<X5X*X|.).D.U.dX3Xo.J I Y t w ) ( w.d.M.k.C.P.b.A.",
"C.I.I.F.P.eX5XY.b.I.).G.K.3XnX .3 b V t 8 ! ' i.Z.1.{ u.A.C.A.L.A.P.v.@XMX<XD.J.H.|.9X,XJ.^.dX6XX.! W m r h ( ..] { -.-.l.I.A.I.",
"m.P.A.Y./.dX5X_.`.m.n.).|.7XxX} 3 b T i 8 ! [ i.E.7.<.y.P.A.A.L.A.U.L. XeX+XH.U.v.).4X,XJ.J.eX7XX._ C V r e ( ....{ <.1.m.Y.M.S.",
"L.v.Y.rXyXhXeXdX0X).n.,XpXrXxX;.0 b L t 8 ! [ r.(.S.M.Z.P.n.b.L.A.n.b.H.U.J.F.F.P.H.n.n.F.Y.pX;XX.J W V r w ( ( ] ] p.N.C.n.M.B.",
"F.U.#XqXtXyXyXtX,XJ.H.9XfXrXxX;.8 U L t e ! [ 2.p.M.S.S.A.n.P.A.F.Y.Y.U.J.H.L.Y.n.P.n.`.H.U.dX4XX.~ P m r h ( ....X.M.S.m.m.B.(.",
"_.5X<XU.^.yXeXJ.U.b.J.1XqXaXxX;.2 b L @ e H ] X.>.t.B.C.m.n.P.A.F. XdX>Xv.`.fX2XG.`.9X1XJ.J.tX7X:.~ E I u h ' ..d.B.C.P.m.n.n.n.",
").0X7XH.^.5XeX^.U.F.).iXsXrXxX} 2 L L @ e ! ] X.:.t.S.I.n.n.b.A.F.8XpX<XJ. X9X2XH.).gX1XK.}.sX7XX.~ I I r h | { a.N.M.A.n.).H.H.",
">XU.F.P.J.).J.J.J.eXiXsXtXyXxX} 2 V L t u ! ' r.Z.z.S.A.b.A.A.@XaX&XH. XfX:XF.`.eX2XH.}.sXqXhX7X} _ W T 5 z ) ..-.:.k.Y.L.F.Y.F.",
",X).H.H.n.G.G.J.U.1XhXhXhXeXxXo.8 m m t 3 ! X.p.Z.Q.C.A.U.P.L._.fX@Xv.|.fX:Xn.).MX<XH.}.tXjXhX7Xo.K n N 6 h ) ..{ :.M.A.L.Y.n.H.",
").v.).4X*XH.J.,XeXdXhXwXjXdXcX} 3 W W i 9 5.N.8.-.k.F.@X0X#Xb.Y.).).G.H.).U.G.U.U.oX1XtXsXsXtX5X..J I T 5 h w.d.x.z.I.F.:X9X).U.",
"^.G.`.0X9XJ.).1XeXdXkXwXwXyXxX3.3 n m a f 5.T.8.-.l.P.#XaX&Xv.J.F.J.U.H.F.J.J.^.D.oXdXsXtXtXwX7X..H v V s g h.(.S.Z.b.F.2X9X`.n.",
"qXqX,XpXpX2X<XpXeXsXkXjXkXyXnX} 4 m P t 9 @.W.B.z.C.A.P.`.).b.@XpX1X2XqX9X1X1XtXeX1XyXtXsXsXdX,XX.` P P u g d.d.M.C.P.H.).`.*X4X",
"xXmXxXbXMXmXmXbXmXxX6XdXrXxXcX .# L L + 8 &.j.N.T.M.S.m.M.B.C.'.mXaXmXmXaX0XrXmXrXdXdXaXaXaXfX;X..K L ; r h w.(.T.R.Z.Z.m.B.lXcX",
"o.} }  . .[ [ o. . .#.#.[  .%.x V ; - N P ` +.,.2.;.>.>.<.>.>.2.7.r.7.7.7.i.i.7.7.7.7.7.r.2.r.4._ m > < - m J Q ~ Q ^ [ | / $.$.",
"8 2 u 3 3 f 3 3 2 # 2 7 2 6 X m B - : R b E J ! S / Q ~ ) ~ / ! / / / / / ^ ! / / / ) Q ~ Q ! _ C B < < > N t # 8 8 0 3 u 5 2 5 ",
"b % b m m n b b b = b = b b = B - B < F ; Y I P P I I U P P E C C P E P C E E E W E W n W I I I U - < , < B & b b b = b b b N N ",
"L Y Y Y N V T Y Y N Y Y Y B V Y Y N B - N Y P L N ; > : 1 N b n m N T V m I I I b N N b b V T b L L R ; ; - B B ; 1 R R N N N B ",
"t y y y t t @ s y i i t t y y @ v M M c v t O P T N ; 1 1 % c C i t y i i i a a v i y c i y a y p i % v v % T N ; ; B N M i c c ",
"f e 9 e e e e s w 8 0 8 0 e e e 8 8 u 0 7 9 e s m V B B U y u f e u 0 0 w 0 w 8 8 8 8 e 8 0 w 9 f 9 8 e 7 8 n M Y 1 N M u u 0 3 ",
"Q ! G G G H G H G ! Q Q ! G j H H H ! ! Q O.@.%.i m B N M a S S k H G G k j ! H H H H G Q Q ! ^ ^ / 5.5.#.#.K v N N m M x ! S ! ",
"( ] ( ( O.( ( ( ] ) ] [ ] ' ( ( ] ( ' ( ..w.j.$.3 b B $ t x ` | ) [ ) [ ( ^ ( ( ) ( Q ( ( ] ] ] ] X.T.T.T.j.h   = - M u ! [ [ ] ",
"] ] ..4.6.{ ] 6.4.{ { { { 2.i.{ { 2.q.0.e.M.W.O.3 m V M r k [ { ] [ ] X.q.,.4.o...X...X.r.r.e.e.r.y.Z.C.$X].j r b ; c 3 ! [ ] { ",
"..' ,.T.T.-.{ T.R.X.] { { x.Q.<.{ M.S.I.b.A.Z.[ 4 M B M r k ' { { X.' 6.R.W.W.d.' { { >.V.S.A.S.I.C.F.U.pXxX) 2 L = t w ^ ] ] { ",
"X.q.q.r.i.7.7.p.r.r.1.r.r.M.S.I.M.b.C._.&X@X%X3.4 P U % 8 G ] -.{ :.q.2.r.r.y.r.8.r.1.e.A.A.#X`.C.A.P.K.sX6X/ 5 1 U s w Q ] [ { ",
":.R.N.{ -.E.E.' { N.E.M.Z.C.I.4XMX|.F.>XMXdXnXw.7 U L @ e _ [ { { r.E.y.{ { -.:.Q.z.S.P.c.P.aX0Xn.b.H.K.tXrX' u U 1 r q ! ] ] ' ",
"t.M.B.e.0.t.y.8.e.M.C.`.'.P.b.@X>XU.U.#X7X6XNX9.7 U L @ 8 G ] X.>.q.E.z.<.e.8.u.S.C.I.I.@X@X:X&XI.H.@X#XqX6X/ 6 * @ o q Q ) ..] ",
"A.C.M.B.c.] X.M.I.A.A.0X0X).m.H.G.D.b.b.K.8XnX6.7 U L @ 8 k [ 2.W.N.Z.S.S.I.b.S.M.L.C.P.mX5XJ.H.v.P.5XrXhXrXD 5 1 1 U q ~ ( ] ' ",
"b.I.C.M.B.e.e.m.C.L.b.0X0X).J.F.J.oX.X}.+XqXmX9.9 a I * 8 k ( ,.p.p.B.S.m.P.`.`.U.L.P.Y.,X:XJ.J.|..XpXfXsXrX| 5 b N r f ~ ( ,.1.",
"P.P.b.b.m.A.I.C.P.P.H.5X0X).G.J.K.2XgXgXyXtXmX9.4 n T % 3 _ ( ] ] 0.S.S.b. XMX,XG.v.H.F.D.F.K.J.pXgXaXeXsX7X/ 6 = b t 9 ~ ( a.S.",
"F.P.P.@XY.L.P.Y.Y.L.Y.,X,X.X^.oXoXuXpX1XwXwXNX9.4 C V M 3 _ ( ..>.u.C.A.b.|.1XOX}.oX|.}.|.|.^.XXuXhX<X<XfX6X/ 5 N Y i f ) ] y.).",
"F.L.U.aXrXJ.H.aXaXL.b.F.H.eXsXsXuXsXsXpXkXwXNX9.d n V M 3 Z ( q.S.B.b.F.J.G.v.oXpXsXpXgXpXpXpXsXsXqX~.~.qX6X/ 5 N B t 9 ( { y.A.",
"I.b.).pX<XoXoX1X1XXXU.U.}.,XsXsXwXsXwXuXkXqXNXi.4 n V M 8 ! ,.e.S.I.U.}.).).).}.tXsXhXuXiXpXsXsXpXqXoXoXtXxXk O N - y q ..>.y.P.",
"S.m.I.0XMXaXeXdXfX0X6X0XaXdXdXeXaXaXdXdXjXrXnX5.3 M R M # $.j.S.z.$XmXmX0X0X0XmXdXhXdXdXaXaXaXaX0X0XyXyXdXcXk O B B + 7 w.V.Z.E.",
"d.h.T.].=X-X=X=X=XzXzX=X=X=X=X=X=XlXzX-XzXvX{.=.  M B b + %.g.g.a.!.lXvX].lXvXlX-X-X-X-X=X=XzXzXzX=X-X%X-X{.J + B B $ u &.h.h.h.",
"l j Z / A A A A Z Z j j A A A ^ Z j Z ^ Z k x t v B B N b U w G j j A Z A ! A A A A A A Q A A A Z A A D ^ ! K b B - b n z g k g ",
"r r r u 5 u u u u u 8 u p x 0 u f u u u r 5 + b Y 1 : : B * O o s e u u u u 3 u u u u u r e u u u u f f 3 3 I N : : : N t r i t ",
"I L v Y b N V N T m L n M n m C n I W P b Y N N 1 - - R N N T P U b V C m W m V m M b b b b m C V M W P C W Y ; - R ; = N T m b ",
"m b N R B B : B B N N T N b V V m m I b b T b = U L Y Y b m m v I b V n b V b b B : : : : Y V V N b T I b b b N = R N N N V b N ",
"i @ . ; - < : : N $ . t t t t t y + r t t O t t O y O r c i r i + . c t i r i M N : > < > - * t t c X @ c + t + t s   t t c r t ",
"d 0 p W b V Y b m r p 8 h w 0 w w 8 h f w f w w f w w w 9 9 f f e q w f l g f z m N : ; 1 U 8 0 w w e e 0 0 0 w g g d g f 9 k q ",
"} g.&.x i L I + r K ! ! ^ Q ) ! Q ` ` / Q 4.h.[ ^ Q Q @.h.5./ / ) Q Q +.a.h.h.@.u c - = + p J ! / ( Q ~ ~ ! ) / @.d.] ( } | 4.h.",
"<.W.g.g 2 P I t 0 _ ( ] ] ] { } ' ] { X.-.y.E.2.{ { ] i.N.q.{ { X.' ] r.M.S.S.w.f t Y N O q O.] ] ] ] ..( ( { { s.V.>.{ { { p.N.",
"L.-X[.G 0 I P r z ! o.] { y.r.'.=XM.y.M.l.L.I.C.z.x.y.B.S.`.%XQ.y.M.p.M.P.).3X!.d i T b o q ( ] X.:.s.y.a.s.y.z.B.B.l.M.z.y.I.A.",
"^.bX].g 8 W I r 8 ! [ { :.Z.S.;XbX'.H.F.U.K.L.L.L.L.P.m.v.&XmX*Xb.A.Z.b.D.oXaX].d i N * O h ] } { :.B.B.B.S.S.I.C.m.L.P.I.L.C.A.",
"qXMX{.j p m L t h ) ' y.l.C.L._.`.).G.OX<X/.U.Y.L.#X,XoXG.). X).G.'.3X3X2XqXjX].d i N = s h ' -.p.k.I.P.A.F.*X3XY.F.,X<XY.F.n.P.",
"hXrX%Xj p n b t 0 ~ [ C.Y.H.H.F.H.H.G.,XaX|.L.L.J.OX9X&XG.H.v.G.v. XmXdXhXtXfX'.l i L = o g | -.Z.M.P.D.F.H.pXdXU.b.pXfXU.b.P.b.",
"kXdX%Xj u W R . f @.a.C.F.#X,X&X*X&X:X,X6X7X*X*X*X,XgX2XOX,X*X X)..XaXeXhXhXhX$Xj r L 1 o k 9.a.Z.S.:X>X:X:XsXsX,X&XqXsX2X&X*X*X"
};
