/* XPM */
static char *result[] = {
/* columns rows colors chars-per-pixel */
"64 64 66 1 ",
"  c #55361E",
". c #59361E",
"X c #5A381F",
"o c #553622",
"O c #593722",
"+ c #553925",
"@ c #5A3A25",
"# c #563B2A",
"$ c #5A3D2A",
"% c #563F31",
"& c #5A3F30",
"* c #613E26",
"= c #613E29",
"- c #57402E",
"; c #5D412C",
": c #574030",
"> c #5D4231",
", c #634127",
"< c #63432C",
"1 c #69452D",
"2 c #6C492F",
"3 c #644632",
"4 c #6A4731",
"5 c #654934",
"6 c #6B4B35",
"7 c #664C3B",
"8 c #6C4E3A",
"9 c #734E35",
"0 c #784F34",
"q c #734F39",
"w c #784F39",
"e c #6F5137",
"r c #6E513C",
"t c #755136",
"y c #795136",
"u c #74523B",
"i c #7A553B",
"p c #77583C",
"a c #7D593E",
"s c #644E40",
"d c #745541",
"f c #7A5741",
"g c #765945",
"h c #7D5A43",
"j c #7E5E49",
"k c #7F604B",
"l c #7F6250",
"z c #81573E",
"x c #825A3E",
"c c #895D3F",
"v c #8D603F",
"b c #845D43",
"n c #895F43",
"m c #835F49",
"M c #856146",
"N c #8A6145",
"B c #85624A",
"V c #8A644A",
"C c #8C684E",
"Z c #906344",
"A c #91654C",
"S c #90684F",
"D c #856550",
"F c #8A6651",
"G c #856952",
"H c #8B6952",
/* pixels */
"$+<BmVBVMBB$$++;-X ;X@@=OtVVvMvvNxt9upr7-###+;mmNMy0y9qddqdds83+",
"$O$BBBbMMVV@@@#+-+-2uhbhbbMVVx90yytyu5;#####$$==nNMx2=6w=&&#&$#+",
" @<jMVVVNnj=@-;+++@8phBVVVBMvxiyyttru5-+#$+#@+@@BMMB@$rr&#######",
"1hBVNNnnVya628rrrr8qq0ybnVVattytp2@;;-++#+$;@<jmBMBB++$;&&%#%##%",
"1bBVnNNZcyuuuugrrgrpqw0zNNMapttud5###;+;$+$$O4DHMBBm<$+++#######",
"aMNNniyiiyyttrr;$7et000cNMvatpt6:%##+++;hkffhhmmMCMnhd;;+####$$&",
"CVMNny000yuuurr;$8ufwq0zVCVaepr7+%:#;@@2VFVFFmVmNNnnCM,.@+OO.OOO",
"aaiziyy0yqtpe2;;o&38wi0ii211<;;>%%##+@5eVnmVbnSnVnzzMNppppiahhfa",
"Btqy0qiqt6i8d$O;+$O6qqw9t,@+o#######O=tinNnNnVnVAniihBCBCMCCMBFV",
"6quu8qqwudd=3$++$$+umbbbM1@$##o%##784qmnNNnNNnzwii,1MM2152hMBBq3",
"3qduudddudu$o$@o+++pBFVmF<ooo&%#o38duaVnNnnZnbi9iq+@DB=@+;hDGD5$",
"$33&3q8333;$+euuuuuMmmmVBhd5o3dd8fba00zbNNnnzi0u3>+#55$+@+5577##",
"$$++&qd#O+ X@MDCBDCNMmMMMGGuoqDDBVVh00yyNVnbw99q++%&o+#$+$++##$%",
"#+###37O@er21bMMvMMcMVVbphp5 qjbBVnbbay0zbbhfwwq%%#$5333<6@#$###",
"+o##++@O$BCpeMMNvvNcZNMattp2O1qbVNNnnhwwqqqquud8-#+#qdqqfq=O++#+",
"886q85686BM90MvNZcZnMcxpt61<O14ybaabbaqquq633663+;38fiibwq926e58",
"VVNVVBVVVmmw0nNNvNNNVpiup<++;+@;rpt2ttuup6+-$+++ ,hCBVNVyyMCVVBN",
"nmNMNnNBnbnzwbzbxvxxMte85;#$#$;;572epeerr7+++#+$86MNnNMNpyianVNN",
"nNNNnmVVndww9wqttt09ttu<-++++ o   .3upupp7---#$$BmBNnMNNiqtqxVNN",
"cNZcNVnbn646486uyytturd< +-<8685r;.;6265r>#####$BMVNNNNMyyuuMMbz",
"ZNNnNNmy8OO@#+#7iupuudd3@@;rBBBBGu..@ .++-+####<BBNNZNNNitquMVay",
"cccnnmhudO#&#+#8u8rru88;@X.tDBVNMp<1115<++#:#$+=MNnNNnnVayqtfbt0",
"00yytauu8O+&&#&7gdurd<@@.@.tCMMNCBMBVVBf++#-@$O*MVnnZcnnyquuuyyt",
"y0ttqqqdd$@####77r7rr;@@@,*uVvMNMMMCMBVh;;;;$5@2nVcNZnVVaqquuutt",
"uquqqdudr@@$##o#+#+#$oO$.uVCMMVvNNMNNMBjruudBBNNNNcNMNnBtqdufquu",
"rdddu8ru8$@$@$4#+#$#$<;@=yMMvNNNNNMvvbMhuu88BVNMNNZZcnbmhu88wquq",
"dd8uu$@@@ @hFmm3#+++$8DDBMVCNNNVvMMxyyiut8@1VVnNMNMZMNatqrgq<@4a",
"8d8r8@O<<=<jFmV=+$3#+uDBBMmbbMvMMvNxyt6tu6 ,BVnNNNNVnMuq88d8=@4t",
"#@=@*O*hmbmu9th=OdD3ohVpuytytiytytttt2*<g7@,VNcNNNNnwq0d3$$#$O@*",
"**=***1mVmVutqq=@jH3OdBhuutytyt9ttuyi6@;r5+<MNvMMNMniiqu@##+$@==",
"mmbbbbhNBtuqu=@*OpB<O**4tutttyutyturu6 #;;+<BVNMayyuwq=@$$#$gmmh",
"nnnFnbVmbuitu@*O@jF1@@O3uuuuuetuurd8d8+$+++3MBVnyttuqw=@####gDFB",
"NNNVbqiuduu<@hbziAMhM1+#>$$$$$==#;#>$#$$@@@,uayiruuu<**@#&&#8dty",
"MMNNbaaqdqq$XbVVZMMVB4@$+#%####o##+##&+@@@X,tuqquuer*O$##&%o7wty",
"pppptu8<$33O*bVNVcVVVhg<+$$o#$#$##>#+$+1gpapMMbmtitu*O3877&opMiy",
"upuduuq&+++$<pmncMMnBFFt@+O##++##$$#@+O<CCVMVVNntuyq*=6pdd$ohCy0",
";;;;=$&###&dfmVVVNMNMap6688dg7##;@O3hgafMMMvnNnNbz0029urrr<+aCcx",
"#++-$+$$#+&mHDVmNNMNVuytuuujD8+O@+O6GVCBNNVVVNVNVMiitytrrr<@aCNN",
"--+;#O=$&@#jBmAnvNNNVnnyyuqdj6+$@1ahMcMMNMNNnnnnnn0y0uuu73@.fVNn",
" -+ oO@OO+ObVnZnNNNNNMVh0tuud3+$ 4HVMMVNNnNZnnZNNn0tqtrr-+@@hBVN",
"-eeepeeyuuibmZvZVNMMVciiqti43$+6tbnmnnVnZZnnNNnnzitqdr7d;;@@uhmB",
"2BCCMCCVVVVVZnvcvMNMNiytttu3@@#3HVVnVVZnnnZnNNNNwqtuurdd;X+@efBF",
";hMvhvZMMNNnnZvcMMNnpttytqu3+<78abnBnnZnnZnVNnzzyqpd5>7=;X@.<388",
"2vVCVZNMNBBMnNZZCNNiytiuduf5O3ur9aVVnnnAnnZVMniqpurr-+++  X;@O@#",
",MNMZZkvzhMbaaxaxzaytpu53<5<+3uuuaabMVnmnmbzbiiq8r33$#+@6qtq=+@#",
"1VBNMMMpq6trttttyytqtdr3++++@3ddq90anVVNnnw90wutuu$+$@@@mVFm1@@#",
"4uaVMNb68885errttttqu63>####$$46utihbhbzmbw9qqwue2++##64bmNMq83;",
"4@@BMBM@ +++;7puuytad;##+;#+$OO<utqtq099wwqwwuu8o++;#$mFVnnCMBgu",
"6.<BmMM@@-#--77766745&%#####$$<4p66e5ehtwdwquq65+-###;aVVnNnVVht",
"t@1MBVB@+++#++++#$###&##%%#o@3tau2   <GD6wwdd6$+-#-# @bBMMVnnmVV",
"eX,kbmb<@55@+@+;@@O#####+@++$1qqu6+;;3gd88qq83$#-++-<2bMNNNnnnmn",
"8@@pqtiquBk;@@@+@$@@#@O+;++5uudud3++++#O+=OO#####++;jBVVNnNNnni9",
"8O*wqqqyuVm1<<1=<<1<11,<<,<eue8rg3&+#$+$+@@&&$##++<6mMnNNnNNFmbw",
"8$$ffwwqdmFmVNVAVBBNBVNVMMMpuuup85++$#$#@&$###%#@<mBVNZNNnNnAnzw",
"s#=46fqwhhbDVNcnBBNMnMnnNNCatr6r87&&++&O#@#O###;@,MNMNVcNnNnnnw9",
"7&#$=qqwqwpnmVNNNNNNNMnZVcVau6@@O7Dd$OO&O&O#$##$BMCMNNNNNNVbat0y",
"7-+-;ruuyutjMMMNNMVNnNZnNMnap3X;O8D8=@$<;@;;+@+<VNNNnZnNNNnVyqtt",
"s-++@uu@@qapytycVVnNZNZnZitta<++O6HmmBmMMkt6;@@@BNNVNNZMNZBBh0tq",
"s-+;+eu@@ueeettMMNVNNNNnAiitr3;-O2VnnVMMBkue@@;*nNNNnnnnNNnnfqut",
":#-+-uu@@@@@;teitbVVnnNVNit1;@++.9VVVmVVMkee.;hmVVNNNNNVVMaiqtup",
"#:%o$dq$$@$$+euttmVVnmmVBf63+#;;*9mmZnnnMMee@3mDnnmnVVnnmhtqqiq8",
"#:#+$8dgg$+#+;<8tutttayuh6$$+++3bnAnAnnmtpteO$wwmnnVnnzqaatuqu1$",
"%###$qdDl$+&#$+3ptu0uuu8q3@$$##8DnmnZnnmteeeO<wfnmVVmbat0qtuup$O",
"###+$mg33$##+&+<=,@<===<;$+@+#+8mmnnAbbwteu6.<6fizwbiiytqtuquu<@"
};
