/* XPM */
static char *result[] = {
/* columns rows colors chars-per-pixel */
"64 64 256 2 ",
"   c black",
".  c #010101",
"X  c #020202",
"o  c gray1",
"O  c #040404",
"+  c gray2",
"@  c #060606",
"#  c #070707",
"$  c gray3",
"%  c #090909",
"&  c gray4",
"*  c #0B0B0B",
"=  c #0C0C0C",
"-  c gray5",
";  c #0E0E0E",
":  c gray6",
">  c #101010",
",  c #111111",
"<  c gray7",
"1  c #131313",
"2  c gray8",
"3  c #151515",
"4  c #161616",
"5  c gray9",
"6  c #181818",
"7  c #191919",
"8  c gray10",
"9  c #1B1B1B",
"0  c gray11",
"q  c #1D1D1D",
"w  c #1E1E1E",
"e  c gray12",
"r  c #202020",
"t  c gray13",
"y  c #222222",
"u  c #232323",
"i  c gray14",
"p  c #252525",
"a  c gray15",
"s  c #272727",
"d  c #282828",
"f  c gray16",
"g  c #2A2A2A",
"h  c gray17",
"j  c #2C2C2C",
"k  c #2D2D2D",
"l  c gray18",
"z  c #2F2F2F",
"x  c gray19",
"c  c #313131",
"v  c #323232",
"b  c gray20",
"n  c #343434",
"m  c #353535",
"M  c gray21",
"N  c #373737",
"B  c gray22",
"V  c #393939",
"C  c #3A3A3A",
"Z  c gray23",
"A  c #3C3C3C",
"S  c gray24",
"D  c #3E3E3E",
"F  c #3F3F3F",
"G  c gray25",
"H  c #414141",
"J  c gray26",
"K  c #434343",
"L  c #444444",
"P  c gray27",
"I  c #464646",
"U  c gray28",
"Y  c #484848",
"T  c #494949",
"R  c gray29",
"E  c #4B4B4B",
"W  c #4C4C4C",
"Q  c gray30",
"!  c #4E4E4E",
"~  c gray31",
"^  c #505050",
"/  c #515151",
"(  c gray32",
")  c #535353",
"_  c gray33",
"`  c #555555",
"'  c #565656",
"]  c gray34",
"[  c #585858",
"{  c gray35",
"}  c #5A5A5A",
"|  c #5B5B5B",
" . c gray36",
".. c #5D5D5D",
"X. c gray37",
"o. c #5F5F5F",
"O. c #606060",
"+. c gray38",
"@. c #626262",
"#. c gray39",
"$. c #646464",
"%. c #656565",
"&. c gray40",
"*. c #676767",
"=. c #686868",
"-. c DimGray",
";. c #6A6A6A",
":. c gray42",
">. c #6C6C6C",
",. c #6D6D6D",
"<. c gray43",
"1. c #6F6F6F",
"2. c gray44",
"3. c #717171",
"4. c #727272",
"5. c gray45",
"6. c #747474",
"7. c gray46",
"8. c #767676",
"9. c #777777",
"0. c gray47",
"q. c #797979",
"w. c gray48",
"e. c #7B7B7B",
"r. c #7C7C7C",
"t. c gray49",
"y. c #7E7E7E",
"u. c gray50",
"i. c #808080",
"p. c #818181",
"a. c gray51",
"s. c #838383",
"d. c #848484",
"f. c gray52",
"g. c #868686",
"h. c gray53",
"j. c #888888",
"k. c #898989",
"l. c gray54",
"z. c #8B8B8B",
"x. c gray55",
"c. c #8D8D8D",
"v. c #8E8E8E",
"b. c gray56",
"n. c #909090",
"m. c gray57",
"M. c #929292",
"N. c #939393",
"B. c gray58",
"V. c #959595",
"C. c gray59",
"Z. c #979797",
"A. c #989898",
"S. c gray60",
"D. c #9A9A9A",
"F. c #9B9B9B",
"G. c gray61",
"H. c #9D9D9D",
"J. c gray62",
"K. c #9F9F9F",
"L. c #A0A0A0",
"P. c gray63",
"I. c #A2A2A2",
"U. c gray64",
"Y. c #A4A4A4",
"T. c #A5A5A5",
"R. c gray65",
"E. c #A7A7A7",
"W. c gray66",
"Q. c #A9A9A9",
"!. c #AAAAAA",
"~. c gray67",
"^. c #ACACAC",
"/. c gray68",
"(. c #AEAEAE",
"). c #AFAFAF",
"_. c gray69",
"`. c #B1B1B1",
"'. c #B2B2B2",
"]. c gray70",
"[. c #B4B4B4",
"{. c gray71",
"}. c #B6B6B6",
"|. c #B7B7B7",
" X c gray72",
".X c #B9B9B9",
"XX c gray73",
"oX c #BBBBBB",
"OX c #BCBCBC",
"+X c gray74",
"@X c gray",
"#X c gray75",
"$X c #C0C0C0",
"%X c #C1C1C1",
"&X c gray76",
"*X c #C3C3C3",
"=X c gray77",
"-X c #C5C5C5",
";X c #C6C6C6",
":X c gray78",
">X c #C8C8C8",
",X c gray79",
"<X c #CACACA",
"1X c #CBCBCB",
"2X c gray80",
"3X c #CDCDCD",
"4X c #CECECE",
"5X c gray81",
"6X c #D0D0D0",
"7X c gray82",
"8X c #D2D2D2",
"9X c LightGray",
"0X c gray83",
"qX c #D5D5D5",
"wX c gray84",
"eX c #D7D7D7",
"rX c #D8D8D8",
"tX c gray85",
"yX c #DADADA",
"uX c gray86",
"iX c gainsboro",
"pX c #DDDDDD",
"aX c gray87",
"sX c #DFDFDF",
"dX c gray88",
"fX c #E1E1E1",
"gX c #E2E2E2",
"hX c gray89",
"jX c #E4E4E4",
"kX c gray90",
"lX c #E6E6E6",
"zX c #E7E7E7",
"xX c gray91",
"cX c #E9E9E9",
"vX c #EAEAEA",
"bX c gray92",
"nX c #ECECEC",
"mX c gray93",
"MX c #EEEEEE",
"NX c #EFEFEF",
"BX c gray94",
"VX c #F1F1F1",
"CX c gray95",
"ZX c #F3F3F3",
"AX c #F4F4F4",
"SX c gray96",
"DX c #F6F6F6",
"FX c gray97",
"GX c #F8F8F8",
"HX c #F9F9F9",
"JX c gray98",
"KX c #FBFBFB",
"LX c gray99",
"PX c #FDFDFD",
"IX c #FEFEFE",
"UX c white",
/* pixels */
"5.W ) ~ ^ ( } 4.7.7.7.7.7.7.7.7.7.f.g.j.k.h.l.f.z.F s h j g g h l n V S Z C Z m h l h h j f g v ) T d n ^ | f.h.j.f.9.7.5.9.4.7.",
"7./ ) ~ } ;.1.8.7.7.7.7.7.7.7.7.9.0.e.e.w.9.9.i.l.7.3.5.7.Y s v j B S M l x b j g h z l g m W E ) T s c D K ..O.s.g.a.a.d.d.p.g.",
"4.^ ! !  .3.8.7.8.8.8.8.8.8.8.8.8.2.7.5.7.9.9.j.d.c.x.k.N.! r x a M D m g h k k x l h f j m _ ! ` E j v M A W _ f.x.x.k.c.j.f.l.",
"o.W { :.5.9.7.5.6.6.6.6.6.6.6.6.5.7.q.8.8.7.2.6.9.i.f.g.n.W a h k z v z j h g l f l g M ^ Y ` Q n b f c V J ! '  .X.X.O.8.0.0.w.",
"! Q o.7.0.6.4.7.8.8.8.8.8.8.8.8.5.0.5.5.6.5.8.7.0.p.l.j.l.T f h k f f s j l d j f j d N _ E ( L s j j k V G W ^ / Q E ( 1.0.q.8.",
"..-.>.5.4.6.8.0.6.6.6.6.6.6.6.6.q.p.r.i.p.r.p.u.e.s.f.t.i.T s z g C R I P Y P ~ #.o...+.=.*.4.| d k l l Z A I K / / / ! ^ Q Q Q ",
"X.0.8.8.7.7.5.2.6.6.6.6.6.6.6.6.7.d.c.c.v.b.v.x.M.b.z.t.w.E p h d G { ` / / ^ #.0.7.0.w.0.0.q.%.f h p z Z V S N ^ _ ' / D M M B ",
"+.p.t.u.i.i.i.s.i.i.i.i.i.i.i.i.i.h.i. .W ' ' [ ] W ( W T B j Z P T ) ^ / / ! #.s.t.4.3.9.8.3.4.} W h z v b Z D I J H P B C N c ",
";.c.c.v.c.x.c.l.v.l.c.m.k.v.z.z.n.l.k.n e m c N M h i i y p s G ^ ) ^ W ] ( Q -.c.a.4.7.6.4.9.6.i.;.g l f h G V A m C C Z Z l g ",
"! -.&.-.;.-.:.>.=.*.-.=.&.,.>.:.*.:.-.D n B A b B z k U ' _ ^ | =.%.3.X.W ~ ~ O.j.u.7.8.0.9.0.6.2.*.f j x j x M b v n b b b k k ",
"B ( ~ ! Q ~ ~ W ^ Q ^ ! / ! E ~ ~ / Q G Z j h y a u h o.t.w.9.q.8.y.m.1.^ ^ / ,.V.p.7.3.6.5.3.6.w.#.p a g x g k j h z h a f j h ",
"m U I Y I Y W ( ! ~ / P R Y I T I J P F A z l W ` ! Q :.9.6.7.y.y.g.z.&.Q ^ E ) ] &.u.i.u.w.7.0.9.;._ ^ d h k j g k h k Q ( c h ",
"n B M S B M D / ) [ ) V B Z Z B S Z S V M f f #.i.0.9.q.4.4.1.e.j.l.z.<.Q _ [ K 8 ) c.x.h.u.9.5.5.6.e.,.g a g a a k u j 8.r.x d ",
"x B B B n Z F U P H F N M M m C n B n ~ | W U -.6.4.q.9.4.u.u.g.g.e.,.%.] Y L A x Q 3.w.k.d.t.9.9.9.7.-.T Q W Y W T R R 2.q.W E ",
"i j j h k D S V V h d k g s u f a f h %.r.w.0.e.9.8.6.3.1.p.j.h.x.:.R ( @.P s c F G W #.z.l.l.g.3.9.9.8.8.w.w.t.y.8.t.0.1.7.0.e.",
"F c s k x N b B m l h k x Y W R R J I 5.5.6.7.3.5.e.q.y.e.d.h.q.9.{ E ! ( H h N B Y ( } 9.q.g.f.e.0.7.7.q.7.6.4.3.9.2.6.w.6.6.6.",
"%.t z j s j z g g j f p v g.n.j.k.w.t.4.5.8.0.6.7.a.l.z.j.j.z.>.R U S C V Z G Z C K / ^ U $.l.k.g.g.5.6.8.6.q.4.7.5.8.6.6.8.5.7.",
"1.D V d j f h h v Z S m K d.s.l.g.5.6.q.w.3.6.7.6.i.h.y.w.r.q.| R H N B C m m V C G W ~ Y | w.t.j.s.0.q.8.q.0.8.7.6.7.6.6.7.7.7.",
"u.q.$.z x k h d N r.5.( [ h.v.d.z.9.1.4.9.7.0.4.0.g.j.@.T E ^ L V D S m c k f x A C C A M A / } x.l.x.c.j.s.7.7.4.7.6.8.8.6.6.4.",
"e.5.{ i k j h Z H r.>.I ) >.6.g.a.r.t.0.5.6.0.r.6.p.k.@.! ` ( P M Z V k f h h M C N n C S G Q ' 9.6.4.7.z.f.e.w.0.e.0.w.w.9.w.0.",
"7./ L j x f B 9.0.w.>.f u j z y.b.f.s.q.6.6.3.s.z.z.x.+.Q ` / P D c j k k f s g j z j b Z B B V S S M Y h.j.z.g.x.z.h.g.g.h.z.x.",
"=.Q U l f N J 7.5.3.3.A m j c 5.0.j.j.w.0.u.9.d.f.r.y.| I W W J N l h z j m F c a j g c Z A Z V n C M L w.8.p.t.w.w.i.i.i.i.w.e.",
"A Z n p A 8.8.8.q.8.5.3.<.v a f n e.b.h.d.g.d.j.k.#./ M g M F c l z l h a W 7.} f l d d h f f f z l g p z h V C Z A ~ ^ / ^ D S ",
"N G m v L 9.7.5.8.4.0.0.2.m n k z w.t.p.l.g.f.a.d...! Z j v D c g g j b k _ p.{ z m b m M v n m l a z x d v C B C V ~ ! ! ^ Z S ",
"j f F 9.2.9.8.6.8.7.7.7.6.6.,.c d v m :.9.0.6.o.) ( ^ H C A V M h j a / 8.3.7.5.2.4.3.5.2.5.6.o.f k l h g f k j k k k c Z V A N ",
"x k K 0.8.7.6.8.6.9.7.3.6.0.2.V v p x ;.<.8.,._ ~ ~ ~ U C C A c j z l _ 9.9.0.6.7.8.6.8.6.8.q.-.k l j j m m j k k h z h F G S J ",
"2.,.,.w.5.6.8.7.7.6.8.e.0.3.0.<.:.m p M z / .._ ( L C n d l n f p ( 1.9.7.4.7.6.9.8.7.9.6.8.q.2.1.3.4.5.u.1.F N j x U ~ e.d.r.i.",
"9.e.0.8.6.5.8.5.7.7.3.2.4.4.9.0.3.M l h k U E ! ( F N v g k g x f [ w.9.4.9.9.5.8.5.6.8.5.5.8.5.7.7.7.q.v.u.F Z g x / | u.g.l.c.",
"p.s.a.g.f.7.5.q.7.8.8.7.9.0.9.i.h.t.r.B f C S H Z x x k g k g ) 3.4.8.6.7.9.4.4.8.5.8.9.7.6.6.8.q.8.4.6.k.t.Z Z j v ! ! _ [ y.j.",
"h.x.j.g.a.6.3.7.6.5.7.8.5.6.6.l.d.l.k.B d B A V S v h j k h p ] r.8.7.6.5.5.5.0.8.6.9.9.8.7.5.9.4.5.6.w.l.y.S C j v ~ ( ! ( u.h.",
"#.0.i.d.g.g.f.a.h.j.a.2.4.k.a.d.s.I C n B n z k l j d J Q W P $.7.8.8.9.9.9.9.4.7.6.9.6.7.8.5.q.d.d.a.f.k.r.H V g l W ) ~ ~ X. .",
"O.5.r.k.k.j.g.j.d.g.g.0.7.k.a.x.d.k p J N h k h f k s R ) ^ _ %.q.6.2.8.7.3.8.8.7.6.9.5.6.0.6.w.j.k.j.v.l.r.K m k c ^ ) / / Q ~ ",
"' { o.| &.w.w.7.e.s.h.a.s.s.g.#. .S V z l c d L T Y R Q ~ +.-.q.s.p.d.r.7.6.3.0.7.8.6.q.i.a.d.p.k.w.D L ~ T S V k j c C Q / _ ~ ",
"! ! ^ Q | 4.9.0.r.k.c.h.z.v.d.' W F C x j j l P ] _ ( ^ ` ,.0.f.x.z.j.w.5.0.6.6.7.6.7.w.k.x.s.z.c.7.d f V B C Z j j s h ^ ) / ( ",
"_ ( / ! _ o.o.....@.o.' _ ] ' L S H C z j f l B C T ) ^ E } ..O.@.0.l.d.t.p.i.y.i.u.a.i.z.y...$.O.{ c V H B v b h n } } Y S I K ",
"^ / ) ( ( ) ~ W ^ / T Z x b n M V Z m k z g g g f I [ ] Q ) ^ W R ,.x.b.k.l.x.x.z.x.c.k.l.7.^ Q ' T A Z C M h p s l 7.8.C n Z V ",
"D J L L L K P P F P J Z G +.#.+.O.W I L L c g j f A J J G ~ _ / / ..&.&.#.#.&.$.#.%.#.%.&.X._ ! H A A Z v S | {  .{ p.s.:.>.V z ",
"b V C Z V M Z Z D S C V L 7.0.0.8.' / ) ! v h g k V B C C Y ) ` _ ^ R Q ~ W Q E Q ! R Q ~ ~ ( ! V H V b a z 6.e.y.w.h.l.c.k.N a ",
"j n n N M n B n b z v M A 3.5.9.6.#.@.%.%.` ' B d v b S Z D L I L K J ~ ` / ) ^ _ _ ( / ) R A Z B G K W { { 9.3.5.7.r.t.d.g.#. .",
"a h s s a i f i a s d i g 3.9.6.5.w.9.7.w.q.t.Z i a u M Z A Z V Z C B Y ( ^ _ / ( ( _ / ] Y d l S S / ] 0.q.5.9.6.q.6.5.h.l.c.c.",
"W Z D G D ( / ~ ^ ^ ~ ~ [ :.0.9.7.9.2.8.q.4.8.{ ~ / ~ A n x m b v C B J U P E K T P T P S S f c Y E %.#.4.8.7.6.8.6.4.8.y.p.s.g.",
">.' / ` X.0.q.w.w.w.e.q.9.0.0.6.5.0.7.3.4.4.9.7.8.y.e.H i d z k g M S S C B B C N M V m d j f c Q { 0.5.9.5.5.9.7.8.6.6.6.8.a.k.",
"{ ^ ~ / | 7.8.8.5.6.8.9.7.4.4.4.5.8.q.5.9.y.0.i.t.=.;.Y S n f f j v C n m B v Z A S A V j N T Q +.&.w.4.7.4.4.6.6.0.7.8.3.4.d.l.",
"/ ) ( ~ ] 4.7.7.7.7.5.6.8.8.9.w.8.6.5.3.9.g.g.h.c.] ! ! ] A d k h f g a h l d v Z A V F Z ( e.q.9.4.9.2.8.0.8.7.5.8.5.0.8.8.f.f.",
"^ ( _  .&.0.8.7.9.0.7.5.8.8.4.4.7.7.8.w.w.d.x.0.6.| / T E n h k z z k l z j h v B B b M z I q.4.8.7.q.7.9.8.7.6.5.7.5.9.w.t.h.g.",
"/ ^  .7.q.9.5.9.4.9.6.4.9.9.6.7.6.6.9.g.k.s.k.o.U ` / F A v h f p a f j j h j j d h h k a D 0.7.4.5.8.6.7.5.6.6.6.8.8.9.i.h.j.x.",
"_ ^  .9.5.<.4.q.7.r.e.q.q.5.4.r.t.0.0.s.z.9.q.^ L ~ R S Z b d Z L H I M d l k h k z z l d D 9.7.0.9.5.6.7.8.0.9.7.7.9.9.g.l.9.8.",
"/ ! | 8.8.0.9.2.e.f.l.z.g.0.8.f.j.j.x.l.j.| ^ x g b Z D Z c p ] r.0.r.Q u d s h g d s f g K w.9.4.7.5.7.5.4.6.6.8.5.6.5.g.s.[ W ",
"` W O.8.3.9.w.8.e.l.d.w.w.0.0.g.g.r.e.y.q.) E C l B m N N A M X.5.e.5.] D B S G S A J m d H +.;.r.4.w.8.e.q.4.9.0.7.0.7.g.l.] / ",
"! ~ O.7.9.9.3.x.j.x.t.~ } f.v.l.s.[ R ~ ' D C Z H k h j i  .r.8.7.9.9.7.8.0.0.6.8.6.u.| r p x S x.z.x.l.f.d.8.3.2.9.k.k.x.h.] ~ ",
"Q W { 8.1.8.9.f.j.q.r.) ] q.t.y.t.{ ( R E G B N N g h V n ..e.2.9.6.5.8.0.8.6.5.9.2.e.@.N B f D 9.u.9.q.k.d.e.e.0.0.h.g.t.e.{ ^ ",
"z a S a.q.3.e.z.i.~ _ E / ( ! ` ( W ( H S D C v x j f { 9.8.4.q.6.5.6.7.6.4.8.e.9.5.8.6.8.$.n D F C f S l.l.h.f.j.g.b.y. .' ! ) ",
"k k S -.;.7.6.p.9.^ ) / ` ^ ( W ! ) ^ A m M M k s m N O.r.6.1.7.8.8.8.7.6.5.4.3.4.6.4.1.t.%.L G A m f Z 0.0.s.i.y.t.s.8._ ~ ^ _ ",
"k j x h D y.,._ ( ~ ] ( / ! / D S ( / D B N c g a #.7.4.7.8.0.8.5.7.7.6.7.0.0.8.8.q.q.4.9.9.j.8.B A Z C z b ( ` ` ( ) { / ` ) ! ",
"j c x a S 6.*.! / ~ Q W / _ ^ D V E ^ D B x i v c ;.0.<.7.0.7.2.7.9.8.5.3.4.5.6.5.6.9.7.2.0.n.6.B Z Z V s v W Q ! / W / Q ~ / ( ",
"I q.[ j g v M A S F S Z A S C Z A z l f z h g +.4.6.6.0.9.2.6.0.6.5.6.8.0.9.7.6.7.6.5.0.6.r.k.7.N A A C D N S G ( ^ D D D D A Z ",
"W e.@.k l p c V C S B C A V S B N c h h k h x %.w.7.4.5.7.7.7.7.0.6.3.8.7.7.q.5.0.3.8.8.6.t.x.4.C V B Z A Z V A ! Y H B A V Z Z ",
";.6.w.t.&.k l k g h x S Z k k z m p z l x +.,.2.9.7.6.7.8.7.7.8.6.7.8.8.5.5.8.7.2.8.8.y.a.a.m.8.V V j k l k n g M x l x h z x h ",
"w.5.0.m.8.d g l z j z D C k g j f f h f g &.u.8.6.7.8.8.8.6.7.8.4.7.8.6.9.0.5.9.q.w.5.q.h.h.h.8.C m x l d a l g f h j h j g g h ",
"8.7.8.x.5.d h j f d f x j k k h h -.:.7.9.p.f.s.a.s.d.d.s.s.s.d.f.g.f.a.d.t.3.w.s.y.d.a.k.9.E H j c d c 3.%.d v l z h k &.=.&.*.",
"6.3.0.b.1.f c f v k j z a k j d v 3.8.g.v.x.j.j.z.l.k.k.k.l.l.k.j.k.g.k.c.u.5.u.x.f.l.l.x.<.N M j k f M q.,.j f h k h c 2.0.9.q.",
"r.g.f.x.w.K R T J z k L ! @.$.*.+.J S U Y [ ..X. . .| } |  . .| X.X.| 4.l.d.u.d.k.7.] } +.^ B C h l T R A L -.@.@.#.%.=.2.5.6.7.",
"8.l.h.s.y.( / ` T l l ~ ..5.5.0.7.f f C A E ^ ! Q ~ ^ ~ ~ / / ^ W / Q :.l.l.x.h.z.6.~ ! ( R C N d Z [ T p z 6.t.y.0.9.e.7.0.8.2.",
"g.d.j.x.q.! _ / ^ J W -.-.8.4.0.<.M l l v M Z B C F J J H J J J G ^ E ..*...#. .) R K K H H l x j x ` Y j S 0.p.6.6.7.3.8.4.7.9."
};
