/* XPM */
static char *result[] = {
/* columns rows colors chars-per-pixel */
"64 64 79 1 ",
"  c #554F35",
". c #575336",
"X c #595436",
"o c #5E5836",
"O c #5A563A",
"+ c #5D593D",
"@ c #615C3D",
"# c #67613F",
"$ c #5F5B40",
"% c #625E42",
"& c #656144",
"* c #686345",
"= c #676348",
"- c #686449",
"; c #6E6949",
": c #736E4C",
"> c #75714C",
", c #6F6B50",
"< c #746F51",
"1 c #757253",
"2 c #797556",
"3 c #7A765A",
"4 c #7D7A5D",
"5 c #7E7C60",
"6 c #827C5A",
"7 c #827E61",
"8 c #848063",
"9 c #898366",
"0 c #8B8769",
"q c #8E8B6E",
"w c #918C6D",
"e c #938E72",
"r c #959175",
"t c #9A9475",
"y c #9A9679",
"u c #9E9A7C",
"i c #A29E77",
"p c #A39E7C",
"a c #A7A076",
"s c #A6A17C",
"d c #A9A37E",
"f c #9F9B80",
"g c #A29D82",
"h c #A6A282",
"j c #AAA583",
"k c #AEAA85",
"l c #A7A388",
"z c #ABA68A",
"x c #AEAA8A",
"c c #B1AC86",
"v c #B1AD8B",
"b c #B3B087",
"n c #B5B18E",
"m c #B8B28E",
"M c #AFAB90",
"N c #B3AE91",
"B c #B6B293",
"V c #BAB596",
"C c #BDB996",
"Z c #B7B398",
"A c #BBB699",
"S c #BEBA9C",
"D c #BEBBA1",
"F c #C1BB97",
"G c #C1BD9D",
"H c #C2BEA2",
"J c #C5C19E",
"K c #C5C1A4",
"L c #C8C4A5",
"P c #C6C2A9",
"I c #C9C5AB",
"U c #CCC9AC",
"Y c #D0CCAF",
"T c #CFCBB0",
"R c #D2CEB2",
"E c #D5D1B5",
"W c #D8D4B6",
"Q c #D6D2B8",
"! c #D9D4B9",
/* pixels */
"%&$%$-$&&$$-%$-%;;%$=$%%%$%%%%%%$;%&-%&%%&%%*%%%*%=%%=$=%&*&####",
"2ZZSZZZBZZZBZZNf7MFNNFZNZFZZZHZMgf7fFMMFVBVzwyBANNZZZZNZBNyrrwtw",
"3QTTTTQRTQRTTQTZzH!HHQHQQHHQH!HHGzgF!HH!RYWUlvRRRRRQRRQRERMhjpbj",
"3IHlMPKKPPPIPPPZHHHNNNNFHFHHHHHFFFMFHFGHADGANNGADDAAMMHHHHSBACji",
"3DKuuHSKHHDPDDPPHHHlfjfzGMFZNZFNZZZZFMFNZABBSZVVZZABggSHHSLFLLjp",
"3SKAZKHKHPKKKHPKHHHGFzgMFGFMlNHFHGGHHGHHDSAGHSGGZSSANNSSGGFVvcmV",
"4HHKIKKKKPHDDKKDHHHHHzgMZZZlgzHGHHHHHHHHKKKIHSHHZBVVZSVBNAAAjpFG",
"1KKxxDASSDSDDSDDFHGFFMMMFZFMzFGFMBHHZZFFASAAASFAAAGSSSSGGSAAjpFG",
"3HSufCZBZZBBBBZZZNFFZZZFFNFFBFFzpjVAZNZZFZZZVBVAVCHHKKKKKKAVluCK",
"2GJBBSSGSAGSDSHSHZZNZFZZZZFNzNBNxNAAZFFNZZZVFNxxBBGGGSSSASCSnxGJ",
"4GKKKKGKLKKLGHHHHFZZFZZFBFBjpjBFAFBBFNFNANVmNmjpCBVBBCZZZZBSVBGK",
"3GKGGLKGKBBASSGSGFNFNFFNFZFNxBFBBVVVNFNNAVFAFFppxnCSGGSSSGSSvxSL",
"3HKJHKKKShuxCCBBFMFNFZZZZFZFFZFZmFFFFBFFmFFFmcpiujGKKGHKHHISzpNH",
"2HHKHBBHKBxSGMxBNFZFZNFFZBZZFZZZFnccxNxFnnFvcccdjvASKKHKHHHHVNSH",
"3KHKSlhSKKJLGlsmNFNFZFFZFZFZFZZFmvpppjccvvkjpdFFSCACGKHHIHHIHHLI",
"3KHKDhsVCCCCCjpbFvNNMMNZMFNMBBNmvkgjjjcxjvkcppFcmmBZVSASAZHHFZGH",
"2LKHGhskadkcdappaaahpdcvxxvvvvvkpjcvccvccvxksskkkkxvxkbxspCHluVI",
"2AAKGhscFckcFcjpaaaajjjFcvxvckkdpdkcjjkkkkxkhjxvnxcckkkkjjSJvzVH",
",lkGSppkjjccdccdaaajjccjcccvcjpppppspssssdkxkkvcxvkcbvbxxjSLJKIK",
"1uhHGzxBFjccdjcjjjjjvcxcvccbcjddddddddddpjknbbckkckvxbxbkkCCVCVC",
"6pzHHHHHGjppajcjxckvvvvxccccdFaFmbbdbbkbcccbkcvvvvbxkckksussphuu",
";hjGHHLHFzhadjcFccvvccxcccckdddkdcbdkdkdkkcckcckkxcckvbbkjjshslx",
"6tcGHHHHHGFFccdcxcvkvkxvkccjaadpaaadsssssscbccvvkvxxxnCJGJJJkpBJ",
":ijGHHGHFFFjpFkcxvxkvvvvkmvjdddpdaddassssjvvcvvvbxbxkmSJGJCJxsCK",
":idFHggjgdjppdpkcccvkCJJJJFmxxvkjcccccxvjBGGLFHGKGGKKGHJnvxxGFJJ",
"6tkGGjgjjiapdadccccvkCJCJJJCvcvMmcjcccxcvBHHGGHHGJGKGJGJxxxxSGJJ",
":pdGLGGHFdpadjjvcvjckbvckCSJGGGGGCcvnjhzGGKHNMNzvNnxxxxNnxxxvxVJ",
":dcFGGLGGjpppxNNvvcvvvkxkBJKGKJGJmccxjpjKKGSvMMMxxMxnMMMxxBxvnCJ",
"6FHIHHGNvjvccAHHGGHHHNcvkbbbxvvcbbkcckkmJKJKSSDHHHHHDHDDHHHSSJxs",
"3FHHHHHNxcvvvFHHHHHHHZcxkxkkkvkkkkkkvkxnJGSHHKKKKHHHHPKKDGHJKLxu",
"3HHHHHHHGGFVHHHHHHHHHGAvsssdsdaaddddkdsjnBnBKHSKHHHHPDHHKHKDGGkp",
"3HHHHIHIHHULHHHTHHTHHILvsssssddddiskbkdhxxxxLKHKPKKPPPPPKHKKKIxg",
",35355533555335555555333<2<2<><<>1122221133355545525555555544421",
"$$$$ $$$$$$$$$$$$ $$$$$$+@O@@@@@#@@OOO+%++++OO++++++++.O+++OO+OO",
"lMMllMlfffgllMZMlllMllMMzzzzjjg9@8xxxlxzMzxxzxzxzxzxzzMMlxzzzzxz",
"QTQQQQQHHZHHQQ!!QQQQQQ!!RRQRQLHy.r!ERRQREERRRRERQQRRQQQQREQERERR",
"DDDHHPPHDDDHHHHHDPPPIHIHPHIHPHHy.0IZDHUPKPKPKKKKDDDSSSBxDKKKKJDS",
"ZZDHHHPHHHHHHHHHDPDDHHHHHHHHHHHg+8DBAAHDPDDKKDKKZBCBZMluSJDDJHSZ",
"ZZDDPHHHHHHHHHHHDPPPHHHHDDDHSSKy+qUSZZDPDKKDDKDDDSJSJSZMKDKJKDDS",
"ZZDDHHHTHHHHHHHHPDPDHHHHHDZDBVDr.rQPZDDPPKKKKKKKKJDKKKJPKKKDKKKD",
"ZZFGGFGGGFAHHFFGDSSSSSSSSSVVSZSrOrRPDDJKSSSSSDSDGGSGGSSGSSSSSDSS",
"ZZZZZZZZFZZZZZFZAZZVCZCAVCBBBBGrOeEPDKJDZZZZZZZZBZBZVVVVSBSZZZZS",
"HFZFFNMFVVVVZZBZVBBVVVVSCSSSASUyOeEPSSJSZCSSSSSSGAGFASSSbxZZZCZB",
"ZZZZZZGZZVVVZFFZVVCCVVCSKGJKKKEu.eRKZZCZCSKKKKKJHHLHHHHKllbSZCCB",
"FMMFFMFNVVVVNFNFBZFZBVVVHSSVNGQf.eEKNBCZBSSDDSSDHGGHSSGSxkBCCCBB",
"NFFFZFZFAAFVFBFBFFZBVVVVVSSzuZQf.eEJxMSZBZCZBZZZZZBZVZVASBCSBCCC",
"vNFNNFNNmmmmNNNFZNNAGSSVZASMlAQgOeEGxbSCSSCCSCSSSDAAASASBnxnbnbb",
"jjcvjzxxkvvxcxxvMzMGHSVVABZAAHEh.eEGxBJDJJDJJKKDHHHHKKKJhsspsdis",
"jkckxvvckcvkvxvvBbZSSBBBnmBBMSQg.qEDknJJJJCSGSGSGSSASSSFjjjddppd",
"cNcvccckcckkkjvGJPDBxxxxkbbdsBEu.rWJlBKJJBsskvvxxxccxkckbkccccdp",
"vvvcccccbccnnvvGSJDZbxxkcxkshV!g.qUSxnSSJmshkbbxjkxkkkccvkkcvcds",
"vcvxcvccvkvFHGGHJJLJDMskbxbbzCQg.8Zxxxvvvvkxvxxxsshpsdkcvvcvcccc",
"kvvccckxccMFGGFGSJSSSxuzvkxxkVEg+8CxMMxvkkvvnxkxssssasdbccdccccc",
"ccccjdahhzvvNNzxxxxxbxkbkckspZ!g+rTSMxxvvvvkxbkbkkccckcbddadkccc",
"cccckdaapjccNxvvbbxxxxxxkbvkhVQf.rQJxxnvvkvxkxkxkccccckcdiiddmcd",
"ccccckccccccxvvvxxbbxxbxbBJJSH!g.eEIGJHSJJJJJJxkbvccccccccccbdcb",
"aFbccccccjccccvjkbbbzxbxvCJLHKQf.eRKKKJSJJJKJCnkccbccbckcccccccc",
"adccccccvmccccjmxbxxxBSJGBxxvSRg.0Sxxxnnvxxbvbkxvccdssdsdipdgdpp",
"dkcckccxjccjccccxxxbMSLKLBxxxSQgO8vjxxxkbxckkxxnccvchssppppggggd",
"pdddjdjgjFFFGFFFJSSSSKJBvjxvzS!g+5xjxbxxvkbkkbkbkvFGGCCSFFFFFFFF",
"pppggggfcGHGGGGGDJPDDKKZxzBxlAWuo4kskkkkckvbvvvmxvHHKJKKKKKKHLHL",
"FFFFHHGGFHHNFccFbSPJDKKDSSJNxGQpo6jsjddjddckckdglxGHKKSKHHHPHHHH",
"HHHHHHHHHHGNMxxxMSKKDPPDDJKBxDRpo6dasassadcbcjgpggFHHKPHHHPDDPHH",
"IIIIHQHHHGNNxxxMxMZZZDUPUUUZzxHro6duddsascFJJGFGGGUYIPIUIIIIIIII"
};
