/* XPM */
static char *result[] = {
/* columns rows colors chars-per-pixel */
"64 64 230 2 ",
"   c #2A3D1E",
".  c #233C19",
"X  c #2D3B24",
"o  c #2B3A28",
"O  c #33362D",
"+  c #333C2C",
"@  c #3A3C2C",
"#  c #353929",
"$  c #2E3E33",
"%  c #2C3633",
"&  c #353534",
"*  c #393535",
"=  c #343C34",
"-  c #3B3B35",
";  c #35353A",
":  c #3A353B",
">  c #353B3B",
",  c #3B3B3B",
"<  c #413C3B",
"1  c #413538",
"2  c #2B431C",
"3  c #29481A",
"4  c #36571A",
"5  c #305219",
"6  c #366819",
"7  c #2E650E",
"8  c #2C4223",
"9  c #2D422B",
"0  c #2A4926",
"q  c #334325",
"w  c #334C24",
"e  c #34422C",
"r  c #3B442C",
"t  c #344B2C",
"y  c #3B4C2D",
"u  c #384825",
"i  c #3B532C",
"p  c #395726",
"a  c #2E4333",
"s  c #354334",
"d  c #3B4335",
"f  c #344B33",
"g  c #3A4C31",
"h  c #35413A",
"j  c #3C423B",
"k  c #3D4B3B",
"l  c #3B5932",
"z  c #2A5222",
"x  c #3B6424",
"c  c #3B6921",
"v  c #3D632B",
"b  c #3C7224",
"n  c #1C4207",
"m  c #417F1E",
"M  c #425A2B",
"N  c #42433D",
"B  c #424A3B",
"V  c #414935",
"C  c #445A3B",
"Z  c #465739",
"A  c #45672B",
"S  c #4A792D",
"D  c #517C2D",
"F  c #456433",
"G  c #4A6336",
"H  c #4B643C",
"J  c #486C37",
"K  c #516C3C",
"L  c #4D7439",
"P  c #4B7735",
"I  c #517D35",
"U  c #54733B",
"Y  c #547D3C",
"T  c #597A38",
"R  c #617E3B",
"E  c #363C42",
"W  c #3C3C42",
"Q  c #383845",
"!  c #423D43",
"~  c #3E4243",
"^  c #3B424C",
"/  c #434443",
"(  c #464943",
")  c #4A4B45",
"_  c #444449",
"`  c #464A4A",
"'  c #4B4C4A",
"]  c #4B4547",
"[  c #4B5445",
"{  c #4B534B",
"}  c #485946",
"|  c #53534E",
" . c #555A4C",
".. c #4D4D53",
"X. c #464B51",
"o. c #4E5654",
"O. c #535353",
"+. c #5A5554",
"@. c #535B54",
"#. c #5A5C55",
"$. c #54555A",
"%. c #5A555A",
"&. c #565A5A",
"*. c #5C5C5B",
"=. c #524F4D",
"-. c #625D5C",
";. c #645C5A",
":. c #4D6645",
">. c #536D43",
",. c #5A6C4B",
"<. c #57684B",
"1. c #4E7641",
"2. c #547344",
"3. c #5B7D44",
"4. c #5B724C",
"5. c #5C7C4C",
"6. c #557846",
"7. c #5C6354",
"8. c #556B52",
"9. c #5C6B54",
"0. c #5D635C",
"q. c #5C6B5A",
"w. c #556252",
"e. c #5D7653",
"r. c #627D4C",
"t. c #617948",
"y. c #63635D",
"u. c #69635D",
"i. c #636B5C",
"p. c #646857",
"a. c #617354",
"s. c #637B53",
"d. c #63735A",
"f. c #6B7B5D",
"g. c #68795C",
"h. c #636E4E",
"j. c #5C5C62",
"k. c #555964",
"l. c #635E63",
"z. c #685E62",
"x. c #655F6B",
"c. c #5E6363",
"v. c #5D6469",
"b. c #5E6A64",
"n. c #5F6571",
"m. c #636364",
"M. c #696464",
"N. c #646A63",
"B. c #6A6A65",
"V. c #646469",
"C. c #69646B",
"Z. c #656A6A",
"A. c #6B6B6B",
"S. c #716E6B",
"D. c #706D64",
"F. c #6C7565",
"G. c #6C7B63",
"H. c #6C736C",
"J. c #6C7B6B",
"K. c #717C65",
"L. c #72746D",
"P. c #737C6B",
"I. c #79786D",
"U. c #6C6D72",
"Y. c #666571",
"T. c #726E73",
"R. c #766C78",
"E. c #6D7373",
"W. c #6C7576",
"Q. c #747474",
"!. c #797574",
"~. c #757974",
"^. c #7A7B75",
"/. c #75747A",
"(. c #7A757A",
"). c #757B7B",
"_. c #7B7C7C",
"`. c #817B7C",
"'. c #827A76",
"]. c #4C832C",
"[. c #49862C",
"{. c #548B2E",
"}. c #54842B",
"|. c #4D8433",
" X c #4E8637",
".X c #528434",
"XX c #598334",
"oX c #548A34",
"OX c #54833B",
"+X c #5B833C",
"@X c #568A3C",
"#X c #5A8A3C",
"$X c #549132",
"%X c #61833C",
"&X c #45841C",
"*X c #5C8344",
"=X c #5C8A42",
"-X c #5D834B",
";X c #548443",
":X c #5C894C",
">X c #63834B",
",X c #648C4B",
"<X c #648645",
"1X c #648452",
"2X c #6B835C",
"3X c #698859",
"4X c #748A5A",
"5X c #6B9053",
"6X c #6D8364",
"7X c #6D8865",
"8X c #728363",
"9X c #73836B",
"0X c #75896B",
"qX c #768867",
"wX c #758474",
"eX c #7B8374",
"rX c #7C8973",
"tX c #7C837B",
"yX c #79857A",
"uX c #7F9177",
"iX c #82827D",
"pX c #82857A",
"aX c #7D7C81",
"sX c #7C7585",
"dX c #817E83",
"fX c #7D8282",
"gX c #7D8882",
"hX c #828283",
"jX c #848389",
"kX c #888988",
/* pixels */
"7 OX1X0XtXQ.Q.V.V.N.l.l.M.N.y.j @ y.N._ Q U.hX{ O d = h + :.d.f.pXI.eXP.9X8.. l K.I.!.U.Z.&.O ) `.^.~.H.V.M.x.M.p.9.0 3 0 0 . z ",
" X1.5.9X^.Q.E.V.l.V.l.x.l.m.0.h = N ] W ! Y.hXB.B.N @ h o <.0XK.I.^.).H.q.q.:.6.t.f.'.B.k k - N `.Q.b.N.m.z.] / B g :.1.J 1.L L ",
">X5.2XrXP.~.~.N.m.m.l.M.V.m.j.~ - > - - : S.jX/._.{ = s   w.uXJ.L./.sXW.v.d.>X%XR <XG.8.8 0 % / Q.Q.c.v.-.;.E - X 5 3.%X%XR T T ",
"a.y } eX^.~.Q.0.m.m.m.M.l.V.N.$.$./ : < - *.C.Q.).] # } w.g.wXJ.~./.v.k.^ B M 4 4 A 5.-XJ L 9.A.Q./.b.c.' ] : j K J p p R t.5X1X",
"q.& ] tXaXQ.H.c.0.i.M.u.-.m.B.m.V.! & d - #.l./.aXO.#  .K.G.F.~.Q.E.v.X.= + o X 2 l *XOX}.OX9X/.!.L.0.0.= : < e OX*X8 = d.G.9XW.",
") > =.hXaXQ.Q.m.0.y.y.u.y.y.m.y.V./ : - - ' ' ' ..N - 7.P.P.P.A.A.c.Z.$.= j - j s f l c {.XXK./.S.M.m.c.; j O.C D OXw.v.Q.E.n.Z.",
"e o N eXhXQ.A.N.M.0.m.m.m.m.y.m.j.W : , , - * - : & O #.I.Q.~.H.N.m.m.{ & < , W E = 9 p %X%XF.T.l.l.m.c.> j q.4.OX;XP._.~.~.N.q.",
"w H 7.pX^.Q.!.A.A.N.l.V.m.V.l.m.N.&.O.W : , N - - #.i.A.~.A.H.y.-.M.M.%.O.] ; ! E E h f M K Q./.x.x.m.*.= d 4.6.v F F.~.Z.A.i.7.",
"4 >X3X0X^.Q.(.Q.Q.m.v.V.V.l.m.m.M.c.V._ : , - - - B.jX_./.A.0.y.-.N.M.C.B.O.* : : E , = X B ^.T.C.m.i.#.- u +XOX8 8 F.L.N.0.y.p.",
"7 .X6.7XyX!.!._.Q.j.v.v.v.m.M.y.y.v.V._ : E < d - B.hX/./.C.m.m.M.V.x.l.y.$.] O.' ` > j d ' _.U.l.-.y.7.@ w .X.XC { ~.Q.N.z.m.u.",
"7 oX*X7XrXtX^.!.T.m.V.v.c.m.u.u.m.m.x.! E : - - - B.hX^./.C.m.m.m.N.m.y.N.m.V.N.F. .o X - B /.W.V.V.m.#.X 5 .X#Xa.m./.U.V.l.l.M.",
"7 oX=X1X3X0XI.~.Q.U.U.v.b.m.y.y.V.m.m.=.' ! , , * B.hX/.(.A.l.m.v.c.0.c.N.c.V.&.{ } Z Z @ N W.E.V.v.y.p.Z A v F 7.M.sX/.V.V.x.x.",
"6 OX#XOXY 3X0XP.Q.Q./.V.c.N.m.m.j.m.V.m.m.` , W ; A.hXQ.^.A.m.V.N.v.j.c.c.q.M.+.o l >XU X / fXE.v.m.i.h.+XI 0 s 0.V./.Q.C.m.l.V.",
"M F S |.oX,X3XG.!././.M.m.v.V.V.V.l.N.N.M.] ; , : Z.hX~.Q.A.m.m.m.m.v.V.N.y.+.) % l +XL [ O.y.y.O. . .Z XX|.8 E $.%.Q.~.A.N.c.V.",
"} 2 5 .X$X[.3.0X^.~.!.-.y.0.v.V.V.N.m.0.m._ > , , Z.hX!./.A.l.m.l.m.m.m.y.| 1 1 = l Y ;XeXZ.* * - = @ u .XOXf , ; < H.!.!.I.Z.v.",
"&.k l P S |.*X8XeX_.I.M.y.0.v.v.j.N.M.c.B.) ~ / ; A.jX^.(.S.N.N.y.M.V.j.y.| 1 1 > } 1X-XJ.A.< , - k g M P F d W < < B.S.I.L.N.v.",
"c.N.w.2 5 OX<X7XtXdX'.M.y.0.v.v.Y.v.m.i.c.m.i.( O A.dXdXdX^.~.S.*.m.V.m.u.+.1 : = { yXeXQ.N.& - o t @XI . # - , , W ;.u.D.!.C.v.",
"N.N.*.@ p K 2.8XL.sX`.M.y.c.v.v.j.N.V.m.0.0.#.( < M.(.(.~.!.Q.Z.N.c.v.c.;.Z < , , $.hX_./.A.N j y x [.].Z ( N / Q E ;.;.S.!.A.Z.",
"V.-.%.: @ q @ 7.A.aXaXm.c.N.V.m.V.l.c.m.m._ ,  .M.] : +.M.H.Q.U.l.V.y.) @ # = - & ..tX!.~.Q.i.i.3..X{. X2X~.Q./.^ E ! ! A.).y.#.",
"m.m.l.< @ V B q.Z.aXaXm.v.m.l.l.m.C.M.m.V./ * +.M./ ; =.#.B._.Y.v.c.u.[ V M i k _ j.hX^.!.A.y.w.U D *X5.6XP.E.E.~ Q : , A.~.N.B.",
"7.N.k.> i r.>Xf.H.fX^.m.V.M.z.M.;.;.M.m.Y._ % @.Z...Q Q & #.aXU.m.m.N.q.1. X@X-XwX_.fXQ.!.T.M.y.X V 9XeXpXI.i.*.N < : j W.yXW.).",
"M.c.k.$ 5 T <X1XwXaX^.N.x.z.u.M.C.M.y.0.c./ = @.c._ ; ~ : *.(.A.m.-.7.>.@X[.[.:XyXfXdX_.!.L.j.&.j [ _.dX'.^.M.y.< - - : Z.W.W./.",
"R.Y.k.s 5 I 3.7XyXsX(.V.V.v.y.y.-.i.q.j , > = , < , * ! & #.^.B.N.' e G =Xb z ~ fX^.!.B.y.$., ^ aX(.jX_.Q.Q.l.-.1 1 ! ! l.l.R.sX",
"R.Y.*.e 5 OX:X4XyXaXaXm.v.c.y.#.7.8.4.i 8 f u u q V - < O y.^.B.c.) X M ,Xv 3 o.fX(.I.L.M.0., ` hXfXaXaX/.Q.m.x.! - , * *.l.U.sX",
"R.'.M.# 4 OXt.4XeXM.Z.V.Y.j.c.V w U .X{.].D D Y T 4.G.{ % l._.O.- - d s r V # O.jXaXR.Q.-.N.fX~.yXtX~.Q.V.m.V.m./ * , - N < -.N.",
"'.!.N.e w T %X4XI.u.C.*.v.Z.m.d 3 I {.}.}.#XOXOX<X1X6Xo.% k.aXO.@ @ u u @ 1 : +.hX(.R.!.y.B._._.aX_.F.H.N.v.v.j., j - - < - #.M.",
"o.).U.% p +XT 4XeXM.*.N ~ j : d 3 Y XX,X7X7X9XG.f.h.y.) & %.fXo.$ } P T f.^./.Q.tXE.x.-.< < _ .././.V.N.l.V.m.y.0.#.d = E > ~ j ",
"{ W.b.9 z *X>XqXK.B.7.e 8 t e o 8 4.s.2XwXwXgX^.I.u.;.) - 0.~.@.X J oX,X0XtX_._.H.B.C.+.- - , _ R.Q.m.m.l.m.m.M.0.i.< - ! W > > ",
"$.h Z 5.6.3X7XJ.I.- i U D I U w s P.wXE.~.).~.{ V < ( , @  .N.8.P  X[.<XyXN.] ( N | Q.H.B.A.C.T.!.~.m.m.z.M.V.V.l.z.! ! O.&._ ! ",
" .8 w r.2X7XwX).A.@ w OX{.}.*Xg - U.fXQ./.).~.) - - > o q C 2.5.;X;XY >XpXV.; & * =.).~.^.~.Q.Q.L.L.m.m.M.M.V.j.C.z.! , 8.d.! : ",
"6 U K >.d.yX_.!.U.s 0 1..X7 g i.F.^.^./.E.A.N.] > > h H I D XXA z 6.eXI.iXA.%.V.M.C._.A.N.M.N.A.A.Z.*.M.-.M.v.v._ ] < @ L Y s , ",
"7 %Xr.,.b._.`.(.S.= w ;XI 3 = ).iXI.~.!.Q.A.y.( > > $ >.*XD #Xx . @.iXiXpXH.x.U.`.!.).U.m.m.M.0.V.c.7.h.w.q.q.8.e + = q D @Xw + ",
"D OX5.6XJ.tX(./.S.e w 1.1.e.H.T.(.!.!.A.m.i.M./ $ ~ s  .h.s.2XF.N.Q.iXQ.B.N.0.m.B.M.U.Z.m.l.] ( ~ Z 3..XD  XI I S 1.9 t ]..X,.p.",
"<X>X>XqX0XyXkXQ.S.- w 5.1X7X^.`.(.Q.L.B.m.M.y.] > h o Z y.P.tXgXjXhX`.S.y.i.0.m.l.m.v.m.M.+.= s X p Y .X#X.X+XXX;X;Xf q P OXK.^.",
"<.l A >Xg.l 0./.B.@ t G.7XyXpXI.(.A.N.m.m.l.M.B + } H a.K.L.).W.).H.S.B.N.m.c.v.V.z.-.y.M.#.e a H F M l Z i Z Z e.8.s q s.g.~.Q.",
"} o w r.6.. 9 Q.S.< ~ J.yXyX^.L.Q.C.l.m.x.m.M.B 8 >.t.4XeX~.W.sXW.A.y.-.l.m.v.v.z.C.M.M.u. .t z =XI 8 8 X # @ O w.:.q u F.L.).R.",
"&.= g C A G H K.F.: / _.tX^.!.!.Q.V.l.m.V.l.m.B X U Y >XeX^.sXW.U.A.u.;.z.m.V.V.z.z.C.l.] Z A b [. XH w.9.p.;.;.F.f.A A g.L.~.~.",
"$.= e X 0 -X1X4XF.: ! dX`.L.~.~.Q.N.m.l.V.m.V.B 2 L OX,XpX^./.Y.j.c.u.u.M.l.V.j.M.;.M.+.& Z @XoX{.;X8X^.kX`.'.'.~.8X%XOXf.J.F.J.",
"-.' ' , g H G r.d.d ! `.`.!./.H.H.m.M.z.m.v.V.( 8 L +X<XeX!.^.Q.Y.U.y.u.M.m.V.m.y.y.N.@.o g .X].*Xs.~.Q.^.Q.%.%.&.:.|.|.g.P.Q.~.",
"-.A.*.& s 8 2 r.U   d !.dX(.Q.c.c.0.;.M.m.N.V.~ 2 J =X,XeXQ.(.S.).U.-.y.u.-.N.v.M.7.8.:.  p #X#X3XJ.hXhX/./.1 : * q [. X2X~.~.Q.",
"-.M.z.] ' h f 5.3.M G I.hX_.Q.N.b.c.;.M.m.m.V.( 8 L ;X*X9X_.^.L.A.A.y.m.M.m.c.N.c.8.3.S 4 A A >.P.^.(.sXU.A.! , : q |. Xe.H.E.Q.",
"A.l.M.m.j.> f 7X,XOXr.qX_./.E.m.0.N.M.m.m.m.V./ 8 J =X*XP.`.iXL.0.m.-.m.C.Y.m.Z.c.e.|.}.,XU 2 s iX_.Q.U.m.v., > & u Y ;Xq.N.Q.(.",
"j.x.m.M.l.! k :.P *X<XqX_./.~.b.c.V.m.l.m.m.m.)   K =X*XF.^.hXA.y.u.m.v.V.k.$.$.} 2.{.&XA G [ *._._.L.Q.m.j.j = ( B :.>. .O.Q.Q.",
"Y.V.-.M.-.: > 9 w Y 3.7XyXQ.~.m.c.N.N.m.V.M.M.B X >.>X1XK.!.hXH.y.y.m.N.V...> = e 4 $Xb n Z tXhXfXfX~.~.Z.*., = i.0.d $ & : A.~.",
"Y.v.y.u.l.! ] = w -X5.8X_./.!.N.V.j.M.&.=.l.M.N s C H a.P.^.tXH.0.i.y.N.V.k._ / + i @XS   { iX`.aX_.B.D.m.-.] ) -.y.j = ! 1 B.I.",
"j.Z.i.0.z.z.m., t 5.s.0X~.Q.!.N.V.N.m./ : #.A.B $ h e <.P.P.wXH.0.m.y.*.m.M.N.*.+ l *XP o ` _._./.U.u.u.z.N.y.u.M.y.e + - < D.'.",
"b.q.c.0.M.C.-.@ y >.>.rXtX^.~.l.l.V.y.B - =.;.N Q E % 0.I.9X8XG.N.V.m.i.m.M.N.%., } r.>.~ k.fX`./.T.y.m.N.v.l.M.z.w.l i = E m.Q.",
"0.0.m.v.C.l.*.- e 8 f P._.!.L.C.V.C.#.N * - - : Q W > i.P.g.s.s.).A.m.M.-.m.m.V.V.M.<.a.fXfX_.aX/.T.m.m.v.v.m.m.m.9.+X;Xf , A.^.",
"Z.Z.m.*.C.C.j.h t 0 l 9XtXQ.!.M.C.m.j...! ] N , / ~ > 0.F.2.3.3.a.A.j.m.N.0.N.m.M.u.i.N.hX_.(._.(.T.m.v.j.Y.v.l.i.,.D XXy - Z.E.",
"W./.Q.M.z.V.j.+ w 6.e.0XtX(.!.Q.L.Z.Y.x.l.-.m.m.V.` & = + :.=Xx . { Y.C.c.0.m.m.u.;.y.N.hX_.!.(.(.T.N.N.n.x.x.m.p.<.OX+Xr @ c.b.",
"/.Q.H.y.y.*. .i 4 OX*X4XtXQ.Q.Q.E.N.x.V.V.m.-.m.m.' N - = :.U A w Z #.j.c.N.j.V.M.M.Z.A.^._.T.!.T.L.7.0.m.V.l.y.y.8.6.2.j - #.0.",
"A.Q.L.y.7.+ w U OXOXU qX~.N.N.H.~.N.l.V.M.m.y.N.m.m.m.*.i.Z 2 A t.H = ..N.b.v.V.l.B.tX_.tX^.N.M.'.L.p.y.m.C.m.y.y.7.k a j , 7.N.",
"M.^.Q.0. .t p 3.Y *X5.qX8Xp.9.f.g.i.N.m.0.m.i.M.j.l.C.V.C.[   A <XA o { c.0.k.V.m.Q.fXtX~.~.M.M.!.D.u.i.M.M.-.p.*.0.a $ / : +.y.",
"A.(.Z.a B e.2.3 3 2.e.9X0Xs.6.3X6XP.Q.V.m.m.m.0.V.N.V.l.m.)   A <Xc X { B.$.> $.dX_.yX~.Q.(.T.!.M.z.-.m.y.y.-.B.~ ~ a s , ; m.M.",
"M.Q.b.a f d.a.q g q.N.G.qX>XI =Xs.G.~.V.*.m.m.0.m.m.V.l.U.{ o G #Xc   ] m.$.Q O.hXtX).yX/._.T.R.x.x.m.m.y.M.#.y., $ g e : ! -.y.",
"N j ~ a f e V w.c.W.L.d.,.3.OX.Xr.G.H.B.0.m.N.c.m.m.m.x.V.` X F #Xc   N , $./.sXaX_.W.).Q.U.M.V.x.x.x.C.m.*.N j , h K 4.~./.!.Q.",
": = + g 8 9 k c.A.E.P.7.<.5.I ;X5.f.P.M.m.m.m.m.m.m.m.l.Z.) X G #Xc q j * %.hXaX_.iXH.Q.Q.T.m.V.c.c.x.l.v.c., - > k h.s.pXiX^.Q.",
": - y ,.8.F.H.sXQ._.S.N r i z Y 5.4XeXQ.Q.m.j.m.j.N.m.m.V.) X G =Xc X : & %.jX_.!.L.N.N.C.A.m.b.q.w._ / ~ ( : , H.F.8X8XI.L.Q.~.",
"< @ 4 R 1X0XgXfX^.^.B.j d X 3 I 3.3X9XP.(.A.V.m.m.m.m.m.N.{ X F @Xc 9 / * O.jX(.I.S.m.m.c.m.*.q.2.H - : > > : j ~.pXeXtX^.!.I.~.",
"< @ 4 XX*X7XyX).Q.B.i., > s w U =X4X0X~.^.A.l.m.N.| / / ` j X F =Xb o , ; %.kX!.B.y.-.N.0.i.q.<.5.5.i.H.U.U.U.U.~.yXZ.A.i.B.i.y.",
"< @ 4 %X=X7XyXW.L.m.c.W E > w P OX5X7XrX_.A.m.m.N./ & * : s X H ,Xc + , * $.hXT.y.y.m.N.0.q.<.1.OX3.rXiXfXfXfXdXhXaXC.l.m.0.i.y.",
"< # 4 T -X7XtX/.S.m.m.k.k.=   T oX X-X6XtXS.A.A.m._ - / j > X F @Xx e , & %.hX).A.B.m.y.7.e.6.OX X+XpX!.~._./.(.C.A.V.l.N.l.m.m.",
"E a l 3.e.0X^.!.!.y.-.V.v.j q T oXoX-X6XrX^./.C.M./ * : & - e G #Xc q - $ &.fX).Q.Q.l.i.p.4.Y @XOX*XqXI.~.Q.!.R.M.x.u.u.m.V.V.l.",
"^ h 0 l :.0XtX!.S.u.m.Z.v.{ } x 7 [.*X6XwX^.aXM.N.] * N , ) [ >.+XI 9.O.; ~ &.c.^.S.l.u.d.K 6 b =X,X9X!._.A.T.Y.C.l.u.u.z.l.$.X."
};
