/* XPM */
static char *result[] = {
/* columns rows colors chars-per-pixel */
"64 64 234 2 ",
"   c #7D7E67",
".  c #7C846D",
"X  c #7C896D",
"o  c #768573",
"O  c #7B8673",
"+  c #7D8874",
"@  c #7E8C7A",
"#  c #778C7D",
"$  c #7D9079",
"%  c #908B5E",
"&  c #828167",
"*  c #8C8B64",
"=  c #83846B",
"-  c #848B6D",
";  c #8C8C6A",
":  c #8B8767",
">  c #918E66",
",  c #918D6C",
"<  c #8B906B",
"1  c #92916B",
"2  c #929568",
"3  c #848571",
"4  c #848D73",
"5  c #8B8D73",
"6  c #848D7A",
"7  c #8B8C7A",
"8  c #8C8670",
"9  c #928C74",
"0  c #849176",
"q  c #8C9173",
"w  c #85927B",
"e  c #89937B",
"r  c #8B987E",
"t  c #95937B",
"y  c #99957A",
"u  c #9A9B7E",
"i  c #959174",
"p  c #A19B7D",
"a  c #A3A07F",
"s  c #7A8E84",
"d  c #7A8F89",
"f  c #768D87",
"g  c #7D9285",
"h  c #7C938B",
"j  c #7B998B",
"k  c #7A9795",
"l  c #7B9EA0",
"z  c #848E81",
"x  c #829282",
"c  c #82958C",
"v  c #899687",
"b  c #9C9D84",
"n  c #9D9E8A",
"m  c #929C88",
"M  c #819491",
"N  c #829A95",
"B  c #849D9A",
"V  c #A29D83",
"C  c #A29B86",
"Z  c #9AA087",
"A  c #93A196",
"S  c #94A399",
"D  c #98A59B",
"F  c #88A69E",
"G  c #A4A185",
"H  c #A8A185",
"J  c #A5A38B",
"K  c #AFAA8C",
"L  c #ADA689",
"P  c #B2AC8D",
"I  c #A7A893",
"U  c #ADAC94",
"Y  c #A8A897",
"T  c #B3AE95",
"R  c #B3AE9A",
"E  c #BAAF9D",
"W  c #AFB194",
"Q  c #AFB199",
"!  c #B3B295",
"~  c #B3B39C",
"^  c #BBBA9E",
"/  c #B9B49D",
"(  c #8A9FA0",
")  c #89ABAA",
"_  c #9BAEA4",
"`  c #94AEAB",
"'  c #97ACA5",
"]  c #9CB1A4",
"[  c #96B3AD",
"{  c #9BB3AB",
"}  c #97B1A3",
"|  c #9AB6B1",
" . c #9DBAB6",
".. c #9DBCBC",
"X. c #95B6B6",
"o. c #BCBBA3",
"O. c #B8B7A3",
"+. c #A3BDBE",
"@. c #AAB6A2",
"#. c #C6BE9B",
"$. c #C2BCA5",
"%. c #C1BEA9",
"&. c #C8BFA1",
"*. c #9FC2BC",
"=. c #A4C2BE",
"-. c #A9C3BA",
";. c #B5C6BB",
":. c #BCC6BA",
">. c #BCCABD",
",. c #B6C8B8",
"<. c #BFC1A9",
"1. c #C9C19E",
"2. c #C5C4A4",
"3. c #CAC5A5",
"4. c #CACAA6",
"5. c #C4C3AB",
"6. c #CAC5AC",
"7. c #CCCAAC",
"8. c #C7C9A2",
"9. c #D2CCAD",
"0. c #D8C9AC",
"q. c #D5D1AD",
"w. c #C6C7B5",
"e. c #CBC6B2",
"r. c #C6CBB5",
"t. c #CCCBB4",
"y. c #C5C7B9",
"u. c #C4CBBC",
"i. c #CCCCBA",
"p. c #CBC7BB",
"a. c #D2CCB3",
"s. c #D9CDB5",
"d. c #D3CEBB",
"f. c #D8CCBA",
"g. c #CFD2B3",
"h. c #CED2BC",
"j. c #C2D1BE",
"k. c #D4D2B6",
"l. c #D9D4B6",
"z. c #D4D3BD",
"x. c #DAD5BC",
"c. c #DCDABD",
"v. c #D3D8BE",
"b. c #E0DCBE",
"n. c #8FBBCB",
"m. c #9BBDC5",
"M. c #96BDCD",
"N. c #9BBDCB",
"B. c #94BCC4",
"V. c #8DBED2",
"C. c #94BDD1",
"Z. c #99BED0",
"A. c #98BFDA",
"S. c #A3BEC3",
"D. c #A2BFCA",
"F. c #A0BFD1",
"G. c #96C1CD",
"H. c #9CC3CC",
"J. c #9CC9CE",
"K. c #9AC2C6",
"L. c #8BC6DC",
"P. c #95C3D3",
"I. c #9CC4D4",
"U. c #9EC9D5",
"Y. c #94C4DB",
"T. c #9CC4DA",
"R. c #9BC9DB",
"E. c #95C9D9",
"W. c #83C3CC",
"Q. c #A4C2C5",
"!. c #A9C2C5",
"~. c #A3C3CB",
"^. c #A9C4CB",
"/. c #A6C9CE",
"(. c #ADCACD",
"). c #ABCAC5",
"_. c #B5C7C6",
"`. c #B5CAC4",
"'. c #BCCBC4",
"]. c #B2C7CC",
"[. c #B4CBCB",
"{. c #BACDCB",
"}. c #BAC6C4",
"|. c #BCD1CB",
" X c #A2C4D3",
".X c #A4CAD3",
"XX c #AACBD2",
"oX c #A2C4D9",
"OX c #A3CBD9",
"+X c #AAC9D5",
"@X c #B2CCD3",
"#X c #B9CDD2",
"$X c #BAD2D3",
"%X c #ABD1DE",
"&X c #8CC4E1",
"*X c #89C8E5",
"=X c #91C5E4",
"-X c #96C9E5",
";X c #A4CCE6",
":X c #C3CCC2",
">X c #C6CBC5",
",X c #D3CFC1",
"<X c #D9CEC3",
"1X c #CDD3C3",
"2X c #C7D1C6",
"3X c #D5D3C2",
"4X c #D9D5C4",
"5X c #D6D9C3",
"6X c #DBD9C3",
"7X c #D5D6C8",
"8X c #DBD6C9",
"9X c #DDDBCB",
"0X c #D7D8CA",
"qX c #DCDCD2",
"wX c #DBDDD8",
"eX c #E1DCC4",
"rX c #E1DDCD",
"tX c #E2D7C7",
"yX c #E3DED1",
"uX c #E2DFD8",
"iX c #DEE0CE",
"pX c #DEE1D3",
"aX c #DEE4DA",
"sX c #E4E1CE",
"dX c #EAE5CC",
"fX c #E4E2D3",
"gX c #EAE5D4",
"hX c #EAE9D5",
"jX c #E5E4D9",
"kX c #EAE5D9",
"lX c #ECE9D9",
"zX c #F1EBDA",
"xX c #F0F0D8",
"cX c #E7E5E4",
/* pixels */
"z.4X4X4Xf.x.<X<X<X4X4XtXfXfXrX6Xz.6X,X4Xz.J i &.b.b 3 [ Y.=XI.Q. XN.Z.oXN.~.H. XQ.I.H.H.H.~.H.H.K.~.I. X~.H.*XL.{.r.7Xa.p i e.x.",
"x.3X3X3Xx.x.b.f.d.x.z.5X4XtX4Xx.z.x.z.x.4X6.$.s.b.V . ` U.-XXX].].].#X].].@X].(.(.].].].).(.(.[.[.XX+X@X`.@XL.E.'.t.z.4X3.2.x.l.",
"z.5Xx.x.x.x.x.5X4X4Xx.z.z.z.x.l.l.c.x.f.x.c.b.x.x.J + D I..X{.:X:Xu.:.u.u.:Xu.u.u.:X>X:Xu.:Xu.'.u.'.:X:X:.{.T.P.u.q.z.l.x.c.x.l.",
"b b b b b b b b b b b b b b u Z u u V b b b b b Z w o [ .X.X:Xe.d.z.k.z.z.g.d.d.i.d.z.z.5X9XiX0Xi.5Xi.r.G A N.I.m u Z b V b u G ",
"+ O X + O + + o + X X + X X X + O + + 6 + o o O + s g [ U..X>Xd.v.6Xc.z.5Xz.5X5X5X7X,X7XqXjXjXgXx.x.4X6.: - G.P.g o + # + O + + ",
"] { { { | X.| | { { { ] { { { { { | [ [ { { [ | ` [ ) ..I. Xp.f.c.o.J o.5Xz.z.z.5X4X8XrXyXjX9X,XK P 4Xa.% e G.P.X.} [ [ ' | ` | ",
"H.H.H.I.P.Y.P.U.~.H.H.H.J.H.H.J.J.J.G.J.H./.~.H.I.I./.I.Y.%Xy.9.c.K ; ! c.z.d.l.k.4XrXfXgXrX4Xt.: p 4Xf.* w V.*XI.J.J.J.G.J.I.U.",
".XXX(..XR.Y.E.R..X(..XXX(.(././..X.X+X@X~.(.XXXX.X~..XJ.V.+Xu.s.x.4./ 7.dX4Xl.5X6XrXdXrXrX6X,Xt.^ 2.4Xe.% w P.*XU.XX.XJ.XXXX/.(.",
":X:X:X2X$XQ.^.|.:X:.2X:Xu.2X:X:X>X:X>X,Xy.i.p.u.2X|.|./.P.+X2Xa.4X4X4XtXgXrXd.8XyXgXzXyX,X,X4X4X4Xz.4Xa.* q Z.=X[.:X,.j.j.y.d.6.",
"i.d.e.I ' +.).'.i.d.t.i.i.d.3Xp.p.8X<Xs.0.s.0.f.h.@.S +.G. X>Xd.,X8XyXyXkXyXd.4XtXtXrX8X4X4X4X,X7Xz.4X7.% 5 N.T.{.r.h.g.a.s.0.0.",
"3X6X%.= B S.=.'.r.z.v.v.5Xz.3X1X7XfXzX4Xx.4XtXb.c.n + ' ~.(.r.z.3XqXjXfXqX0X,X,X7X3X3Xd.3Xz.d.5X3Xd.4X7.> 5 Z.T.{.y.h.h.4XtXf.b.",
"o.6X3.. B ~.Q.`.r.z.z.O.O.z.h.0XqXqXkX4Xd.$.E e.6Xn O ] ~.XXu.z.qXpXjXqX7X7X7X7X,X7X6X0X0X6X3X4X3X3X4Xt.* 0 C.T.{.r.h.5Xo.E 4XrX",
"J l.4.- k K.).>.t.l.g.9 t a.3XfXjXaXqX7X4Xn 8 6.x.J 4 ] ~..X:X7XjXfXqX9X7X7X3X7X3X4XrXfXlXfX4Xz.3X3X7Xr.; w M.T.{.r.3Xv.i 5 0XcX",
"o.c.#.: N K.Q.|.r.l.z.T T x.9XfXfXfX7X7X5XO.K t.6XG + D Q. X{.7XjX9X4X7X7X3X3X7X8XrXfXyXyXtX,Xd.3Xd.z.r.; w G.Y.{.y.h.v.^ / wXcX",
"c.c.&.3 k J.Q.{.r.l.4X4XtXdXfXqX6Xz.z.5X3X5X6Xk.b.b X ] ~.(.'.5XfX6Xz.3Xz.3X,X6XrXgXlXrX3X,X3X4Xx.z.c.7.; w N.T.:Xa.a.l.xXxXwXwX",
"z.6X0.3 k .XH.[.p.f.z.d.4XfXjX9X6Xv.z.6Xh.3X4Xl.c.Z X Y ~..X:Xd.9X4Xv.l.l.5X7XtXrXrXyX9Xz.4X4X<X4Xx.c.k.; x C.T.:.a.6X6Xb.sXqXqX",
"5XhXl.: k K.Q.{.p.b.f.i.7XyXyX7X3Xz.5Xz.d.9XsX6Xb.p - ] J..X:Xf.,X4Xv.k.k.4XuXuXlXrX3Xh.5Xd.<X<XrXtXlXiX= v M.I.>.r.yXjXrXdX4Xz.",
"iXdX0.= N J. X[.p.b.s.l.4X9XtX7X7X3X3X4XtXrX9Xx.x.u . } G./.p.f.8X5Xl.k.l.4XqXwXuXrX1Xh.3X4XtX<XyXsX9X5X; x B.I.'.g.cXcX8X4Xz.4X",
"aXjXs.3 k J.~.[.i.s.q.v.5Xv.v.4X7X,X7X4XtXlXzX4Xb.V + ] E.U.:Xf.<X<Xc.k.l.z.<X8XtX<Xh.1Xg.3XyXyXlXgX5Xt.> e m.H.;.y.wXwX9X4Xd.d.",
"wX9X7.3 k H.~.$Xi.l.l.5.5.z.z.z.3X3X9XfXyX4X,Xl.c.V + [ U..X:Xs.4Xf.5.r.c.z.4X<X<X<X5X5X3X0XkXyXd.z.x.7.* w K.I.:Xi.qXqX7X3X7XqX",
"rX6X3.= N Q.Q.[.i.l.a.y y a.x.z.z.rX9XjXkXY 7 %.c.Z + ' I.OX:Xa.tXR 8 R 6Xz.4X4X8X4X,X4X9XsXgXtX9 V l.7.; z I.P.{.e.i.4Xd.5XpXaX",
"i.b.#.; N Q.Q.{.p.l.d.C G a.x.z.z.gXrXyXuXE C %.c.a + ' I.OX:Xl.4X#.b O.z.d.x.f.<Xd.z.4X9XyXfX4XV L x.7.= x T.I.:Xr.l.c.6.6.aXaX",
"R l.1.: M S.XX#Xr.v.6Xv.k.c.v.z.z.dXgX7X7X0X4Xa.c.Z O { I..Xu.a.x.z.z.4X5Xz.x.x.z.6X4X6X5Xd.7X5X8X,X9Xi.9 z ~.N.y.t.x.k.C i r.8X",
"Y 6X1.: N S.Q.).:.h.i.g.7.7.g.t.g.c.6Xl.i.t.a.7.k.b O ] H.Q.,.4.q.4.l.t.7.a.9.9.t.a.7.7.a.7.t.r.t.d.e.e.8 z N.~.u.6.l.s.C p f.4X",
"1X4X3.- c =. .j 4 q 9 , , , 9 8 ; ; , , 5 8 , > > * X ] ).) = ; > > , 1 q ; ; q ; 1 , 1 , 9 q 1 2 > ; ; * r K.K.>.t.v.v.z.d.z.z.",
"r.5X&.- v !...j g 6 6 7 7 4 7 z w 0 6 w z z w 0 0 w x [ G.) g 4 4 0 6 6 6 @ g w 4 6 6 6 6 6 @ 4 X X e r @ j G.E.>.r.t.k.d.k.k.l.",
"2 2 * - M H.G.P.M.F.N.N.H.m.G.M.B.N.N.N.M.Z.m.m.N.N.n.Y.=X&XM.m.m.N.~.N.N.A.Y.V.N.m.N.N.N.N.N.N.J.B.G.M.B.n.L.W.g 0 < < 2 2 > 2 ",
"$ 0 + 6 B G.L.=XY.T.A.F.I.J.I.I.I.I. XoXT.T.oX XI.oXT.Y.=X=XT.I.OXI.Z.N.Z.=X*X*XT. X.XI.oXoXI.oXI.I.U.I.I.R.*XL.k $ w w 6 0 0 X ",
"G.G.N.M.M.Y.L.L.P.XX`.'.>.:.>.'.'.'.>.>.`.{.'.:.}.'.'.#X@X[.{.>.`.`.>.>.|.(.P.R.[.>.'.`.'.'.'.'.'.'.'.;.{.@X&X*XC.N.M.M.Z.Z.N.M.",
"R.P.I.oXT.V.L.Y.J.[.>.i.p.p.t.r.p.u.r.r.r.r.i.t.i.y.r.r.>.>.i.i.u.r.h.g.w.-.G.J.y.t.y.u.r.t.i.p.r.i.t.t.w._.Y.&XA.oXT.R.A.T.T.T.",
",.>.'._._.@X%XP.K.[.:Xz.3Xd.h.h.1X3Xz.k.h.h.v.z.z.d.z.z.5X3Xd.z.5Xh.k.! m D U.U.u.t.h.1Xh.z.z.,X,X7X5X6.u m G.T.#X>X`.'.`.>.;.).",
"r.r.i.i.u.:X@X~.!.{.i.z.7X3X5Xv.3X3Xz.z.v.3Xz.z.,X4X4Xd.5X5Xd.z.5Xh.iXP   B R.U.u.a.z.7X5Xz.d.x.4X3X5X7.- @ K.Z.#X%.r.r.g.r.r.r.",
"a.v.z.z.7.m ( D.S.|.r.d.z.Y J i.4Xz.3Xd.z.7Xz.z.3X3X3X3X3X9XgX%.b 5.b.! & D I.U.:Xs.3Xe.C R c.4.J T 4X7.- r K.P.{.w.v.h.r.z.g.h.",
"6Xc.z.z.1.8 M S.^.`.y.6Xa.i t t.3X3X4X3X3Xz.,X4Xd.3X4Xd.3XrXgX%.= ! c.! & S I..X:Xe.4X2.7 V z.k.9 J z.t.* 4 M.U.'.i.i.3XeX6Xz.7X",
"r.J ~ c.8.= B S.!.{.y.v.l.5.%.z.3X3X3X9XrX9X9X4X3X3X3X4XyXfXgXd.o.9.6X!   A J..X:Xt.3Xa.$.6.z.t.o.5.5Xt.* w G.T.'.i.3Xz.T I 3XfX",
"o.9 J v.4.= M S.!.'.r.z.z.6X6Xz.4X3Xz.rXgXfXrX4X3Xd.5X9XgXrXrX6XtXx.c.! = D I.I.>.a.4X4X4XtXx.z.eXx.z.t.< e I.Z.'.e.5Xz.t t 4XhX",
"t.%.5.z.7.- M D.!.'.u.4Xa.z.z.z.3XrXyXfXyX8X9X,X3X9XrXrXgX6X6Xz.,Xl.x.T & S I..X>Xr.x.3Xd.<Xz.4XeX9Xx.t.; 0 G.T.'.w.h.5Xr.d.rXfX",
"z.4X3Xx.3.- h D.!.{.u.z.z.4Xz.z.4XyXgXfX4X7X4X3X4XrXlXgXgX6X3X3X4X3X6X~ & S I.I.:Xt.z.5X4X4X3Xz.dXdX4Xt.* w P.T.'.r.3Xz.gXzX9XyX",
"9X6X9XeX3.4 M S.!.{.u.4Xz.z.z.sXrXfXfX9X4X4X3X7X3X9XfXrXrX3Xd.4X<Xd.6XO.= S I.G.;.k.4X,X<X8X8XfXsXeX5Xt.; x G.I.'.p.0XsX6XrX0XrX",
"4XhXsXz.2.7 M D.S.|.y.z.z.4Xz.fXgXrXyX0X3X7Xd.4Xz.9XfXz.z.3X4X3X4X,X7X~ & A I.OXu.t.z.<X,X8XlXfXrXrX4Xr.* w M.T.'.i.fXhXgX9X7X3X",
"rXsXrXc.2.4 M S.!.'.:Xz.z.z.4XrXfX0X7X7X,X7X4X3X3X4X9X3X3X4X3X4XyX8X4XR = A A.OXu.t.l.7XyXyXyXyX9X4X6Xt.: w C.I.{.i.iXsX9X3X7X7X",
"sXfX9X4X4.4 h S.~.{.p.5Xz.z.4XrXrX4X3X<X,Xd.,X7X7Xd.4X3X3X3X3X9XkXtX9XR 3 A Z.I.>.t.z.7XkXuXyXrX3Xz.4Xt.; w P.T._.i.0XfX6Xz.7Xd.",
"rX9X4Xx.3.5 M D.!.'.u.x.3Xz.4X7X0X4X7X4X4X3X3X8XrX,X,X7X,X7XrXyXgX4X4XQ = A P.I.:Xt.3X8XzXyX0X4Xz.d.7Xr.; r G.T.'.e.7X4X4X,X9XqX",
"9X5X,Xz.4.= M D.!.{.r.z.z.z.3X4X7X3X,X4X7X,X7X9XgX4X7X3X3XrXgXfXyX4X6XQ = A I.U.:Xa.z.4XuX9X4X3X3Xz.4Xt.* w M.P.'.i.5X3Xd.,XgXjX",
"4X3Xz.5X4.4 c S.!.'.y.z.z.z.,X3Xd.7X3Xz.3X4X9XfXlX9X3X4X8XyXkXyXtX4X6X~ X A I.U.'.t.d.3XrX4X5X3X4X3X4Xt.; w G.U.'.r.h.3Xz.4XrXfX",
"7X3Xz.x.4.4 c S.!.[.u.z.z.4Xz.3X3X4X3X3X4XrXgXlXjX7X3XyXjXyXyX9X3Xz.6X! & A U.I.:Xa.3X4X4X,Xz.5Xz.d.4Xr.* w G.P.'.r.z.z.5Xd.qXfX",
"d.3Xz.z.3.- M S.).'.y.z.z.4Xx.3X3Xz.3X4X9XrXyXyXqX4X<XyXjXyX8X7Xz.d.6XQ = S U.I.'.t.5Xz.,X3X6X4Xz.z.4Xt.* w M.I.'.i.z.z.z.3X9X9X",
"4X4X6Xl.3.5 M S.Q.`.i.z.l.x.z.4X4Xz.4XsXfXgXrX7X<X7X,X9XrX7X8X,X4Xl.c.! = S I.T.:Xt.5X3X,X4XhXsX5Xz.4Xt.* e N.I.}.r.v.4X6Xd.7X<X",
"9.e.6.z.9.= M +.Q.{.r.l.z.5.6.d.x.d.4XrXgXrX7X4X7X7X,XrX8X4X8Xp.3.9.b.W X A I.I.'.v.,X,X9X7XfXrXx.l.3Xe.* w N.I.:Xt.v.k.7.e.d.8X",
"3., J x.6.= c m.Q.|.w.4Xl.b 9 a.z.l.5X9XsX0X3X3X7X4X,X,Xx.4X7XO.; ! b.! & S T.T.'.i.d.rXlXjXjX9Xz.z.4Xr.: w N.T.>.t.g.g.b i a.4X",
"6.u U 6X6.7 j ^.Q.`.w.x.d.J C a.4X4X4X9X9X7X,X3X3X4X<Xz.x.4Xv.o.b ^ c.W . B I.oX'.t.tXtXuXuX9X9Xd.z.4Xt.* w M.I.'.r.g.v.J y d.3X",
"k.l.z.6X7.4 s ..Q.{.g.l.4X5Xx.x.z.x.x.6X6X5Xz.4X5X4Xl.x.c.l.v.k.z.x.dX! = A oXOX>.z.dXkXgXyX4X7X4X3X4Xr.: w I.U.{.g.h.iXk.k.6Xx.",
"4.9.4.t.#.5 c -.-.-.5.3.7.r.3.9.7.4.7.7.7.4.4.4.7.7.4.q.8.1.4.q.9.3.9.L ; m I.+Xj.k.gXdXfXrX4X,X7X7X8Xd.* w G.I.+.5.r.3.9.9.3.9.",
"5 4 4 e 4 . g =. .j 4 q 0 4 - 5 5 5 q 4 4 4 5 0 ; ; - - - 0 < * q q t 5 . A Z. X>.l.rXtX<X4X<X7X,X7XgX4X; 0 K.P.v 6 4 w q - ; 1 ",
"x g c s g h l G.G.k f g s g c g g g g g g g g g g g g j j k g g g d g s h ` Y.R.>.z.dXtX4X<Xd.4X8XtXlXeX; $ G.E.k c f h g g g g ",
"+.+...S.+...G.U.P.M.S.+.+.+.+.+.S.S.S.S.+.S.S.S.+.+.=.m.J.K...K.m.K.Q... .m.&X-X{.i.4Xf.4Xz.4X4XuXyXuXx.* w E.L.m.+.Q.m...*.*.*.",
"!.S.^.!.Q.Q.H.I.G.H.^.Q.Q.^.!.~.~.^.D. X!.^.Q.Q.^.!.D.oX=XA.D.+XQ..XK.Q.=.J.=X-X{.u.5Xx.d.7Xz.6XlXdXsXz.> $ Y.L.D.S.XX~.S.~.Q.Q.",
"|.[.{.[.`.#X$X+X@XXX{.[.`.'._.'.{.@XXX#X_.#X$X@X].#XXX XA.;X@X].@X[.`.[.`./.L.R.|.g.z.3X3X4XsXsXrXrX6Xa.* w M.=X+X{.].{.{._.[._.",
"y.u.u.u.u.u.:.'.'.>.u.y.u.r.u.:X:X:X:X:Xy.r.>.>.u.:X:X].N.+X2X>Xu.u.r.r.u.'.I.OX>.g.x.4Xd.9XjXiXdXtX5X4.* e M.T.{.>X>X>Xp.y.i.i.",
"9XrX9X3X3X1X3XqXiXiXpX5Xh.3Xz.z.g.i.h.h.z.k.h.g.k.I v ] m.(.u.t.z.z.v./ b _ M..X>.7.6X6.b R 0Xz.C U v.4.> 0 N.T.>Xy.>Xp.3Xd.d.3X",
"fXgXfX7X7X1X7XyXfXfXfX7X,X3X,Xz.6X3X5Xz.l.l.v.v.6Xu . ] /.(.u.t.5X3X5X~ 6 ' I..X>.g.c.%.9 J l.7.9 V x.k.> 4 G.I.{.u.1X1X6X3Xi.7X",
"yX0X7X7X7X9XqXyXfX0X7X7X7X7X7XrXtXfX9X5Xk.P b 5.l.Z o ] J.^.j.k.5Xg.v.o.7 ' R.Z.>.r.l.k.6.t.x.q.4.6.l.7.: e I.I.'.h.h.v.I J 5X9X",
"9X5Xd.i.3XiXdXgXrXx.3X1X5Xz.3X9XyXgXjX0Xx.H 5 o.b.G . ' H./.i.a.x.l.x.$.5 A .X.Xu.k.b.b.l.d.q.b.b.c.x.7.> 4 M.P.'.7.v.g.y 9 4XdX",
"4X3X6XrXsXsXrX6X6Xz.z.z.4X6X9XsXuX4XqX4Xf.6.5.k.c.b . ] /.X.D L L T K V q _ I.B.Z y V V p H H a p p J V , 4 H.U.'.7.g.k.7.3.x.dX"
};
