/* XPM */
static char *result[] = {
/* columns rows colors chars-per-pixel */
"64 64 186 2 ",
"   c #36331D",
".  c #39331E",
"X  c #352F23",
"o  c #363222",
"O  c #3A3423",
"+  c #3C3A25",
"@  c #36342B",
"#  c #3A352B",
"$  c #3D3A2C",
"%  c #373631",
"&  c #3A3532",
"*  c #373833",
"=  c #3D3A33",
"-  c #3A373A",
";  c #3D3C3A",
":  c #423E25",
">  c #423D2B",
",  c #413D33",
"<  c #413D3B",
"1  c #3F4032",
"2  c #454226",
"3  c #46422A",
"4  c #49462C",
"5  c #4B482D",
"6  c #454334",
"7  c #4A4533",
"8  c #4C4A34",
"9  c #44423B",
"0  c #49453A",
"q  c #474838",
"w  c #4F4B3A",
"e  c #534E35",
"r  c #524C3B",
"t  c #565637",
"y  c #595637",
"u  c #5B5837",
"i  c #53513B",
"p  c #5B553D",
"a  c #5E5A3D",
"s  c #60553F",
"d  c #615C3D",
"f  c #3C3C41",
"g  c #453F41",
"h  c #424041",
"j  c #4C4242",
"k  c #4D4E40",
"l  c #534C42",
"z  c #565342",
"x  c #5B5641",
"c  c #5D5943",
"v  c #5D584B",
"b  c #5B574B",
"n  c #5D5854",
"m  c #615D44",
"M  c #625E4B",
"N  c #6F6C47",
"B  c #64604E",
"V  c #6A664E",
"C  c #6E6A4D",
"Z  c #6A6643",
"A  c #706C4B",
"S  c #666354",
"D  c #6C6B54",
"F  c #646159",
"G  c #6E6C5A",
"H  c #726E54",
"J  c #726D5B",
"K  c #737156",
"L  c #73715B",
"P  c #7C765B",
"I  c #7E795C",
"U  c #6E6C61",
"Y  c #726D61",
"T  c #757262",
"R  c #7B7663",
"E  c #7C7A64",
"W  c #757469",
"Q  c #79776A",
"!  c #7B796C",
"~  c #7B7671",
"^  c #7D7B70",
"/  c #827D5D",
"(  c #837E62",
")  c #827E69",
"_  c #84825D",
"`  c #8C865D",
"'  c #8E8A5E",
"]  c #928B5E",
"[  c #988D5F",
"{  c #90845E",
"}  c #9A905F",
"|  c #858264",
" . c #8A8665",
".. c #8E8A64",
"X. c #86836B",
"o. c #8A856A",
"O. c #8D8A6B",
"+. c #918763",
"@. c #938C63",
"#. c #998E65",
"$. c #938D6A",
"%. c #998E69",
"&. c #8F9267",
"*. c #969064",
"=. c #999166",
"-. c #95926B",
";. c #9B936B",
":. c #9C996D",
">. c #8A8572",
",. c #8E8A72",
"<. c #868374",
"1. c #938E72",
"2. c #938E79",
"3. c #969272",
"4. c #9B9572",
"5. c #9E9A72",
"6. c #95917A",
"7. c #9A957B",
"8. c #9E9D79",
"9. c #A29A6E",
"0. c #A09770",
"q. c #A29C74",
"w. c #A49D7A",
"e. c #A99F7A",
"r. c #A1977C",
"t. c #A5A174",
"y. c #A9A276",
"u. c #A6A27B",
"i. c #ABA47C",
"p. c #ADA97E",
"a. c #B1A97E",
"s. c #B0A27D",
"d. c #979183",
"f. c #A6A383",
"g. c #ACA683",
"h. c #ADAA84",
"j. c #A5A289",
"k. c #ABA68A",
"l. c #A7A889",
"z. c #AEAA8A",
"x. c #B0A782",
"c. c #B2AC85",
"v. c #B8AF84",
"b. c #B2AD8B",
"n. c #B9AF8D",
"m. c #B4B185",
"M. c #B9B087",
"N. c #B4B18C",
"B. c #B9B38D",
"V. c #BAB98B",
"C. c #AEAA91",
"Z. c #B2AD93",
"A. c #B4AE99",
"S. c #B5B293",
"D. c #B9B594",
"F. c #BDB995",
"G. c #BAB59A",
"H. c #BDBA9B",
"J. c #B6B599",
"K. c #BFBCA1",
"L. c #C0B796",
"P. c #C0BE97",
"I. c #C2BD9D",
"U. c #C2BEA1",
"Y. c #BCC09F",
"T. c #C3C09D",
"R. c #C9C59F",
"E. c #C5C2A3",
"W. c #CAC5A5",
"Q. c #CDCAA6",
"!. c #C7C6AA",
"~. c #CAC6AA",
"^. c #CDCAAC",
"/. c #D0C7A6",
"(. c #D0CCA7",
"). c #D0C7A8",
"_. c #D1CDAD",
"`. c #D3D1AE",
"'. c #CCC7B2",
"]. c #CECAB2",
"[. c #CECBBA",
"{. c #D2CDB2",
"}. c #D5CEBB",
"|. c #D4D1B4",
" X c #D9D3B4",
".X c #D7D5B8",
/* pixels */
"!..X'.!.].!.].].].'._.~.W.b.p.c.c.3.,.r : P  .D.`.!.].[.[.G.h.V.^.].^.^.!.!._.!.].!.!.^.~.~.^.^.^.T.m.p.v.a.@.,.g < | ..Y.].!.^.",
"Z.C.J.^.].Z.J.!.].C.Z.Z.n.c.c.=.@.+.2.r X P $.S.`.!.'.].'.K.p.c.N.C.l.Y.`.Y.z.N.S.H.{.~.S.z.b.A.S.b.m.p.=.*...O.g , | &.Y.^.].^.",
"z.z.Z.Q.W.b.S.Q.!.z.b.b.g.c.c.*.=...O.e . P +.N.`.!.].[.{.U.h.c.h.z.l.N.(.Y.l.N.f.b._.E.z.b.z.b.k.z.h.a.*.] @.o., , / @.Y.].].].",
"h.h.b.N.c.f.z.B.N.z.b.b.c.;.=.#.{ +.%.e . P 2.B.`.J.C.A.A.b.g.D.Q.F.m.m.V.N.h.h.b.c.D.Z.f.F.E.E.b.h.=.*.] ] [  .< 7 ` @.E.].C.J.",
"m.c.c.c.h.c.c.h.c.x.x.c.c.%.{ #.+.+.$.p O T $.S.`.D.z.k.Z.Z.b.I. XD.z.b.h.z.b.z.b.z.g.k.x.B././.Z.x.#.#.@.@.@.o.0 + E O.Y..XA.C.",
"y.=.=.=.:.p.h.-.0.;.;.;.0.#.@.@.%.$.o.r O R ,.f.B.c.h.u.7.3.%.4.q.w.b.f.3.;.4.w.b.i.%.0.4.;.w.4.4.%.#.=.{ @.-.O.0 @ o.&.h.S.r.1.",
"y.=.@...;.c.h.=.@.` @.@.+.$.%.%.#.%.1.r > T 1.f.m.m.m.5.+.@.] @._ w.B.q.......=.m.i.@.' @.' @.] +.{ ] #.@.-...O.9 , X.&.h.b.4.@.",
";.` ..@...;.;.....@.' ..@.@.+.+.) m x < # l z I 4.-.;.' ` #.] ] @.] ;.-...$...@.;.=.' ' @.@...@.@.#.] ] @.| a i , ; e t  .4.+.+.",
"+.@.1.%.O.$.$...@...*.*...*.*.$.6.1 O ; < & O G 1.O.&.*.+.@.$.$.*.*.....$.3.O.4.+.$.$.$.$.@.$.$.$.$.-.O.,.O.3 + ; ; @ + I O.$.4.",
"m m p x c c m m a y u a d d a c c 1 1 1 ; < ; z m c a a a a d s a y a m p x z p c a a a d a c c a a a c c c $ = < ; 1 = c c m p ",
"X @ # & - & & & @ , o   o o o O o + $ * & * & @ o   . . O O o O o # $ * % - # = o . .   .     o   o .   o o O + % % % @ . . O . ",
"J T F - - g < ; < J U G J J Y G G L D L T G Y G D L L J H J J J Y n ; - g g & l Y L D K H H H H J J G G L D K D T G U U V H J J ",
",.7.R # # , , # 1 X.,.1.1.,.1.,.O.O.O. .O.&.O.o.O.&.,.O.+.,.O.,.d.F @ = ; & # l 2.,.$.O...$.O.O.,.o.&.X.O.+.$...O.>.<.2...*.O.O.",
"4.5.1.V M $ , M L C.z.z.z.k.z.z.z.z.N.h.z.N.l.z.l.z.N.l.b.p.w.8.j.E B v # w S Q Z.z.z.h.h.z.z.z.C.l.J.z.b.b.c.c.z.Z.C.z.w.9.:.w.",
"V.m.h.4.X.> 7 >.d.^._.|._.{.{.{. X].]._._._.]. X|. X].|._.I.h.h.b.u.-.K   m 2.j..X{.^.{.|.{.}.}.[.{.|.^.{.{.)._.|.|.}.].B.a.c.b.",
"y.q.q. .X.: 6 <.6.^.~.I.I.^.^.'.].[.^.!.^._.Q.U.K.H.F.Y.T.B.f.h.9.:...N   m O.r.].^.Q.!.].].'.'.^.!.K.H.U.U.~.^.K.K.'.^.B.h.c.h.",
"y.] @.@.) > , >.6.W.^.C.z.~.|.].!.{.{.].^._.^.J.f.h.b.h.h.h.b.y.' ] ] N o c O.f.'.{.'.^.[.[.[.].|.!.z.j.z.z.Q.^.b.b.W.`.N.h.b.z.",
"s.#.@.@.) > 7 X.6.!.].G.G.!.].K.E.E.H.H.Y.Y.T.D.D.N.h.h.h.h.u.;.] ] *.A o v O.8.{.'.^.~.!.'.K.E.H.Y.G.F.C.N.H.H.N.z.Y.T.c.h.h.z.",
"y.#.] @.) : 7 ) 3.W.|.Q.^.{.^.S.z.l.z.b.z.h.b.T. XL.g.c.v.9.@.@.@.@.#.A o b O.8.{.~.|._.].!.l.h.z.N.].Q.N.h.h.b.h.b.c.h.b.N.h.b.",
"9.#.] @.( : 4 o.3.E.^.^.^.I.I.b.C.S.G.b.b.h.h.F.I.n.x.b.b.w.4.%.#.@.$.A @ b O.8.{.~.P.T.E.F.h.h.z.N.^.W.z.z.h.h.u.u.h.l.h.c.h.h.",
"*.[ ] @.( + 7  .3.E.^.^.W.B.z.h.z.^.|.S.k.b.b.z.b.b.b.b.x.b.B.w.@.O.$.C X M O.8.{.U.g.g.z.z.b.l.z.S.^.Q.b.z.Z.b.3...h.D.z.h.S.h.",
"[ @.@.$.) + 7 X.3.W._.W.T.z.h.S.n.I.E.N.k.b.b.k.u.u.i.x.x.x.x.5.@...$.A X b O.8.{.E.D.Z.b.h.F.N.f.N.E.T.z.h.u.y.5.4.5.y.c.b.i.h.",
"@.#.@...X.+ 8 X.3.W.~.b.z.h.c.W.(.N.h.c.z.c.k.:.....#.i.v.5.' ' @.@.-.C o m O.r.{.{._.U.A.S.^.Q.N.h.h.h.m.h.;.' h.c.=.' c.a.@.=.",
"$.=.@.@.( + 8 X.$.Q.^.z.N.z.h.T.R.N.p.h.u.y.c.:.*.:.*.:.p.:.' *.@.@.#.A o c O.q.~.U.).U.k.Z.E.H.h.p.p.y.p.i.*.:.y.p.:.*.y.c.=.' ",
"%.#.@.@.( O 7 o.1.W./.D.c.c.g.c.c.k.v.;...@...i.c.c.a.:...*.@.*.*.` -.A . p -.-.v.b.b.z.n.f.O.-.h.p.#.@.@.#.a.c.=.#.v.c.;.#.@.#.",
"+.#.@.@.o.> 7 o.4.I.W.v.g.p.c.h.c.p.x.:.#.#.@.q.c.x.h.9.#.#.@.*.[ ] @.Z . a O.4.c.c.g.x.v.e.*.*.a.i.=.] @.#.s.a.=.@.y.y.#.#.#.#.",
"%.] [ -.| + > O.;.x.n.x.c.=.*.@.@.#.#.+.@.@.] =.@.#.=.@.] @...*.@.#.3.A   M 3.=.m.y.%.+.@.] ] ] @.*.@.@.@.] @.@.#.+.;.;.@.@.{ #.",
"@.@.' _ R $ 7 X.o.f.g.g.h.*.@.@.+.@.] @.#.@.@.*.@.] @.@.#.@.@.=.#. .X.C o i | -.a.w.@.@.{ ] [ ] ] @.*.@.@.@...@.#...@.] { @.] [ ",
"o.4._ 2 3 @ = 1 8 O.2.$.$.+.@...@.@.' ] ] ' ..' [ ] ..*.' ' ' ..2.V + $ , 6 $ t 3.$.o.$.*.' *.' *.' ' ' ' ....@.@.] @.@.] *.' ] ",
">.,.K O * ; 1 * 6 ) <.X.<.O.X.X. . .|  . . ..... . .|  . . . .o.1.S $ = ; & @ z o.o.X.o.X.| X.X.|  . .....o. . .X.X. .o. . . . .",
"< , 6 = f f f f * 0 0 6 0 4 7 8 7 6 q q 3 6 6 6 6 q 7 6 q 1 q 1 0 & = ; f f ; = 6 6 9 0 7 7 , 6 q q 6 6 , 6 0 7 6 7 6 0 6 6 7 6 ",
"> > > , = h - - < # ; = = # $ + $ + $ $ $ 1 = $ # > + = $ $ 1 $ $ $ 6 ; * ; 1 1 > # ; & = ; $ = + $ $ 1 , $ , = $ $ $ , $ > , + ",
"/ / / / ( / ( ) R $ $ 6 = = + T ) X.( ( | | / _ / o.( / o./ / | _ _ ( ( / | | (  .H O , < ; @ 8 E | / _ | I | | | / ( ( / ( ( / ",
"+.+.%.+.+.+.@.+.| > $ = $ = + X.1.$.$.$.$.$.$.-.%.%.@.=.$.$.-.$.' *.;.%.#.#...-.$.P : @ = ; $ 4 O.*. ...$...@.O. .....@.+...@.-.",
"D.w.f.x.g.e.i.i.w.E R 6 6 T ! S.U.K.U.I.G.I.I.H.I.F.I.I.F.G.I.N.i.p.i.e.u.y.u.u.x.4./ G @ h R | G.Y.H.H.K.G.L.G.H.I.H.H.U.H.G.G.",
"T.b.n.x.n.b.x.v.h.3.<.> + <.6.E.{.].].{.{._._.^.{.{._.{._._.{.T.h.N.b.x.v.N.h.N.b.w.2.) o k 6.7.].{.{.{.{.].{.{. X^.^._.^._._.{.",
"F.E.U.z.x.b.c.c.h.,.X.3 > X.O.U.^.Q.!.^.^.Y.N.S.D.D.S.S.S.S.D.N.k.D.).L.h.u.-.8.b.i.o.K O i X.-.].].].'.'.'.'.{.A.Z.{.^.G.A.D.G.",
"S._.~.z.b.b.n.c.w.$.,.3 > O.1.I.|.^.^.^.!.J.l.l.f.z.l.h.h.f.z.h.b.L.{.I.h.w...-.c.u.$./ O t  .6.].].].].].].!.].Z.z.^.].A.z.k.k.",
"Z.L.D.z.c.0.9.:.8...X.3 : ( %.W.^.].!.E.J.Y.Y.J.C.H.E.J.b.G.E.G.k.Z.F.D.h.h.f.u.q.=...I   8 &.-.Q.!.'.!.].!.H.J.Z.z.S.S.z.b.G.E.",
"k.z.z.b.g...] ' @...O.3 : o.1.I.].].].A.j.E.|.J.l.E.|.H.j.I..XH.z.b.k.b.c.h.N.u...*...I + e ..4.^.^.].^.].Q.S.l.j.Z.h.z.h.p.W.`.",
"c.b.z.h.c.q.9.*.@.O.O.3 : | 1.I.].H.J.E.K.H.H.H.I.I.D.H.U.G.G.S.l.z.b.c.c.p.:.:...] -.P . w ..4.^.^.Q.~.H.G.b.z.P.I.N.N.B.T.F.V.",
"h.b.N.h.c.v.a.*.*.O.O.3 > X.4.U.^.S.z.E.].S.l.E. XD.g.U. XH.h.z.h.h.c.b.c.t.&. ...*.=.P + w O.-.!.^.].~.C.l.z.b.W.^.h.f.W.`.N.c.",
"h.h.h.c.a.9.9.] @...o.3 > o.1.I.^.V.h.V.T.N.f.F.F.N.g.B.L.N.c.p.N.c.x.c.m.u.5.5.@.@.$.P O w O.3.^.].!.!.Z.z.G.H.Q.^.H.I.T.F.c.h.",
"N.h.c.m.p.] ] ] @.O.O.3 > o.1.I.^.N.f.h.h.c.b.c.h.h.g.h.h.c.c.c.h.c.c.n.m.c.c.p.@.#.-.P # e O.-.~.{.].].Z.Z.~.{.~.^.{._.b.l.S.z.",
"h.N.k.5.9.} ] ] ....O.2 : X.3.T.].z.z.Y.H.S.z.z.b.G.H.D.z.z.z.m.h.h.n.i.0.y.h.u.@.@.$.P O e O.4.~.'.K.K.k.k.K.U.^.^.I.H.Z.z.z.b.",
"f.N.e.@.[ ] } ] *.$.O.3 > X.1.T._.z.N.W._.G.k.Z.f.!. XH.f.z.N.z.N.c.b.q.{ :.m.u.@.@.%.P O r O.3._.E.k.k.z.b.C.z._.~.b.h.z.b.f.z.",
"b.n.h.q.9.=.:.} @...o.2 :  .3.Y.^.S.z.J.Y.H.S.H.H.F.P.D.h.N.h.h.h.h.n.e.@.5.N.y.+.@.#.P O i O.3.^.W.Z.C.D.D.k.z.I.I.b.N.c.c.b.b.",
"b.z.n.b.m.V.a.&.@.@.o.3 : o.3.T._.N.h.z.z.E.].Q.|.D.z.z.h.h.h.b.m.h.n.w.` ;.m.u.@.#.$./ O w ..-.(.E.z.Z.^._.b.c.g.b.k.b.b.b.c.c.",
"z.z.b.b.x.e.e.] $.+.o.> 3 o.$.E.(.A.b.z.z.H.E.I.T.N.h.b.b.z.b.b.h.S.z.i.:.0.n.e.] ] +./ # e ..=.^.~.z.A.~.W.Z.z.C.b.b.h.b.b.b.c.",
"z.N.c.b.s.[ [ =.+.$.o.> > o.$.T._.Z.z.Z.b.k.z.h.b.c.b.b.h.c.b.c.z.N.h.c.v.c.n.f.@.] @.P # l ..-.^.~.z.z._.^.n.b.z.Z.b.z.b.c.g.b.",
"p.y.i.c.s.[ [ [ #.@.o.4 > | 1.E.Q.D.f.N.N.c.c.h.h.h.b.v.h.h.c.h.w.h.h.p.c.a.w.w.@.] %.P # r o.;.Q.^.z.z.E.E.h.N.c.c.h.c.c.h.k.c.",
"y.' =.v.s.[ [ [ @.O.o.3 : | 3.T._.N.h.W._.B.h.b.N.m.h.c.c.m.c.w.' 8.N.M.a.t.$.%.@.#.+./ > l O.3.Q.!.C.z.z.m.h.h.b.c.c.c.h.c.m.c.",
"p.*.4.s.0.+.#.[ $.+.o.> : | 1.F.W.N.i.T.R.N.h.i.u.h.v.i.y.h.c.u.-.q.b.c.y.9.#.+.@.#.#.P > l o.;.^.E.N.z.l.h.N.h.h.m.p.u.p.m.u.u.",
"c.N.x.%.#.#.#.#.$.+.o.4 > o.+.k.c.c.h.h.h.N.c.:.' u.b.0...r.c.c.v.c.b.q.@.#.%.%.#.@.#.P # l o.=._.^.z.z.N.h.m.h.p.h.=...h.c.-...",
"h.x.r.%.0.( #.#.@.$.o.3 2 | -.f.b.k.b.z.i.h.g.q.#.p.c.0.@.w.b.c.f.x.x.q.@.] $.@.@.@.@.P O r O.-.E.E.z.z.f.u.z.h.h.p.-.@.h.b.5.-.",
"@.@.4.+.#.#.#.#.$.$. .2 : X.-.p.v.k.c.4.@.u.n.c.h.c.b.c.c.n.v.r.+.#.$.#.@.@.#.=.] @.#.P O e  .-.z.N.k.z.-.@.c.m.m.c.b.v.g.h.c.z.",
"*.*.@.*.*.[ [ ] #...O.2 : _ -.i.h.b.c.=.@.i.c.a.x.x.a.g.x.x.p.w.#.#.#.@.@.@.@.@.-.@...P : 8 +.$.x.b.x.x.@.@.p.p.p.a.p.c.g.x.g.c.",
"] } [ } [ [ [ *.'  .O.> : | 3.i.v.c.b.0.+.%.@.$.%.#.#.#.;.=.%.@.#.+.#.*.*.*.@.*...$.1.E X w 2.$.b.c.b.c.$.@.=.*.;.=.$.=.#.=.%.$.",
"] ] ] ] ] ] ] @.-.o.X.6 , ) ,.k.h.f.h.:.` #.@.#.@.] @.@.@.@.#.@.] ] [ ..@.' @.@.$.1.X.Y > 0 >.6.k.i.c.g.@.#...@.] ' ..*.{ ..@.@.",
"] ' ..@.@.@.@.@.| 8 6 * , 0 6 X.-.-.-.....$...@...@...@...@...@.@.[ @.@.*.*...@.+.P 8 6 & < < r 1.#.=.-.......*.@.O.*.-.@.@.@.@.",
"&. . .O.o.o.+.o.X.= % ; < & = E ,. .X.O.O.o.O.o.o......... ...O. ... . . . . . .1.G # # < 9 * 7 o.o... .$.X.O.X.O. .X.X. ..... .",
"4 5 4 8 5 8 7 8 6 = 9 - - < $ 0 6 q 7 7 6 5 8 4 4 4 3 5 7 3 5 4 4 5 4 7 5 4 5 4 5 6 = 9 = # = , 4 5 4 4 8 3 7 8 8 8 8 6 7 3 2 4 ",
"+ # + $ $ + + + + $ 1 ; ; $ + > 1 % * $ $ 1 @ $ $ $ $ $ $ $ $ > + + $ $ + 1 . 1 + + ; , = = 7 $ O > : # = = @ = @ ; $ o , $ $ 3 ",
"! ! ! ! ! E ! E ! ! W ! ! Q E E ^ h 1 1 * $ 1 F ^ ! ! ! ! ! ! ! ~ ~ ^ ! Q E E I E ! ! W ^ E Q E ! ! W ) W ~ 0 * ; ; = 9 U ! ! E "
};
