/* XPM */
static char *result[] = {
/* columns rows colors chars-per-pixel */
"64 64 108 2 ",
"   c #524D2E",
".  c #534E32",
"X  c #565234",
"o  c #5A5536",
"O  c #5E5936",
"+  c #56533B",
"@  c #5B563A",
"#  c #5E593B",
"$  c #615A36",
"%  c #625D3D",
"&  c #65613E",
"*  c #68633E",
"=  c #5E5C41",
"-  c #635E42",
";  c #675F48",
":  c #666142",
">  c #6A6444",
",  c #6E6946",
"<  c #65624A",
"1  c #6B6549",
"2  c #6E694A",
"3  c #716B46",
"4  c #726C4C",
"5  c #76714D",
"6  c #79734E",
"7  c #7B784F",
"8  c #6D6B55",
"9  c #736E51",
"0  c #767152",
"q  c #7B7553",
"w  c #7E7955",
"e  c #767259",
"r  c #7B765A",
"t  c #7E7959",
"y  c #7F7B62",
"u  c #807756",
"i  c #817B56",
"p  c #827C5A",
"a  c #827D62",
"s  c #85815D",
"d  c #89835E",
"f  c #868163",
"g  c #8A8563",
"h  c #8E8964",
"j  c #868269",
"k  c #8A866A",
"l  c #8D896A",
"z  c #918B66",
"x  c #928D6C",
"c  c #96916C",
"v  c #99946F",
"b  c #9B986F",
"n  c #8F8A72",
"m  c #928E71",
"M  c #969172",
"N  c #9A9574",
"B  c #9E9975",
"V  c #969278",
"C  c #9B967A",
"Z  c #9E997B",
"A  c #A19B76",
"S  c #A29D7B",
"D  c #A6A17D",
"F  c #A9A37E",
"G  c #9B9680",
"H  c #9E9C85",
"J  c #A39D82",
"K  c #A6A183",
"L  c #ABA684",
"P  c #AEAA85",
"I  c #A7A38A",
"U  c #AAA68A",
"Y  c #AEAA8A",
"T  c #B0AC87",
"R  c #B2AD8B",
"E  c #B5B18C",
"W  c #B9B38E",
"Q  c #AEAD91",
"!  c #B2AE91",
"~  c #B5B192",
"^  c #B9B494",
"/  c #BEB996",
"(  c #B6B39A",
")  c #BBB69A",
"_  c #BDB99C",
"`  c #BFBDA3",
"'  c #C1BD9D",
"]  c #C2BEA2",
"[  c #C4C09E",
"{  c #C5C1A5",
"}  c #C9C4A6",
"|  c #C6C3AA",
" . c #CAC6AB",
".. c #CDC9AD",
"X. c #D1CCAD",
"o. c #CCC6B0",
"O. c #CECBB1",
"+. c #D2CDB3",
"@. c #D1CFB9",
"#. c #D5D1B4",
"$. c #D9D4B6",
"%. c #D6D3B9",
"&. c #D9D4BA",
"*. c #DCD9BA",
"=. c #E0DBBD",
"-. c #DAD5C1",
";. c #DDDAC2",
":. c #E2DEC3",
/* pixels */
"P E M # e ( Z % % % * i 7 7 i F Y ~ Y 1 : 0 w w q w w 6 w q r > # - % 4 w 6 w z W F R T Y T T ! ..| O.+. .) 2 = - : q q L R P T ",
"T R N # 4 ! J - % 6 7 6 i A S R Y Q Y 1 : 0 w q w 1 > & ; ; % l Y q O 6 p w u i u v R W T Y T R ! ) ..| %.] # : # : r p P T F T ",
"P E N o e ^ K o , i i 6 u P E R Y T Q 2 O 5 p w p : O : ; - = G ( g O 2 7 7 7 i 6 c R T L R R R Y ^ .. .X._ : - - % q w F T W E ",
"P E M % 1 1 > > % u i A F P R T T L T , & > 1 0 t 2 # Z ) ( ( a 8 2 O 2 i i 6 7 7 i p s a p p h f l #._ r e - - - : q q d i s s ",
"T ^ v O : % : O * u p E W T R R E T T , & % o 5 e : - ! &.+.-.a . O & , 5 i 7 i u q q u u 5 u u 0 l &.^ @ o @ ; % : q u u 5 7 7 ",
"g s l b g # > 0 6 u u p h F T T F T P , & & : M L L ( ] o.] -.( Q ! Y l & 3 u 7 6 u q q u 6 u 5 1 2 p p : 1 q 9 % % > , 7 6 u q ",
"w 3 z [ K & > t i i u u p T R T E E P 5 O O % Z ~ | &.o.] -.-.-.#.O.%.B O 3 w q u p u q u i i u O > X # # # t q > % $ % q i i q ",
"w 7 w z t # > 1 , 4 > 3 3 a z h z F P > & l x K U ) ~ ) ` ] ] ] ..` _ h O 1 > 3 > 2 > , , * 3 > % , v x 4 q w w 5 4 > % , > q u ",
"i i w 5 5 % # o # . # % # w q 6 w T T : * S ^ Y Y Y Q Q L } | +.O.{ Q k # - : = : - = - % - % $ $ 6 W T q w u w u u - - $ o 0 p ",
"3 * 4 w 7 4 t S Z K C : 1 1 4 q p g M 4 # A R E L E P P Y / $.K l k f e : : : : = : ; 1 ; % $ , , 5 c h q q q i r u 2 4 A J e 2 ",
"& O > 7 7 0 l ..#.&.{ O # # & q q w w & % K ~ Y E ~ ^ Y T [ $.h X X + o # + + # - = + - % - % > i q 6 u q q 6 6 q 5 r p  .+.1 . ",
"3 3 5 w p c S X. ...{ G c 1 % , 2 0 > & : p g g l s s D Y W [ g o f J C Z Z K J G J J a $ ; 4 4 7 u q u 6 p F F U J K L  .o.J J ",
"i i 7 7 s E ^ | o.o.o.:...2 % % O O % & # o # o X #   c E L ! g o U *.#.#.#.#.O.o.@.:.! $ ; r u 6 u q q 6 d ..X.X.$.o.+.+.o.=.:.",
"7 7 i z b P ~ ..| -.] G m : % 4 4 , 5 > 4 4 2 l l V n Y } Z l r : x L ~ [ / _ { o.| @.U o 1 p q u i 5 u x v ' ' ' ) ] ` ] +.J V ",
"u u h E E L Q o.@.-.o.= @ > - 6 w q t q t 0 q ` :.O.#.@.#.j X 8 t q 4 x P L U ) +.} +.U o > w w 7 7 7 d E T L P R U Q Q ] -.8 = ",
"u u d P Y L ! ` ` H V ; ; % - w w w w g l B V ! [ { O...O.n # 0 w g s A E Y Y ^ ..o.#.U @ 2 w w u u u p P P T R L ! n G I G 8 = ",
"u 6 z E T T R R Z # # : : O & 7 w 0 q P R X.X.^ U | O.O.@.j X 7 7 c W P T ~ Y _ #.+.@.Q # 2 t 0 7 w 5 d R ! Y ! W T % $ @ % - - ",
"u u i A A A S S c & & & & 1 2 q w g z F T / { ~ U | O.| @.k + 4 7 b E L T S m J Q R Q c # > 5 7 q u 5 s C A A A M x > ; : ; < ; ",
"$ u u q w q 6 q q O & & & 0 w q w F E T P Y E L Q {  .O.@.f o 7 5 v P E ^ l # % o O = = # * O & q w w w u u u u % - % $ % + = = ",
"i 6 q q q u u 5 4 % & & & 7 w w s B D P P L Y Y U { O./ Q g : 4 7 B E A N p % & 4 2 > > 2 2 % 1 5 0 5 0 9 9 9 5 - $ 3 ; y y y y ",
"S X : p r r q % : % % : : w r r q 5 q L W E P E U O.O.a @ 9 w p 5 B / s O & $ , t w t r w 2 & O % # @ # - > - % & % r s } #.+.O.",
"U r r 2 q q 2 - O 1 , % : 4 4 q p 7 w A F F D D D ~ / a # 4 7 7 w h D p O * * , r w s s l d t 6 0 e t 9 - - % ; : : q t '  . ...",
"..+.Q # : : % - 2 r 5 # % - > q u i q 6 5 w t w r & = 4 t s t w w , % > $ , 7 s 5 c R / X.} X...X.X.+.) 1 - - - i w w r K Y } +.",
"| @.U # : % - - : w t 4 9 - - q q q w q s 0 7 q 0 , # 5 s 5 7 q w 4 $ > & , s 7 w c P W ..} } } } } X.' @ ; 1 - q q p f P P  .{ ",
"..O.Q + 1 : & w w 0 f } ] > % - % q q q q w t > & & % 0 w w 7 q r 4 $ 3 i 5 7 z E P P T R E Q Y Y ~ X._ - > q u q i T E F E T T ",
"O.@.Q # % % 1 t e w h X.] 9 ; 2 1 q p u q 6 q > % & & 0 0 7 w 7 w 1 % 4 p q u h P F F P L L L Q U R X.^ % ; u q q i F F T T T T ",
"..%.Q # 3 q 5 6 w 6 f } ..] ..} ] 1 o : & O 1 & % % % # & 0 t 7 u 4 % 3 u 6 6 i t t p p a t t a r l $._ # 1 r p 7 p T E T P R T ",
"..| K o * i u i p 5 d X.} ......} 4 1 % & & & : 1 > 9 : - 4 5 w w 1 % , u q 7 u t 7 7 0 0 w q r 0 g ..! : : 9 w q p F F E P P T ",
"V < 4 # : w u u q q p R R X.+.o... .} > % 0 q Q } } } p @ : : 0 s * O & * & & $ % , p 0 : : = , t r 1 2 % ; p q w 6 i s F E P T ",
"m # = & 1 w u u u u u T ^ } ] +.+.} | 4 % q 7 _ X.+.+.a > - O 2 7 , & * % & > : : 2 0 0 > & = < r r - = 1 1 9 u i i 6 w F T L Y ",
"0 = 2 0 w i 7 i i F F E Y ~ ( | { r r 0 q r r K ^ ] +.] ] f # 2 * 4 5 5 0 h D S D l # f _ ' [ [ { ` _ _ ] ~ > : q q 6 q s f p s ",
"8 & > w w w u 6 d F W T R U ! .. .: + r t q t Z U } +.} %.j # % O 5 s w 0 c ~ R ( N   l *.....X...+.+.+.+.' ; - w w w i q w r r ",
"1 : : q 7 7 d A F P T E T T T ..} 1 % w 6 A L P R ! ^ ] @.n + 1 & , 7 l K D E c , 4 q r l N R ^ ! ) .. .+.] - - ; > : , > 1 1 1 ",
"O # 2 a a 7 i E P E T L R E ! X.} 9 % u p S R T Y R L ] #.a + - & 5 t M ^ T Q b o 3 w u q p P T R ! ..+.o.] ; - > % % # @ # # % ",
"C : - & , w p d h E P T Y g p p a % % q u p d h h S T ] ..) ( a + 4 7 c ~ c 7 > $ 3 7 u 6 d E P T ) ..} O.) - : 4 0 m B U R U U ",
"K X & = 2 w w 5 s E P E P r w % % % : q u u q 6 6 S E } +.+.@.m o 7 e c ^ f O & $ , u u q h T E U ^ ..+.&.] 1 - r p R / X.#.#.$.",
"] U C = > > > p w d h d s u 7 * - 9 4 q w w w q u d x x x ~ +.l o 4 0 M / g O , 5 4 i 6 7 i d v R T ' Y a a > % r w P L ^ ~ R / ",
"O.*.Y o : # > w w 7 w w u i u * % q a p u q r i u 6 q 5 1 R :.m # 4 r N ^ h O > p 6 i q 7 u 7 i T R R Z % o % ; q w T T R T Y T ",
"] O._ J M # : , , 3 * 3 * , 3 $ > 1 1 1 2 4 , , 1 2 1 z J m l 1 % 4 0 s x w & > q 6 i i 7 p v A P L z p 1 > 9 4 q w P P T L Y T ",
"_ ..#.%._ # & O $ % $ & $ & $ % % o o o @ @ X @ o - X S ) 0 o - % 4 p t r 2 & , p i 7 5 u z W T ~ S q q % - p w 6 s T E R T T Y ",
"~ ( _ #.Y # 1 2 4 , 6 2 , 3 5 3 9 C C C C S V C G 9 @ C ) q % ; : : 4 4 4 > & > 2 0 w w 6 i c z x h 3 , % ; 0 u q p h z E P E F ",
"! Y ( #.^ # > t p w w 7 w q u q a  .&.&.+.&.&.&.&.a + V ) p $ % : # o o X # > O O 2 t w u u 6 u u 5 $ % % ; u u w 6 7 p F P E T ",
"C Y ~ ..~ # > w q r 7 z v z c x x ) ` | | | |  .O.t = a m 9 - - # p N x M t & < - 2 4 0 4 4 , , 3 3 % > % % 9 4 w q w w c v b b ",
"n ^ ) *.( O > r q w s T E P E T R R R ..+.+.o.o...y @ % - % - % o D *.X.*.Z   = # # X O o $ > % $ $ $ % % % % - 0 q q 7 7 6 5 7 ",
"g M M Z c # 1 w t 5 t E E P E P T Y T _ ' +.o.+.%.e # < - > 2 5 p D [ { X.Y n l n n l l g 0 % % 3 3 3 4 1 9 - ; w u q q w w q w ",
"r w 4 O O : > 7 t 7 s T T P P P P E Q L U ] X.+.%.t + : - 4 p A ~ T P _ #...*.#.&.O.*.| ^ J % , i i i q u 9 o % r w q w w w i i ",
"0 2 0 : & % % a 7 7 t b A b B T P T P P Q } +.Y I e % % % 4 q c T Y L ^ | ` ` ` O.{ +.! l l : 4 q p u u C m a a 0 0 6 6 6 4 4 4 ",
"O & O O # & , 0 r a 7 7 7 5 w P E T E E P } #.r o # : : % 4 u N E Y ~ P P Q K _ ..+.#.I o < a e q u 4 g X.#.=.} - @ o o % % % % ",
"8 y y y e ; < 9 9 9 5 q u u i b S S A A A ^ ~ w # : % 1 > 5 p c P Y E P T T P ^ { { +.U @ 1 p q 6 p d v | ] X.] a t a r p a > - ",
"k +.O.;.! = ; - # % * 7 7 u i i q q 6 u 6 5 6 % # : # 0 p q 6 A / Y P T T T P T Y _ +.U o 1 r w u p T T T R X.+.+.@.+.%.+.X.1 @ ",
"l ..{ O.) e e q e @ : r 0 0 q 6 0 q q w 5 f f r 2 1 : 5 w w 6 c D D T T P T ! R Y ~ $.J o 1 i w u d W T T ! ' } ] }  .| O. .t e ",
"w T ^ ..o...| &._ % % % o % % % % o X % % A ^ T ~ 0 O e w w 6 q q N E T P T R L Y ^ $.U o 4 u q u p R P R R T E ! U U U  .+...+.",
"w T E ..} X. ._ U ; 2 u 9 r 9 9 9 q q > & c D Z K 9 o e q q s w 6 c F F Y T Y ! ! ) +.U @ ; u q u p A F F E E F Y Y ~ ( |  .O.O.",
"s E L Y E %.) : ; X 2  .o...o.@.} #. .2 X : > & # - % % - 2 q 6 i w 7 c W Y L ' +.o.+.Y $ > p u u u u d F ' E T Y E .. .&.+.o.+.",
"s P E L ~ { Y : - 4 r ] &.@.] @.O.{ _ 0 : : O > 2 2 0 - % 0 w i u 7 6 c R L J ! ] ] &.J @ , u 6 u u u i F F F F Y E  .| ` ` ` ] ",
"T T P ~ S : : = 9 J ) ] o.] @.o.| 2 : 0 t 7 r ^ ..} ..a X 0 r 0 6 p 7 q u u u a a S &.! o % * % $ * u u u u i i } ....O.8 = < < ",
"L L U ! V : # 1 0 ! ! }  . .O. . .2 @ t r w s ~ X.X...j * 5 t r u 7 i q q u w q 9 V #.J % - % - % : i u 6 6 q p [ [ } [ 2 = = = ",
"3 , - 2 1 # 0 J J T R T ! Y ( +.| 2 - 0 w S D E Q E Q ^ | j o 0 q 7 u 3 * % - ; : < 2 9 r t r 4 % % > % * > r q s s 1 8 : : < = ",
"% % - - - = 0 Y ! U R Y R Y U | { 9 & 0 w L P L R P U { %.j = 4 w p p 3 % % $ % & : @ 1 a q t 0 & - : % % * 0 u 0 w O = : : < ; ",
"J J l # 9 S K E P R T R ~ } } +. .2 # 0 r D E E R Y Y { #._ _ n % - - % $ , q c _ / { ' ] ] ] Q - - - % : - - ; & 1 : : - # V I ",
"T ^ A o w _ Y L E P P P Y ..X.} ` 4 % t 7 A E P P Q Y [ O...%.n % - % % % * 7 b $.} $. .O.@.%.( = < : < - - ; - - - - - # & L ~ ",
"E W V $ 0 P Y ~ B , q , 2 e q r r & % 5 7 s s A E R U { o.| %.m @ - % 4 u u 7 z W R Q ' ..| O.` ^ ( _ Y - ; ` ! 1 - % : 0 q F P ",
"T W v o 5 Q T P F O % $ % @ o - o & > 7 7 7 5 F T P Q { O.O.@.a @ 1 % 4 u i 6 z T P K _ O.O.@.O.@.O.%.` ; e o.o.1 % - % w w L E ",
"T T v % 5 P E E B & % q e 9 e 9 0 & % * > 7 7 s g D Q ' O.o.O.V + 9 4 7 7 i 6 z E T Y Q Q ( ( ( ..o.O.` ( J a r ; - q 5 q 7 F T "
};
