/* XPM */
static char *result[] = {
/* columns rows colors chars-per-pixel */
"64 64 245 2 ",
"   c #5A3E29",
".  c #583E2D",
"X  c #685B1D",
"o  c #705D19",
"O  c #6C641A",
"+  c #55442C",
"@  c #5C432D",
"#  c #594528",
"$  c #5D5629",
"%  c #5D4433",
"&  c #5C4A33",
"*  c #574732",
"=  c #5C5432",
"-  c #5C553A",
";  c #5D5B3C",
":  c #595736",
">  c #4F4529",
",  c #61432C",
"<  c #67492C",
"1  c #655B2C",
"2  c #6A5D2B",
"3  c #665826",
"4  c #634432",
"5  c #634B33",
"6  c #6A4B35",
"7  c #694B39",
"8  c #734D34",
"9  c #774D38",
"0  c #635434",
"q  c #645C34",
"w  c #6A5D34",
"e  c #64543C",
"r  c #6B553C",
"t  c #635C3D",
"y  c #6A5C3C",
"u  c #6D5535",
"i  c #755135",
"p  c #74533A",
"a  c #79553A",
"s  c #734A2E",
"d  c #5D603D",
"f  c #6C6228",
"g  c #756828",
"h  c #7A712C",
"j  c #65613D",
"k  c #6B623C",
"l  c #6A6437",
"z  c #756938",
"x  c #7B7335",
"c  c #5C5C44",
"v  c #585A47",
"b  c #54594E",
"n  c #645C42",
"m  c #6B5C42",
"M  c #665946",
"N  c #735C43",
"B  c #7B5943",
"V  c #695F51",
"C  c #5C614B",
"Z  c #5A6146",
"A  c #596459",
"S  c #656143",
"D  c #6B6344",
"F  c #6C6944",
"G  c #64634B",
"H  c #6C644B",
"J  c #6E6A4A",
"K  c #736244",
"L  c #736C4C",
"P  c #786748",
"I  c #76724D",
"U  c #7A744D",
"Y  c #7C794D",
"T  c #787346",
"R  c #676857",
"E  c #736C51",
"W  c #736956",
"Q  c #767254",
"!  c #7B7553",
"~  c #7D7954",
"^  c #7C745B",
"/  c #7E7A5A",
"(  c #757557",
")  c #6F735C",
"_  c #576766",
"`  c #5F7578",
"'  c #576769",
"]  c #656B64",
"[  c #68736A",
"{  c #767666",
"}  c #677777",
"|  c #74716A",
" . c #8C7C1B",
".. c #825A3C",
"X. c #897A29",
"o. c #8B7B34",
"O. c #877A39",
"+. c #917E36",
"@. c #8A7035",
"#. c #855D45",
"$. c #846244",
"%. c #8A6246",
"&. c #83634B",
"*. c #87664A",
"=. c #867B45",
"-. c #846852",
";. c #817654",
":. c #817B56",
">. c #817559",
",. c #827C5B",
"<. c #8A7B5C",
"1. c #847C64",
"2. c #7B8378",
"3. c #7F8159",
"4. c #9A840D",
"5. c #9B8414",
"6. c #93841D",
"7. c #9A841B",
"8. c #9A8816",
"9. c #92851C",
"0. c #A38A17",
"q. c #AC9413",
"w. c #AD941B",
"e. c #A99618",
"r. c #B2951B",
"t. c #B39917",
"y. c #A88E0D",
"u. c #BBA71C",
"i. c #8E8129",
"p. c #958523",
"a. c #998523",
"s. c #93842B",
"d. c #998927",
"f. c #968736",
"g. c #908535",
"h. c #AA9727",
"j. c #B39A23",
"k. c #B49825",
"l. c #A99335",
"z. c #BCA729",
"x. c #BCAA37",
"c. c #C2A91A",
"v. c #C4AC28",
"b. c #C3AC36",
"n. c #C2B23A",
"m. c #87825B",
"M. c #94894E",
"N. c #A89945",
"B. c #8C8463",
"V. c #8C8768",
"C. c #938C6C",
"Z. c #948A67",
"A. c #97926B",
"S. c #948C73",
"D. c #969173",
"F. c #9A9678",
"G. c #8C8978",
"H. c #A39D7C",
"J. c #A19A77",
"K. c #AB9E67",
"L. c #A7A37C",
"P. c #B5AB7F",
"I. c #AEA55A",
"U. c #C5B44A",
"Y. c #C0B271",
"T. c #677D82",
"R. c #717E82",
"E. c #5D8499",
"W. c #6A838B",
"Q. c #73848B",
"!. c #768587",
"~. c #6C8493",
"^. c #6B859A",
"/. c #6C899C",
"(. c #668798",
"). c #7B8E9C",
"_. c #758A95",
"`. c #7B919C",
"'. c #77919C",
"]. c #6D919F",
"[. c #6386A3",
"{. c #6389A2",
"}. c #6A88A4",
"|. c #7B8EA2",
" X c #738DA8",
".X c #7C92A3",
"XX c #7793A7",
"oX c #5F87A1",
"OX c #8C8E87",
"+X c #928E87",
"@X c #9A9684",
"#X c #828E9B",
"$X c #83939B",
"%X c #8A989A",
"&X c #9B9D9B",
"*X c #959A98",
"=X c #8A908C",
"-X c #A59E82",
";X c #96A19A",
":X c #8EA19F",
">X c #A6A382",
",X c #ABA584",
"<X c #ADAA85",
"1X c #ABA58A",
"2X c #ADAA8B",
"3X c #A7A68D",
"4X c #B1AB86",
"5X c #B3AD8A",
"6X c #B4AA88",
"7X c #B5B18C",
"8X c #B7B28B",
"9X c #ABAA93",
"0X c #B3AD92",
"qX c #B5AE9B",
"wX c #B5B293",
"eX c #BAB394",
"rX c #BCBA9B",
"tX c #B9B59A",
"yX c #AEB096",
"uX c #8897A3",
"iX c #959BA1",
"pX c #8891A5",
"aX c #94A1A0",
"sX c #BBBAA3",
"dX c #C2BC9B",
"fX c #C3BDA4",
"gX c #BCC09F",
"hX c #C6C39E",
"jX c #C5C3A5",
"kX c #C9C4A5",
"lX c #C6C4A9",
"zX c #CBC6AB",
"xX c #CCC9AC",
"cX c #C8CAAA",
"vX c #D1CCAE",
"bX c #D4C9AB",
"nX c #CDCBB2",
"mX c #CBC6B2",
"MX c #D2CCB4",
"NX c #D3CAB6",
"BX c #D4D2B5",
"VX c #D8D3B9",
"CX c #D2D1B1",
"ZX c #E2D5B9",
"AX c #DFDCC3",
/* pixels */
"q.j.d.O l 2X2XH S v ' T.^.^.T.uXiXiXiX| M 4 # @ @ @ # # @ + + & t n ; D ~ ~ ! B.6X,X8X<XP.<X<X<XcXcXcXCXlXlX( ; m w o.s.e.t.q.t.",
"r.k.f.X j 2X2XG G [ R.T.^. X XpXpX*XiX| M 5 @ @ @ 7 e u e m - ^ -X~ t L >.~ ! :.B.A.4X6X<X7X,X7XwXrXcXnXmXcXG t y l g.d.e.w.t.r.",
"r.k.l.f z 2X2XG A Q.^.}.}. XXX|._.:X;XR c & + % . M m M n c c 1.rXC.t F ~ ;.;.~ I B.,X4X<X7X4X7X2X9XcXxXmXnXW n q 2 i.p.e.w.r.r.",
"r.k.f.f w Q / C _ R.^. X X XXXpX'.%X;X) M r e 5 % M M S.0X2XyXF.( E t H ^ ~ Q ! U :.V.Z.m.V.m.V.V.C.xXlXV.B.M c m 2 o.p.4.y.0.0.",
"r.k.+...o 3 ; b _ W.(.].XX'.'.'.$X%X@X) - y y @ . * - F.VXBXVX@X> - ; I ~ / / ~ :.~ ! ! Q ! ~ ! Q / nXxXc : D n l l o.X.9.4.8.4.",
"0.h.l.+.O.z G [ ` W.W./.].'.`.'.`.%X;X) S k D >.1.-X>XeXBXlXzXfX3X1X>XC.m L / Q :.Q Q ;.;.;.;.>.L E V.V.S S I L q w g X.p.6.8.7.",
" . .w.l.N.2 t 2.Q._.W.~.~.|.XXuX).:X*XW c e - C.eXzXxXcXCXcXnXNXnXBXVX2X: G / ,./ / >.,.>./ >.Q n n : * ; j T Y D w q 2 o.s.6.9.",
"d. . .h.X.f t [ [ ` [ ` ` Q. X}._.`.%X[ v 1.C.H.1XqXrXgXtXjXmXzXnXfXrXF.t H F J J J L F J L L F j H V.C.Q F U Y T L F w z h  .6.",
"p.p.7.p.X.f Z v b : v v A } _.(././.$X[ v F.eX7X4X<X2X>X2XeXNXNXVXzX5XD.t t t t y t j t t t t t : F wXwX,.~ Y T ~ ~ m e = X X.g.",
"X. .h g.g.z I G.=XG.D.J Z ] T.T.}./.`.R v D.8X4X4X7X2X<X2XsXVXqXS.S.V.1.t D S t t t y S S S j j P U C.C.~ ~ Y 3.~ >.W W C.A.O.h ",
"$ X 3 =.U U ,.nXBXNXnXH : C b T._.~.!.] c D.7X8X7X5X2X5X2XrXBXF.: ; e t e y m r u t y t q n t t ~ ;.! U ~ ! Q I Q L ( ^ fXZX~ $ ",
"k I L ^ ~ C.C.xXCXmXNXS.S.G v [ } } [ G d 3.V.m.Z.Z.B.L.<X7XkXF.e N K K N K K B K K K K y t J L U U Y :.Q / H.@XH.F.L.F.tXBXF.V.",
"3.Y Y Q ,.5X0XkXNXbXbXVXVXQ ; G v - t : $ = 0 0 $ $ $ <.4XP.6XZ.5 K -.P *.&.*.*.$.-.-.P y k ! ~ ~ U ;.Y I 3.fXVXCXCXvXVXMXmXNXVX",
"3.x 3.V.S.2XwXjXzXzXmX>X>XL q F @.g g x h x h @.o.o.X.N.Y.K.Z.=.5 N a a #.B 9 ..$.*.$.P y y ;.! ~ :.U Y V.D.tXjXhXhXeXrXnXNX0X3X",
"~ ~ m.<X2X<X0XnXBXnXnXJ = k w =.f.d.p.d.p.p.a.k.b.v.b.x.U.O.3 $ # #   , 8 ..9 ..#.*.&.$.y y :.~ ~ ~ ~ :.<X2X<X<XL.P.tXyXmXVX^ : ",
"Q ~ ~ <X5X<X2XgXsXyX9XE t w 2 o.6.8.8.8.0.0.y.r.c.c.c.v.b.f.3 0   , < 8 8 9 9 ..%.%.$.P u k :.~ ;.U :.:.>X2X<X<XP.P.F.G.3XyX/ : ",
"~ ~ m.<X<X<XyXyX2XG ; n y w 3 +.d.7.8.e.e.u.u.u.y.c.c.c.n.s.3 e   6 p B p 9 9 ..%.#.%.P y k ~ ~ ~ ;.;.:.<X6X4X7X<X7XL ; d : Z d ",
"I ~ ,.H.L.L.L.H.F.G n m 3 z g X.a.0.8.y.t.u.u.t.q.u.c.c.b.s.3 r   7 p p 9 i 8 p &.&.*.K y D I L ;.;.;.:.J.L.L.F.L.F.J ; j S S S ",
"D >.~ :.Y Y T 3.:.m t l f g.g.p.7.r.r.e.e.e.u.e.t.z.c.z.n.l.1 M . 9 p u r y y N m M M m m m S F ! ~ ~ Q >./ ~ >.j t t m m D t m ",
"D Q Q ;.T Y Y Y J S m K 2 o.s.7. .q.w.r.t.q.w.t.t.t.z.z.l.+.< 5   7 p i y w q S H N m V H D t S Q Q ~ ! Q L Q Q S S m y m N y m ",
"F y N ! ~ :.I j F n ; j f O.s.7.y. . .t.j.k.k.k.e.z.U.p.o 3 # < , 6 8 r y e q l ~ ~ ~ Q ~ E S n t ; ; ; S D m m M m .   N P -.-.",
"P w m ;.^ ^ Q F n H G ; l g.X.7. .y.y.y.r.k.h.k.e.j.N.g.6 5     , 4 r m m e G J ! Y m.m.m.>.E H E J E E ; n n m r p 4 , B &.-.#.",
"$.z P a y n n v A } } R n w f X.y. . .y.r. . . .7.h f 5 @ % 4 @ # < N m M V ^ ^ ~ B.L.5XkXbXnXnXcXcXcXrXE m n r & < , , 9 9 #.*.",
"%.*.P u r G C A ] Q.!._ R S 1 +.+.r.r. . . .k. .i.h 2 & * % 4 , # 6 N M M W 1.>.>.m.7X8XkXzXmXxXcXmXnXmXG m m m @   , 4 6 B #.#.",
"%.*.$.w y c A W.W.W.^.uX*XR r w ..X.a. .a.a.s.X.3 3 l $ + % . 4 @ 5 y K ;.U ;.m.L.P.7X5X0XwXwX2X0X0XbXfXH m + @ @ @ 8 N 9 9 a 9 ",
"#.%.$.u j A ' W.(.{./..X%X| V M o @.M.f.s.s.g.h 1 w k = > % 4 @ @ 5 t K :.U U m.7X<X>X,X,X,X2X,X,X0XbXkXP t & & @ @ 7 a 8 p a 9 ",
"%.%.$.y G } T.(.].E.(.%X:X=X+X+X+XL 2 2 f g z 1 q j j S D 5 % % % M M K / ~ Y ~ 3.3.:.m.m.3.m.m.B.B.bXfXH m + @ @ , u p i i i 9 ",
"#.&.P n A Q.(.(.oXE.]..XaXaX;X&X&X) m t y y 0 k D n n n t & + % . 5 M N ~ I I ~ ~ I ~ ~ I U U T Q ^ bXfXH r & + , @ 7 8 i i i i ",
"B N V v A W.(.{.oX{.^.`.$X%X%X*X*X+X+X| c P Q H.fXqXfXG.e M D & + 5 m S F S F G S K ,.! j j F F ~ / L Q m e e . 4   4 6 8 N 9 p ",
"N M n R A W.{.[.{.{.^.).`.%XiX;X@X*X&X| V W ~ <XVXmXVXS.; m m e + 0 k f 2 3 2 2 u z ;.L F - ; C Q ( - t e M % @ % . . 4 7 p 9 p ",
"& n G } 2.E.{.{.[. X|.#X$X$X$X$X;X{ ) J L Y T J.qXfXVXtXeXV.: y 0 z g.x i.9.d.d.l.=.a U qX0XyXyXrXwXrXwX0X0XN M % . % , 4 6 4 7 ",
"+ n A Q.E.oXoX[.}.|.|.|.$X#X).iX;XW - I Y Y U F.6XdXvXNXAXF.: k w x g.9.8.0.j.h.l.M.X -.VXVXNXBXCXCXMXcXVXNXW M & % % . , .   . ",
"q c _ R.[.[.{. X|.|.).pX#XpX'.iXiXW Z Y T A.H.-X4X8XwXhXVX@X: S q z f.0.w.0.h.d.h z T ;.Z.J.7XwXwXtXcXcXnXlXR ; t t e e M e t e ",
"u n ] R./.[.oXXXXX.X|.|.|.).$X%X&X) ; F U J.8X0X8X5X,XrXBXG.: d q h d.5.r.k.h.f.X k ~ U ;.;.P.<X<X2XcXcXnXcXR d n t y r t e t - ",
"A.S C [ ` /.}.T./.XX.X.X.X_._.} { G ; T :.Z.C.C.B.J.<XhXnXsX3XB.: x s.0.k.0.X.h q F ;.;.>.<.5X<X5X8XkXcXcXlXE n E E B.C.J.L.>X-X",
"eX; v b A T. XR.~.].XXXX.X/.~.' v d ; U U Q Q ! L J.<XhXBXnXBX<X: x 6.0.j.8.X 1 q F / ^ >.1.5XwX1XeXkXBXVXxXE ; Q ,.1XdXxXVXBXBX",
"jX@X@XC A [ ` R.~.^./././.~.~.' C J z T ~ ~ / 1.~ B.V.A.D.5XVXF.1 x 6.8.z.d.2 N J I ~ / ! ^ V.D.6X6XdX6XC.V.n S Q ;.H.5X8XeXwXtX",
"cXAXfXv v b A R.Q._.~.~._.W.!.] C ! Y 3.:.>.^ ( ,.! ~ U F >XAXF.$ x 6.8.l.s.u W ,.~ Q ~ >.,.Q ~ -X6XeX,Xn - ; j ;.:.L.5X<X5X<X2X",
"sXmXfX@XF.V R [ [ ' } [ [ [ ] C v H T T F P P W H P L m.A.A.F.1.: h p.8.h.+.0 H U ~ I ~ ~ :.A.D.6X,XD.D.S m L J U Q L.4X4X5X5X2X",
"tXlXNXVXzXS ; ; d d ; Z : d t 2 y $ 3 X 3 3 3 3 1 1 1 B.dXV.* n j x g.p.g.o.q K ~ m.T =.U ,.8X8X5X4X~ Q n S Q ,.:.:.L.7X5X<X7X<X",
"2XgXhXMXeXD l z @.h x h x h h h X.X. .6.9.9.p.i.+.@.1 <.dX<.n D d z h X.O.z q D L T T Y ~ :.A.A.D.C.Q J S S Q ~ ~ ~ A.A.,X<X<X<X",
"8XL.2XnXkXl f f.f.d.s.s.d.s.s.p. .x.U.b.x.x.x.x.U.X.$ Z.dXZ.c M d j $ 1 1 = y q - F ~ Y ~ ;.P :.~ ~ d j ; t ! :.! U Y ~ L.7X6X8X",
"L.4X7XCXrXl f i.7. .0.0.0.0.0.0.0.h.k.z.z.z.u.z.U.X.3 <.J.~ c G M ] ) ( ) W S t c G Q I I ;.L I F I t j t j L U ~ :.U Y Z.J.F.J.",
"m.L.eXVXjXk g X.0. .0.r.k.k.w.r.r.k.k.z.n.v.c.u.b.X.3 m e - c C b | &X9X9XG.c c V v c n - e y t j S t S m t t t L Y U ~ U ! ;.U ",
"m.J.@X9X>Xk f o.a.4.0.q.j.r.w.t.t.t.q.t.c.v.c.u.x.X.1 m Z C R R ] !.iX%XiXOXR { [ | | { 1.^ m t : t e e r e m y ! ~ U / ! ~ ;.Q ",
"Q >.^ n t q f s.p.8.4.w.j.r.h.r.q.q.t.t.t.u.c.z.U.X.q G Z [ Q.#X%X#X#X$XiXiX;X;X&X&X&X&XqX-Xm y # @ @ @ # # 0 y U :.I ~ ~ ~ ~ >.",
"! Q Q j j l 3 f.p.8.4.0.e.w.h.h.u.q.t.t.t.r.v.z.l.X.t G Z } ~.^.).)._.pXuX%XiX%X*X%X*X+X@XS.- t % , @ , 7 7 a N L ;.I U I I L Q ",
"t t - ; q 0 f g.g.p.8.8.4.4.8.e.w.e.q.q.q.v.b. .o 3 j Z b } ^. XpX`.$X).pX)._.%XiX*XiX+XV - + + ,   , < B &.-.P N 0 y q t t S t ",
"S Q Q W { y u =.g.i. .9.9.4.4.0.w.r.q.y.q.u.x.X.X w c A A ` {.}..X`..X.X'.).`.$XuXiXiXOXM n + # % @ , s a %.*.#.B B B M N N M y ",
"~ xXnXnXsXH : w f $ O X.p.p.7.0.7.5. .4.4.9.d.g 2 S Z [ Q.W.(. X.X`.'.|.'.'.'.).#XpXiX+Xv t @ , @ , p i i i %.%.#.&.-.-.&.P N y ",
"Y kXlXVXfXW E J J 1 f M.o.g.i.X.+.+.+.f.i.g.M.O.l J v [ Q.(.oX{.'.'.|.|.`.$XpX).#XpXiX+XV t # , @ 4 p p i i ..#.*.#.*.#.*.*.a a ",
"I 2XwXxXNXfXmXzXhXJ t w 1 l f f 2 g 3 f 1 A.P.P.7X{ v } _.(.oX].~./..X.X|.|.`.#XpX$X&X+XM y , # , 4 7 p i i ..i 9 9 a a a %.$.P ",
"Q 2X2XjXcXvXxXhXeXJ t L K L D F F F L m y D.1X1X2X( v [ 2.E.E.oX(.}.XX X|.|.).`.#X%X&X+XM M @ @ 4 4 7 p 9 8 i 8 i i a a ..%.$.%.",
"E 2X2X5X7XxXhXQ F - F tXzXzXmXfXlXjXkX1.M m H c F G ; C _ ` E.E.{.[.}. XXX.X`.$XuXiX*X+XM n @ @ . , 4 6 p p a p i a ....*.*.$.$.",
"( 2XwX<X5XkXcXn c n n fXBXcXmXnXcXlXbX,.7 N n n Z j F Z b ` (.].oX[.[.}. XXX|.|.uXuX&XOXM S * @ 4 % . . 7 p u 8 3 i #.$.$.&.$.*.",
">X2X5X5X<XJ J G M -X>XcXcXcXnXmXCX{ L 0 + & + S.cXhXdXD.: ` ~.E.{.oX[.[./.^.~._.Q.#X*XOXC S - m M r 5   5 4 , , ....*.$.N N N N ",
"5X,X5X2X3Xn t Z J 9X0XzXzXzXxXcXmX) t # < @   F.NXNXZX+XM | Q.T.(.E.(.(.(.W.W.Q.!.!.&XOXc S m m S t @ + @ .   , &.-.P B N M m y ",
"z T I Q L ; F F.H.,X6X6XeX0XwXlXVXQ e & # 5 r P -.#.%.&.V W _ R._.(.~.T.' ' _ A A _ R ) Q ~ E Q t t t e N m   @ 5 5 N m m H t y ",
"3 X 3 $ : j j P.8X4X6X4X1X0X3XjXzX{ M 5   6 y 7 9 9 4 9 -.W M ] !.Q.Q.} A A Z Z v c - G / / ^ >.S S t S m e & . + @ e m j l 1 1 ",
"l.N.M.f z F.F.<XL.4XP.6X5XsXlXcXNX1.e 5 , < a i 9 #.#.#.-.#.P H R A ] A Z G ( 3.yX0XwX5X7X5XdX1XS n S S S m m M M M m N f $ =.M.",
"x.n.N.O F 5X7X,X8X8X,X0X0XcXBXcXxX^ M 5 . 7 B 9 9 s s #.*.%.*.K c Z M c Z D ~ C.VXbXVXbXCXxXVXsXG ; c n d j ; ; n m y l f X g.N.",
"c.z.l.h z >X2X<XL.>.Q Q ( { 3.3.1.M t &   4 4 7 B 9 s #.%.%...z k j c S L U U Z.eXqXeXeXbXzXnXmX9X0X2X2XF Z 3XwXE t y f h i.d.h.",
"c.v.l.f w 1X7X2XL.j - v C v b v - v m * + @ . 9 6 #.9 ..%.@.%.P t ; m L <.;.=.<.5X1X2XyXcXcXmXNXNXVXBXcXZ d gXVXE t l 2 i.d.e.e.",
"c.v.N.O L yX3XyX>XF G | [ { { 2.G.E ; t 5 5 4 4 4 9 s ....%.&.N m J L P ;.T =.m.5X2X2X2XrXgXqXsXNXlXmXxX>X>XV.V.S k x x p.4.q.t."
};
