/* XPM */
static char *result[] = {
/* columns rows colors chars-per-pixel */
"64 64 235 2 ",
"   c #3F372D",
".  c #3D3A35",
"X  c #363B3A",
"o  c #3D3B3A",
"O  c #373936",
"+  c #6B1F03",
"@  c #641E0B",
"#  c #6B1E0B",
"$  c #671F07",
"%  c #731F00",
"&  c #7D1C09",
"*  c #6A1E10",
"=  c #5D260B",
"-  c #5D2B0D",
";  c #5F2406",
":  c #5F310F",
">  c #4E2E1F",
",  c #5C2713",
"<  c #5D2C14",
"1  c #5D2719",
"2  c #562E1B",
"3  c #5C2D1C",
"4  c #562C16",
"5  c #4E321E",
"6  c #4F3014",
"7  c #573217",
"8  c #5D3116",
"9  c #54321E",
"0  c #5B311C",
"q  c #652306",
"w  c #6D2404",
"e  c #6D2807",
"r  c #64240C",
"t  c #6B240B",
"y  c #652A0D",
"u  c #6A290C",
"i  c #662C07",
"p  c #742504",
"a  c #7A2502",
"s  c #732903",
"d  c #7D2B03",
"f  c #73250A",
"g  c #7B260A",
"h  c #742A0C",
"j  c #7D2B0B",
"k  c #7C3004",
"l  c #75310C",
"z  c #7D310C",
"x  c #773203",
"c  c #632612",
"v  c #6C2511",
"b  c #632A13",
"n  c #6A2A13",
"m  c #69231A",
"M  c #622C1B",
"N  c #64271A",
"B  c #792C12",
"V  c #643114",
"C  c #61321B",
"Z  c #6D351C",
"A  c #6E3514",
"S  c #733314",
"D  c #7D3212",
"F  c #73341C",
"G  c #78371C",
"H  c #4D2F26",
"J  c #542F24",
"K  c #5B2E22",
"L  c #512F2A",
"P  c #5B2E29",
"I  c #4D3325",
"U  c #4E3926",
"Y  c #45362C",
"T  c #4C352B",
"R  c #433A2D",
"E  c #4B392B",
"W  c #453325",
"Q  c #533324",
"!  c #5B3222",
"~  c #52342A",
"^  c #5A322C",
"/  c #54392C",
"(  c #553828",
")  c #4F2F30",
"_  c #443633",
"`  c #4B3532",
"'  c #433934",
"]  c #4B3932",
"[  c #41373C",
"{  c #423A3A",
"}  c #513534",
"|  c #632E20",
" . c #623524",
".. c #673821",
"X. c #743721",
"o. c #3C413D",
"O. c #3B3D42",
"+. c #363E41",
"@. c #423741",
"#. c #811E0B",
"$. c #862502",
"%. c #8C2600",
"&. c #842C04",
"*. c #8C2C03",
"=. c #842D0A",
"-. c #8B2D0A",
";. c #82230B",
":. c #922C02",
">. c #992E03",
",. c #922E0A",
"<. c #942603",
"1. c #863103",
"2. c #8B3103",
"3. c #84320C",
"4. c #8C320A",
"5. c #933104",
"6. c #9A3204",
"7. c #9B3A07",
"8. c #94340B",
"9. c #9B340A",
"0. c #97390C",
"q. c #9C3A0C",
"w. c #8B2F10",
"e. c #852C11",
"r. c #863212",
"t. c #8B3413",
"y. c #873B18",
"u. c #923311",
"i. c #963A14",
"p. c #9B3C13",
"a. c #953E1C",
"s. c #9B3B18",
"d. c #A1360C",
"f. c #A43B0C",
"g. c #A93E0E",
"h. c #A23807",
"j. c #A43D13",
"k. c #AA3E13",
"l. c #A63E19",
"z. c #9F410D",
"x. c #9E4213",
"c. c #93411D",
"v. c #9D421B",
"b. c #8A401D",
"n. c #AC410E",
"m. c #A54213",
"M. c #AC4415",
"N. c #AD4816",
"B. c #A5441B",
"V. c #AC451A",
"C. c #AD491B",
"Z. c #A64A1D",
"A. c #B14516",
"S. c #B34916",
"D. c #B2461A",
"F. c #B34A1C",
"G. c #BB4B1E",
"H. c #B84518",
"J. c #B4521F",
"K. c #9E4625",
"L. c #9E4A24",
"P. c #9E4A2C",
"I. c #944625",
"U. c #8E4F30",
"Y. c #944B29",
"T. c #A44624",
"R. c #A34A25",
"E. c #AD4C22",
"W. c #A4462A",
"Q. c #A24A2A",
"!. c #AB4927",
"~. c #B24620",
"^. c #B44C22",
"/. c #B94D23",
"(. c #B04F2C",
"). c #AF5229",
"_. c #B55223",
"`. c #BB5425",
"'. c #B5532A",
"]. c #BC552A",
"[. c #BD5A2C",
"{. c #BC5827",
"}. c #AB5B39",
"|. c #B35A36",
" X c #BC5D33",
".X c #B35D3A",
"XX c #BB5833",
"oX c #A44A30",
"OX c #BC6035",
"+X c #BB613B",
"@X c #BB673B",
"#X c #C1562C",
"$X c #C25C2D",
"%X c #C6592B",
"&X c #C35D32",
"*X c #C95F34",
"=X c #C15F3A",
"-X c #C56134",
";X c #CB6335",
":X c #CD6837",
">X c #C36339",
",X c #CC653B",
"<X c #CD6A3C",
"1X c #C26F3D",
"2X c #D1663C",
"3X c #D36B3C",
"4X c #D2713F",
"5X c #AE6143",
"6X c #C46A42",
"7X c #CC6C41",
"8X c #CA6C4A",
"9X c #D46D43",
"0X c #DA6D44",
"qX c #D26E4A",
"wX c #CE7246",
"eX c #CD744B",
"rX c #C97549",
"tX c #D47245",
"yX c #DA7345",
"uX c #D4734B",
"iX c #DA744B",
"pX c #D5794C",
"aX c #DA794C",
"sX c #D97847",
"dX c #CD7553",
"fX c #D57552",
"gX c #D97654",
"hX c #D57A53",
"jX c #DB7B53",
"kX c #DB7D59",
"lX c #E1774B",
"zX c #E27B4D",
"xX c #E37247",
"cX c #E27D52",
"vX c #E68153",
/* pixels */
"0XlXuXwXuXuXpXwXeXwXaXtX0X^.B.!.T.j y 0 K M w |.uXtXtXuXuX[.m.%XxXiXqXuXeXeXpXtXtXtXtXaX8XuXuXuXtX3XS.A.D.B.s - T ` N a @X4X4XxX",
"/.~. XaX7XC.'.iXtX_.^././.D.C.8.t.p = 3 K C r .XaXiXqXtXpX[.g.G././.E.-XhX>XZ.J.S.{.aX<XE.'.E.`._.F.A.H.>.*.a r E T c g 1XvX4X3X",
"G.M._.tX2XA.G.xX2XD.A.D.A.M.C.8.&.& c M K M t .XaXwXtXeXpXOXm.F.n.A.M.[.aX;Xn.N.A.`.iX;XV.D.M.M.C.m.M.A.:.*.&.u T E b a @XsX0XlX",
"M.M.C.J.G.k.H.G.`.A.A.A.A.6.*.2.*.h n 3 ! 1 t .XpX{.J.J.'.C.m.].3X#XM.M.J.J.M.M.A.F.`.G.M./.3X*XE.B.6.<.:.%.% r I I b f 5XpX|.^.",
"D.M.C.C.N.S.S.A.M.V.V.V.D.6.$.2.1.f < 0 ! 2 b }.jX{.M.m.Z.C.~.&XvX$XS.M.A.S.N.S.C.F.M.V.F.`.aXtXB.B.8.%.6.-.% n I T N g 7XpX(.T.",
"m.9.5.5.7.N.m.6.8.0.0.8.8.5.2.&.3.e < 7 Q 2 b oXXXS.D.f.6.9.6.d.f.j.Z.f.6.5.5.q.E.l.8.8.8.8.B.0.0.8.*.*.-.&.a , / E 1 t (.XXs.u.",
"B.-.%.%.0.^.B.4.1.-.-.-.&.&.5.&.3.i < 2 ! 0 y y.R.N.C.7.%.*.*.,.$.v._.p.*.*.*.i.(.a.-.*.*.-.*.*.:.%.*.2.-.=.S 7 T I 4 y K.E.8.%.",
"e.a j d d 3.=.j j g f j =.j a j e y 0 Q T ( 1 F 3.3.1.&.a &.a a j a =.&.d &.a j r.e.g ;.g =.a d a a d a g h 3 I Y ] Q < r.-.a d ",
"u e w e w t t u t h t t h u i r 4 ! E R _ R ~ 2 y t q h t v v f h f + h h t t u t t t t u w y i u u t t b 3 U R _ _ ] Q c t u w ",
"< 8 0 0 3 ! K 0 M M M < < 8 < 7 2 T _ ' . { ` T ! 0 < V , 3 M  .1 M M 3 3 C K 1 M M M 3 0 8 8 8 < 3 3 K 3 I R . { [ { T Q 4 M M ",
"5 U E Y   { ' _ ` ~ ~ ( I U ( / T ` ` [ { { _ T ( Q U U I U I I / ~ ` { . [ ] T I ( ( I ( I I I U U P Q I E _ ' . . ' _ T U Q Q ",
"9 Q I _ o X X o Y T ( Q 9 Q > Q P P ^ ) ~ T Q Q ! Q 9 9 9 9 5 5 I W ' O.+.+.. Y ( Q Q Q Q Q Q Q 5 Q  .! 9 9 H I I I H Q Q 0 9 7 ",
"q y M Q ] _ R R 5 7 = q q y r y * * @ @ r r @ $ $ t $ $ q w t u - 6 Y . O { I 9 = $ q @ @ @ t $ r r # # q q w # q r # v $ t w f ",
"4.y.G b H T E 5 C U.Y.L.v.P.K.Q.oXP.P.K.R.R.T.R.T.W.T.I.Q.s.8.u.y.A J ` Y ` J Z Y.L.R.Q.P.P.W.W.P.P.W.!.T.L.T.T.T.T.W.W.u.9.4.8.",
"C.!.c.m 3 ^ / 2 G dXaXvXaXgXgXfXhXhXpXpXsXaXaXiXkXkXkXhXhX=X~.D.E.t.M ^ ) L , I.vXpXpXhXdXhXhXuXhXgXgXcXhXaXgXgXaXaXkXgX`.F.C.Z.",
"m.m.i.h K J K , D eX2X*X;X0XiXfXuXeXwX4X4XtX3X<X-X>X>XOX,X/.k.M.k.4.c | ) / r a.eXtXtXeXeXeXuXtXtX9X=X&X-X>X9XiX>X>X7X0XD.A.N.N.",
"z.&.-.f K L K N z uX4Xn.M.yXfXfXfXgXuXtXiX9XlX'.k.V.V.B.V.~.D.j.:.d y 7 T T r a.hXuXtXeXdXuXiXyXiX9Xj.B.V.V.iX0XD.V.iXiXG.F.D.D.",
"z.2.*.f 1 L ! c r.tXtX`._.9XqX8X,X,X,X,X<X<X*X&X`./.V.^.D.V.k.6.*.&.q 8 W ( q a.gXuXsXwXpX8X*X2X:X;X].`.C.S.,X:X~.F.*X;XF.D.D.D.",
"x.2.*.p 3 Q 9 < l 1XpXtXtXzXiX^.l.g.M.M.D.M.D.,XlX{.M.S.V.6.:.:.-.;.t 3 T ~ @ s.gXuXtX4XsX7XF.k.m.S.tX3XC.N.M.M.C.M.M.S.M.M.D.M.",
"q.2.*.p 8 Q Q - l rXrXtX4X:X;XC.C._.{.M.S.D.M.%X2XF.k.S.D.f.6.:.*.=.w M ~ ^ # s.gXqX:X;X,X[.k.F.S.J.sX:XN.C.N.N.m.n.N.N.S.D.S.A.",
",.-.$.p 4 9 Q - D dX8XuX4XF.M.N.M.3XlXJ.V.M.D.D.S.G.F.C.C.F.C.f.*.j w N T L t a.gX*XV.A.~.k.D.D.m.F.iX3XF.F.N.N.%.:.M.S.S.M.N.C.",
"<.<.-.p 8 9 9 < B dXqX9X3XG.m._._.:X<X^.S.V.F.k.m.m.j.M.C.V.m.q.%.&.p M ) ~ r a.kX,XS.G.D.D.].!.V.`.9X*XC.M.M.M.6.6.m.m.V.^.M.M.",
"<.,.-.p < Q ! < D fXqX~.A.n.S.4XyX`.m.M.F.D.C.5.5.<.%.m.C.q.*.%.1.&.w M L Q = I.hXiXtX<XV.'.fXuX~.M.D.k.D.A.>.<.S.M.6.:.k.M.6.<.",
"<.,.&.w 3 J ! < D 8X9XG.A.H.A.:X3XN.M.S.m.m.V.7.:.5.2.m.Z.0.*.2.2.d w M T ~ r c.tX<XtX-Xj.'.qX=XF.V.D.k.V.M.<.6.l.D.<.<.V.M.6.<.",
"2.1.k e 2 K K , D fXtXD.A.S.S.N.S.D.F.>.<.>.<.M.V.~.V.9.*.<.2.*.&.d e M Q ^ r 3.^.C.C.N.F.m.>.9.~.C.:.5.,.8.C.V.>.*.C.C.*.*.%.*.",
"*.1.x i 2 ! M c z 7X:XF.S.A.n.M.C.M.l.6.>.>.<.j.V.V.V.p.>.*.:.*.*.&.t 3 I Q t 3.V.M.m.m.N.m.:.:.V.B.:.%.<.2.B.B.8.:.v.B.8.5.2.5.",
"2.1.x i 7 Q K , s !./.D.k.6.*.2.2.5.8.%.:.*.*.:.*.5.*.*.&.*.2.*.,.;.v 3 ~ H r 3.^.k.:.%.5.2.*.2.*.2.*.:.*.*.5.*.*.$.8.5.*.%.-.*.",
"*.1.l : I T I 4 A I.B.V.j.8.&.=.&.2.&.-.1.1.&.-.1.&.&.&.1.1.1.3.e.h M Q T T < D T.j.:.%.2.*.2.1.-.-.-.*.4.2.-.&.4.$.4.2.-.8.1.1.",
";.g y 7 Y R _ W 7 y h ;.j f f h s a a s a a a s s a s a s p s w n < U   O R 5 C h j & g a a s a a s a % a a a a a % a a s a a a ",
"m N 7 I _ { . _ U 9 2 , c N N b b y y u r r y u y r r y y y y b 0 6 o.O O o R 5 8 b m m m y m n u y u u u u r r t y y y t y u y ",
"` T R _ [ @.@.O._ R ] T ~ ( I I ( T L T T T ~ ~ ~ T T T I I I T U   ' X @.[ ' R R U ] ` Y T I I ~ ~ T I T T Q ~ T ~ ~ T ~ T ~ T ",
"T Y E T ` } } ` R   . o . R T T T I ~ ~ Q ~ ~ T ( Q Q ~ ( Q I I I 5 / ` } ` E E E   @.X X o.' ` T ` ~ T T T ~ T T T ~ T T T ~ T ",
"b b c = N M M 1 0 I ' o o _ I  .Z S S S S A S G S G A S S S S S S S S S A X.X.F F  .` o O.+.[ T 3 c b b b n c b n y b c V b b y ",
"% p s p % s f h y 0 ] ' _ ] 3 A D d &.4.&.&.&.&.&.&.&.4.1.&.-.&.1.1.$.2.3.=.=.;.r.S Q ' O.o Y 9 r p w w w w w w + e p w f + p s ",
"'.p.p.x.x.p.p.v.b.b 9 I I ( F }.+XOX X.X.XOXOX X X X XOX X=X>XE.j.M.f.g.m.j.j.V.l.t.b Q ` T J F 5X.X|.+X.X.X.X.X.X5X X+X+X.X|.}.",
"<XC.N.C.J.C.V.E.L.e < Q ! Z y.8XhXaXaXuXaXjXjXjXcXjXaXaXiXzXiX-XM.S.A.n.G.F.V.~.F.p.t 8 L ~ 1 G dXhXfXhXfXfXgXuXkXuXfXgXfXjXjXjX",
"{.;X$Xn.M.S.D.C.v.f V 0 M ..w.6XiXwX9XtXsX X^.'.].].`.].{.`.`.F.m.{.3X#XM.m.:.q.F.p.w 8 ( U = r.dXuXuXuX9XuXuXuX'.].tXiX].].].].",
"$XsX4XS.V.S.F.C.B.h c 3 K F r.9XiXtXyXiXtX'.m.V.l.V.M.V.M.m.V.V.M.*XcX*XM.7.*.0.Z.p.s < I I r 3.fXuXuXtXtXiXtXtXV.M.yXyX^.M.M.m.",
"E.]._.C.B.9.d.p.u.t , !  .Z r.7XsXwXtX[.{.[.:X'.C.$X-X_.M.`.;X{.V.^.XX~.V.C.q.i.p.t.s < E T c r.uXtXiX7XiXtX[.$XC.C.{.$XA.A.%X:X",
"C.C.V.F.M.*.<.*.=.h < 0 3 Z y.6XtXsXaXC.m.<XvXF.m.<XzX{.m.-XzX&XV.D.~.~.F.C.C.v.%.;.a c } T t e.uXwXpXwXaX9XB.m.m.M.n.M.M.M.3XzX",
"~.V.A.A.D.f.9.:.-.s 1 0 0 A 3.6XtX-X]. X-X&X-X].-X$X[.&X$X&X&X~.A.D.H.D.H.M.9.0.*.-.% b Y ~ t w.uXwXiX7XOX[.C.B.[.>XF.C.[.%X&X{.",
"A.F.A.M.G.F.D.8.=.w - 0 0 Z 3.<XaXZ.V.uXaX_.m.7XvX^.f.<XlX[.M.D.D.H.A.H.D.d.*.*.*.-.a y T T v w.fXuXuX7XC.B.B.V.yXtXV.V.yXyXJ.M.",
"A.A.D.A.V.f.9.:.=.s - 0 0 A 3.1XuX^.D.].-X^.l.%X*X~.k.#X:X/.V.D.H.S.A.A.F.M.0.6.-.=.a , R T c r.fXeXuX7XZ.V.&X&XiXyX&X#X&X*XF.D.",
"D.D.D.F.M.<.%.:.&.e < 0 0 Z 3.4XtX/.V.V.l.D.F.D.l.D.D.V.D.D.D.D.A.A.S.A.S.C.N.m.&.j p y T T r e.uXiXgXuXE.^.iXgX9X0XlXlXF.V.D.H.",
"V.F.M.q.q.>.:.-.=.e < 9 0 Z 3.7XuXF.V.%X%X~.F.D.D.].%X/.D.D.D.D.H.A.S.n.f.V.D.j.-.=.f n T T c r.fX9X*X XV.V.-X*XiX0X*X*X~.D.D.D.",
"V.C.f.<.%.%.,.*.=.e 3 0 K ..r.7XiX/.V.9XiX].l.D.M.3XlX%XM.V.G.D.D.D.S.q.%.s.F.f.-.j f b ~ ~ r r.hX,XV.M.M.N.V.M.iX0XV.M.H.D.D.D.",
"F.C.M.7.8.6.9.*.=.f b ! 3 F =.7XtX^.V.[.:X]./.[.{.%X;X_.M.D.C.M.V.M.N.7.$.d./.g.-.z p b Q Q y 3.eX<XC.C.$X`.Z.F.*X;X_.S.V.V.V.A.",
"D.S.D.M.F.^.~.:.=.t b 3 M F -.7XtX_.C.M.V.3XzXyXsX{.M.C.S.M.M.F.F.V.S.z.$.9.~.g.&.d p c ( Q q 3.pX<Xm.J.tX4XS.M.M.N.V.m.S.F.M.S.",
"C.V.V.F.V.j.B.*.=.p M 8 3 G -.9XyXS.C.N.S.;X:X:X:X_.N.C.V.C.F.V.V.D.D.k.<.j.~.j.&.x s n ~ ~ r 3.pX:XZ.J.9X3X^.V.C.V.S.V.S.V.S.M.",
"S.S.D.D.B.*.*.8.=.w b 0 0 F e.7XiX^.V.V.k.M.M.D.D.M.C.F.V.V.D.V.C.~.~.D.A.H./.j.2.k e M T T y 3.eX3XM.J.iX0XS.V.M.G.M.D.S.D.S.F.",
"M.n.k.D.m.&.*.*.=.e < 0 0 ..r.7XtX/.D././.G.D.D.M.M.S.F.k.H.A.M.g.D.M.D.A.k.k.j.1.x t b T ~ c r.aX9XC.^.9X*XG.~.V.D.D.V.D.V.D.D.",
"n.%.>.G.N.1.2.*.$.s M Q Q Z r.<XiX~.l.9XiX/.V.~.~.D.V.D.F.G.A.f.<.f.A.F.G.g.:.:.2.&.p N ` ) v r.uX:XV.V.V.D.V.D.D.D.G.D.A.V.G.D.",
"g.<.6.M.q.&.2.2.$.s 1 ! 2 Z 3.&XtX'.V.,X0X'.M.M.M.V.F.k.k.H.D.f.5.h.S.N.n.f.:.%.2.&.s b ` ~ t 4.gX2X^.~.D.V.G.V.D.A.A.m.D.D.V.V.",
"A.G.V.%.2.2.5.*.1.s 1 Q ! F 1.N.C.~.l.V.V.F.V.6.<.k.D.d.<.g.G.M.M.N.C.q.<.<.<.5.2.&.a N ` ~ t *.aX9XV.V.D.D.A.A.A.A.>.<.D.V.>.<.",
"V.T.s.-.4.*.*.5.&.f 1 P ! X.1.n.M.F.F.C.M.V.C.f.:.n.C.h.<.f.F.V.B.Z.Z.p.,.-.&.*.2.&.t M ] T w -.7X:XV.V.M.n.F.S.D.A.6.<.A.V.6.%.",
"-.,.8.$.*.-.:.<.&.h 3 ! K X.*.A.S.A.M.5.:.m.C.N.M.N.S.V.M.F.D.f.*.4.4.&.-.w.=.1.1.d f N Y E q &.E.E.m.C.6.:.A.S.A.S.S.N.M.C.S.Z.",
",.-.*.:.:.<.,.:.-.w 3 J C F -.k.D.A.V.5.:.n.M.N.C.V.V.V.V.C.m.p.%.:.*.*.:.-.-.-.2.&.w N ` I y d Z.V.C.M.:.5.M.M.M.M.M.N.M.V.Z.Z.",
"*.:.4.*.:.:.<.:.=.t 2 9 ! X.r.V.F.S.N.5.$.5.2.5.:.5.*.:.8.8.*.-.:.:.*.5.,.-.4.2.2.z u 3 ] I b k !.C.E.B.:.*.5.5.:.5.5.:.2.5.:.5.",
"-.1.2.&.4.-.*.-.l : 9 I ~  .G s.T.V.R.8.1.1.1.3.=.4.-.-.=.-.3.-.-.*.*.*.-.-.3.3.3.l N K ] Y 4 u L.R.R.B.4.-.-.&.3.3.-.3.4.-.-.1.",
"s s s s s f f h n 7 U Y T / M F j j =.s w w e s p f f & f f f g a d a a d s f e u b K L ] R I M h j j j f p f f f f p f f f a f ",
"- - - - c 1 b 1 9 I R . { _ L J , c c c < b < b b n n v n v b b c c = y c b < 1 3 J ` ` { { _ ~ b u r y b b M M b M N b n b u n ",
"! ! 0 0 Q ! ^ ~ I E R _ _ ] T ~ ^ ! J Q 9 ( 9 9 ! 3 3 M C M 3 ! Q ! ! ! 3 ! ! ! J T ` _ _ ' ' ] ! < M 3 ! ! J J Q Q Q ! 0 3 3 3 ",
"! Q 5 5 Q Q L ~ I ( I I T Q T T T ` Y R R R R U T ~ Q P Q Q Q Q T ~ Q Q 9 9 9 I T T T T T I Y T Q Q ~ ( T Y ` _ ] _ Y E T T ( I ",
"~ Q 5 5 I H L J H I 5 5 Q H I I _ { ' . o.. . _ Y W H T H I I Y T Y I I 5 9 9 5 H H T I > Q I W I W T T R _ { . o ' . _ Y T W I "
};
