/* XPM */
static char *result[] = {
/* columns rows colors chars-per-pixel */
"64 64 254 2 ",
"   c #1BB7BD",
".  c #16BCBD",
"X  c #1BB9BD",
"o  c #1BB7B6",
"O  c #23B4BC",
"+  c #2AB6BB",
"@  c #23BCBF",
"#  c #2CBCBF",
"$  c #27B6B4",
"%  c #34BABC",
"&  c #1EC0BD",
"*  c #2AC0BF",
"=  c #0BBEC8",
"-  c #15BCC5",
";  c #1BBCC4",
":  c #14BCCB",
">  c #1BBECB",
",  c #1DB5C2",
"<  c #1ABDD1",
"1  c #1ABCD6",
"2  c #0FBED3",
"3  c #23BBC4",
"4  c #2BBBC3",
"5  c #24BECA",
"6  c #2BBBC9",
"7  c #33BFCA",
"8  c #38BAC5",
"9  c #25BDD2",
"0  c #43BFC7",
"q  c #0DC1C6",
"w  c #0CC4CD",
"e  c #06CBCE",
"r  c #0CC9CD",
"t  c #07C7CC",
"y  c #14C3C4",
"u  c #1CC2C5",
"i  c #13C3CC",
"p  c #1BC3CC",
"a  c #13CACD",
"s  c #1AC9CE",
"d  c #0DC4D2",
"f  c #05CCD3",
"g  c #0CCBD4",
"h  c #0CCCD9",
"j  c #0AC7D9",
"k  c #13C4D3",
"l  c #1BC4D3",
"z  c #13CBD4",
"x  c #1DCBD4",
"c  c #14C6DC",
"v  c #1DC6D9",
"b  c #13CCDA",
"n  c #1CCADA",
"m  c #0CD1D4",
"M  c #0CD1DB",
"N  c #04D0D7",
"B  c #1BD2D5",
"V  c #12D1DA",
"C  c #1BD2DA",
"Z  c #14D0D4",
"A  c #23C2C5",
"S  c #23C3CB",
"D  c #2BC3CB",
"F  c #24C9CD",
"G  c #2BCACD",
"H  c #2AC6C4",
"J  c #34C4CC",
"K  c #3BC3CC",
"L  c #35C9CB",
"P  c #24C5D2",
"I  c #2CC4D2",
"U  c #23CCD4",
"Y  c #2ACBD4",
"T  c #23CDD9",
"R  c #2CCCDA",
"E  c #29C4D8",
"W  c #33C5D4",
"Q  c #3DC5D4",
"!  c #33CBD3",
"~  c #3CCCD4",
"^  c #33CDDA",
"/  c #3DCADA",
"(  c #24D2D6",
")  c #2CD3D5",
"_  c #25D3DA",
"`  c #2CD3DB",
"'  c #2EDADE",
"]  c #32D3DB",
"[  c #3DD4DB",
"{  c #34D9DB",
"}  c #3DD9DD",
"|  c #36D3D6",
" . c #0BCDE1",
".. c #19CFE3",
"X. c #19CAE1",
"o. c #19D1E2",
"O. c #21C8E1",
"+. c #24D3E2",
"@. c #2CD4E3",
"#. c #2CDCE2",
"$. c #2DDDEB",
"%. c #26D7E5",
"&. c #3CD5E2",
"*. c #34DCE3",
"=. c #3BDBE2",
"-. c #35DEEC",
";. c #3CDCEA",
":. c #36D6E6",
">. c #33DCF3",
",. c #2EE1E2",
"<. c #35E1ED",
"1. c #3BE4ED",
"2. c #3BE1E4",
"3. c #38E4F3",
"4. c #43C6CB",
"5. c #46C9CB",
"6. c #52C7CE",
"7. c #42CCD5",
"8. c #4BCCD5",
"9. c #49CBD9",
"0. c #51CCD8",
"q. c #59CCD6",
"w. c #43D3DB",
"e. c #4BD3DD",
"r. c #43DBDD",
"t. c #49D2D5",
"y. c #52D4D7",
"u. c #69D7D8",
"i. c #42E0DF",
"p. c #69E1DF",
"a. c #4BD4E3",
"s. c #43DCE3",
"d. c #4BDBE4",
"f. c #43DDEA",
"g. c #4DDDEC",
"h. c #47D6E5",
"j. c #53DAE3",
"k. c #54DCEB",
"l. c #5ADDEE",
"z. c #5BD6E3",
"x. c #47D6EC",
"c. c #63DDE4",
"v. c #6BDBE4",
"b. c #69DEEA",
"n. c #60DFF0",
"m. c #7ED8E3",
"M. c #45E1E5",
"N. c #4BE2E5",
"B. c #44E3EC",
"V. c #4CE5EB",
"C. c #4AEBEE",
"Z. c #46EBED",
"A. c #54E2E7",
"S. c #52E3ED",
"D. c #5AE5EC",
"F. c #54EAED",
"G. c #5BE7EA",
"H. c #4CE4F2",
"J. c #4CEBF5",
"K. c #44EDFD",
"L. c #4DEBFA",
"P. c #49E5F6",
"I. c #54E4F3",
"U. c #5AE4F2",
"Y. c #54ECF4",
"T. c #5BEBF3",
"R. c #55EDFB",
"E. c #5AEDFB",
"W. c #54E4FD",
"Q. c #4DF3FC",
"!. c #45F0F8",
"~. c #52F2F6",
"^. c #5CF3F5",
"/. c #55F3FE",
"(. c #5CF4FC",
"). c #54FBFE",
"_. c #5CFCFE",
"`. c #64E4EB",
"'. c #64EAED",
"]. c #6AE8EB",
"[. c #74EDED",
"{. c #7BEDED",
"}. c #74E5ED",
"|. c #73F1EE",
" X c #7BF1EE",
".X c #77F0E7",
"XX c #63ECF3",
"oX c #6DEDF4",
"OX c #64EEFA",
"+X c #6BEDFB",
"@X c #67E5F4",
"#X c #74EDF4",
"$X c #7BEDF4",
"%X c #75EEFB",
"&X c #7BEDFA",
"*X c #79E6F6",
"=X c #63F2F5",
"-X c #6DF2F5",
";X c #64F4FD",
":X c #6CF4FC",
">X c #64FBFF",
",X c #6CFBFF",
"<X c #6DF8F5",
"1X c #74F2F4",
"2X c #7AF2F5",
"3X c #74F3FB",
"4X c #7BF3FC",
"5X c #73FAFE",
"6X c #7BFCFF",
"7X c #77F8F7",
"8X c #6DF2EF",
"9X c #82DBE3",
"0X c #83E6EC",
"qX c #8CE7EA",
"wX c #83EBEC",
"eX c #8CECED",
"rX c #92EDED",
"tX c #9AEEEE",
"yX c #82F5EE",
"uX c #97F3EF",
"iX c #83E6F3",
"pX c #83ECF4",
"aX c #8BECF4",
"sX c #82EDFB",
"dX c #8BEEFC",
"fX c #87E6F9",
"gX c #93EDF5",
"hX c #9BEEF4",
"jX c #94EEFB",
"kX c #9BEDFA",
"lX c #94E7F3",
"zX c #84F2F5",
"xX c #8BF2F4",
"cX c #83F3FC",
"vX c #8BF4FD",
"bX c #84FCFF",
"nX c #8CFCFE",
"mX c #86FAF6",
"MX c #94F3F5",
"NX c #9BF3F4",
"BX c #95FBF6",
"VX c #94F4FC",
"CX c #9BF4FD",
"ZX c #93FDFF",
"AX c #9CFEFF",
"SX c #A1EEF3",
"DX c #A1EDFB",
"FX c #A4F5FE",
"GX c #AAF5FC",
"HX c #A3FDFF",
"JX c #AAFDFE",
"KX c #A4F5F6",
"LX c #B1FBFD",
"PX c #A8F0ED",
/* pixels */
"zX$X$X&X&X3X2X3X%X3X3X1X3X3X%X3X<X6XnXZXFXaXzX%X%X&X&X&X&X&X3X;X_.^.(.>X_.1.y H 4 q.JXFXFXnX2X2X2X#X1X&X2X1X&X3X;X/...M N g T.4X",
"vX$X2X&X%X3X3X%X2X1X$X3X2X%X2X3X+Xt.5.zXJXjXsX%X3X4X4X3XoX3X3Xg.F ` R Y v $.).).OX4XHXAXvX4XoX1X1X7X#X2X1X1X3X<X^ +.d h h w ;X3X",
"ZX2X2X2X#X3X3X1X3X2X&X$X2X&X&X3X,XJ + 7XHX0X*X2X3XXX<X>X;X,X>X;.d j j z d ,.).).:X5XbXbX+X;X;X,X=X:X4X3X%X3X^.).p p n n l S R.>X",
"nX$X$X3X-X3X3X3X$X$X$XpX$X$X%X3X;XI # 6XAXvX$X3X,X} H G F Y ` l b h b b b x G ! I ! ^ Y Y U R P R ] ,X3X<X;X` U C z K./.L./.] Y ",
"nX$X{.2X%X3X2X%X$X$X$X$X2X1X3X<X;X! # 5XnX4X3X;X;X=.u y s y l l y U F ; S D 3 6 9 l w g b z a w r x _.>X_./.n k d n _.>X>X>XU y ",
"ZX{.$X2X1X2X#X1X2X2X$X2X2X1X:X<X>XD & =X5Xe.W ] ^ Z.L.Y.~.~.Y.R.T.=X<X5X5X:X5XOX/.<.r m e g a B a x ` ` ` R v c k v ] I ) ` z m ",
"nX2X2X1X1X1X3X3X$X2X$X$X#X%X%X:X>XY F ~._.{ - l 5 U.3X&X2X2XsXsXpXxXJXJXZXZXZX6X,XZ.u ; ; P u 3 A A 3 3 3 , 9 5 S p 3 & a r M h ",
"VXwX{.2X-X:X-X3X1X%X1X%X3X3X:X;X>XT y C #.a z 2.I.4XVXAXCXCXCXCXVXHXLX9X6.e.7.w.! d.<X:X:X:X:X1X3X%X+X:X:X3X%X:X=X;X<X_.Z e h b ",
"VXaXpX$X#X3X3X:X3X3X3X3X5X,X,X>X>XO.b h f g p J.6XZXJXJXHXHXCXHXHXAXHXv.O p w i   y.AXHXAXHXHXHXHXHXAXHXHXHXHXHXAXZXZXbX( r v 1 ",
"CXMXvXpX%X6X:X3X:X:X:Xt.h.| [ &.:.X.b t m z - Y.%XVXLXhXeXBXBXaXzXmXvXoXI.-.d +.XXzXJXFXgXgXaXgXgXjXjXjXjXaXgXxXyXmXvX4Xx r P.W.",
"JXJXVXfXsX&X+X:X,X,X^.@ @ 3 3 3 5 - u p a a a Y.6XVXHXtXwX.X{.pX&X&X&X%X6XW.: M.HXKXGXSXpX$X&X2X{.$X&X&X3X4X4X4X<X<X3XOX_ z R.:X",
"m.JXVXsX&X%X3Xd.s.} i.M.N.=X@XXX@XXX=XT.C.( u ] 9.cXHXMXwX.X$XzX&X%X&X%X&Xl.; d.HXPXtXBX&X3X+X:X<X1X-X=Xh.h.w.[ } w.h.s.x i E.3X",
"q.ZXnXbX3X5X;X  o o H -X4XZXAXHXHXHXHXAXnX} - S 6 +XAXjX{.$XpX&X&X#X1X7X3Xk.u =.HXNXwX|.3X3X:X5X5X<X,X;XS - > ; ; ; 5 3 u ; XX4X",
"0.bX:Xe.h.N.s.s.N.A.`.nXvXAXJXhXgXgXMXv.`.h.f.R 5 :XAXCXvXzX$X&X2X$X1X1X4XS.: s.AXMX[.oX:XOXd.r.s.s.s.=.B.f.P.f.I.U.D.D.T.A.-X1X",
"} >XY.u . X 3 5XcXAXHXHXHXHXHXwXpX$X-XL 3 U.6X/ + 3XHXJXHXVX7X3X&X2X1X-X5XS.: f.AXVX4X5X5XE.u y = p ; 7 :X5X3X4XAXHXHXAXHXAX6X1X",
"U 1.B.} s.k.`.4XvXCXkXhXCXMXxXzX3XA.M.N.j.4XbXb.j.'.v.aXJXMXoX3X%X$X4X3X3XH.p :.bX$Xj.f.H.f.- ( 3.f.j.`.zXvXmXjXFXGXCXNXMXVX[.2X",
"h w ^ 5X4XHXHXHXFXfXfXpX{.wX[.1X;XD 3 5XHXHXHXAXZXa.O ].JXVX#X<X%X2X3X%X&Xk.u ' ,Xk.- l : l ; ! 3XvXAXHXJXJXHXJXJXGXpX X2X2X#X&X",
"M z ] 3XpXAXCXCXVXdXsX&X2X7X7X:X;X^ 7 6XHXSXKXVXnXx.3 '.HXNX#X3X2X2X:X3X4Xl.p _ Q.-.z b $.:.d.y.dXVXHXGXNXuXMXCXkXVX$X#X|.1X#X&X",
"g = ` ;X6XAXAX{.sX&X%X3X1X[.#X6X>XR , 5XHXeXwX{.3X/ o =XJXSXwX1X8X1X4X3X3Xk.u q w d h $.,X4XAXHXHXHXJXCX X.X$XsXsX&X4X1X2X2X2X2X",
"Y B.s.V.`.-X#X2X#X#X3X7X3X-X3Xl.P.R S 5XnXeX{.#X:X[ @ oXHXSXMXpX1X1X%X%X3XT.} *.>.o.d +.5XzXJXKXFXCXVXmX|.-X&X&X&X%X4X3X$X$X#X3X",
"y.nX;X6 ;   D -X6X1X3X5X-X5X5X9 y r u G.2X{.4X3X5X/ # oXHXHXFXMXpX$X&X&X7X<X=X;X,XL.w _ 5XzXJXJXiX$X2X2X1X:X4X&X3X&XsX$X#X2X5X5X",
"u.AX4X9.w.[ r.V.F.F.Y.T.T.I.L.;.` | 7.oXmX$X1X-X3Xa.Q '.2XVXJXCX*XsX&X&X4X1X:X:X5XI.i ` ,XzXHXNXwX*X#X3X%X3X%X#X&X$X$X2X2X5XU.Y.",
"KXLXJXHXHXAX6X* y z k k v : 9 R.3XZXHXHXAXxX1X-X:X3X:Xw.+ ].HXgXsX2X#X2X1X3X3X3X6Xk.A | 3XvXHXFXpX&X$X2X&X&X4X&X3X2X2X2X#X;X) y ",
"KXKXFXFXGXHXmXL B M j b n R w.#XVXCXJXKXFXxX#X3X:X:X>Xr.  XXHXMX$X1X1X1X2XoXT.T.OXj.G { OX%XFXFXdXpX&X$X$X$X2X2X|.2X|.4X%X:X_ f ",
"ZXfXdXfXdXCXZX7X/.b h k D nXAXHXFXJXHXrXwXwX2X%X-X:X,X[ ; XXHXjX*X7X1X1X3XA.y s y :.,XI.O 8.AXHXJXVX2X2X1X1X7X.X1X|.1X1X3X:Xn g ",
"mX$XsXsXdXZXZXXXJ.x g U Q bXNXJXFXCXZXxXpX$X2X3X2X<X,X[ ; '.HXMX$X:XoX3X;XM.a z U h.bX*X8 y.bXVXHXCX{.|.#X2X|.2X2X|.1X3XOX(.*.x ",
"mX{.$X$XsXsX8XG s t C Q.=X6X$X$XpX2X X|.[.2X$X$X*X3X,X| X =XHXgX4X:X5Xk.> l i f.bXAXFXFXHX$X7 9.HXKXwX{.2X1X$X4X2X4X4XOX! P R.:X",
"mX{.$XzX&X2XT.u a r x >X:X#X3X7X#X2X|.|.3X3X2X&XzX#X:Xs.3 T.HXpX'.^.;Xg.I ^ D j.AXFXJXJXFX7X; ! AXGXaXpX2X2X$X$X[.4X:X(.( : OX4X",
"ZXpX$X$X$X4X;XF z l E bXZX$X&X1XcX&X&X2X2X&X3X&X$X%X,X&.  XXAX}.S T ; U.nXZXZXvXzX*X*X$X1X'.y ) AXJXFXAX&X#X&X4X4XOXY x e y E.3X",
"ZXzX&X%X#X<X(.p x l W nXAXaX&X2X2X$X$X&X&X%X3X3X4X+X;X:.p R.bXj.- T 3 c.HXHXHXVX2X2X2X2X7XF.u { nXZXnXvXcX&X2X#X3X;XU d h Z L.;X",
"2X4X3X2X4X5X(.P z k W bXZXaX$X$X$X1X3X3X4X4X3X3X3Xw.x o.d z _ F p V.ZXCXJXCXpX2X2X[.zX4X-X3X+XI.J G F | +X%X2X3X:X(.T z h h C B ",
"&X4X%X%X3X:X/.p n p K nXVXdX$X2X1X-X:X;X:X:X:X(._.@.w g M h f a & c.JXGXHXVX$X#X2X1X2X$X4X4X&X+XA s w U :X2X$X2X5X;XY k d h m f ",
"&X4X&X2X3X3X^.A ! 5XzXFXHXpX2X7X:X! Y T ( _ B _ +.k M f m Z = V.mXVXJXVXaXzX#X2X4X1X2X2X&X&X&X+X(.L.q _ -X|.$X&X3X3XE.Q.n f M N ",
"3X+X:X4X%X:X(.S ! bXZXAXZXcX-X,X(.^ ; 5 y y a w k k b a a u S U.HXJXHXxX*X$X#X7X#X#X3X*XsX&X%X<X,X/.5 W 2X X4X#X%X:X3X,XR d h M ",
"%.@.f.;X-X1X;Xl n @.:.&./ @.) ) ] Y.l.4X4X'.U.Y.R.R u Z.4X#XD.+XvXzXzXzX2X2X3X3X3X4X4X[.2X2X1X-XH r.2XaXAXVX2X4X3X3XoX3XT.Y.x w ",
": > ^ _.5X<XT.S l 2 - 5 ; 5 & X 3 +XvXAXHXvX4X,X>X-.; ;XHXVX&X4X#X*X2X X2X$X%X%X+X3X<X3X7X1X7X`.$ 5.HXJXFXAX{.2XoX7X#X7X5X,X_ b ",
"%X3XU.| r.=X^.S ! ,X7X XzXzX2X2X2XnXAXeXeX{.5Xs.@.n ; XXAXaX&X3X3X2X4X2X$X*X2X4X6XE.! ` ) N.ZXVXwXvXFXFXdXzX2X%X4X1X2X3X~ { z f ",
"iXAX5X3 G _._.S J nXAXHXHXHXHXAXHXAXHXwXpX2X,XR 2 l 5 +XAXVX2X%X3X:X:X,X3X:X3X3X,XH.> - . 7.AXJXJXJXHXHXpX&X&X2X1XoX4X3XI i a q ",
"VXbXXX; x ,.%.p | bXBXeXaXdXdXdXpXvXbX*X4X3X>X=.l ;.k.&XvXpX1X-X:XS.{ @.*.@.-.*.{ r.A.'.[.0XGXDXaXzXdXdX&X4X#X1X2X1X3X;XT p G.2X",
"VX$XXX3 i w w p W ZXAXqXsXsX*X&X&X&X&X3X%X:X>X` - /.6X3X3X5X>X>X,X;.q w h t d g q { ,X6XHXAXHXAX2X6X3X3X5X3X5X5X7X>X:X>X+.> bXHX",
"zXzX#Xj.V.Z.1.> 7 ZXHXqXpX&X&X&X&XsX&X&X&X3X,X] i +.3.:.:.2.,.,.<.+.b h h  . .b b C { 2.s.V.H.1.*.*.:.;.=.*.=.2.,.#.>.>.X.< cXHX",
"2X$XcX4X:X,X_.P 7.nXAXpX$X2X1X1X$X2X2X2X#X3X:X[ k c d : ; . & . p ; - k k k 1 1 : i a e q i p = d k u ; u . X . a e c k : 6 xXJX",
"4X#X%X&X+X;X/.p W 6XmXyX{.1X|.2X%X%X3X3X1X3X;X&.c j l M.`.u.p.`.z.c.v.c.G.c.c.c.@Xf.z N h _ g.h.i _ G.v.`.c.b.D.F w g x j.p.MXJX",
"1X7X%X4X%X:X/.v R ;X7X7X2X|.|.2X3X%X3X1X8X7X:X^ v k S @XAXHXHXAXHXHXHXHXAXAXHXAXZXOXp d w ` ,X>Xk *.ZXHXHXHXAXnX) z h T bXHXHXAX",
"-X1X#X#X2X6XR.p x ;.d.3X7X3X2X7X4X%X3X2X|.|.,X! ; s.c.aXHXVXjXvXbXbXnXvXxXnXvXvXbX%Xe.s.} } 1.*.r Y AXGXkXVXvX4XU d h S vXJXMXxX",
"7X3X7X1X2X5X(.x k z D ^.+X%X1X#X&X%X4X3X-X5X>X}   5XHXHXHXdXsXsX&X$X$X$XpXpX$X$X#X1X6X6X5X_.p i i L HXHX0XpX&X+Xv b h Y nXJXwXwX",
"-X:X<Xg.k.I.<.h M f s >X3X%X&X#X#X1X:XI.H.J.B.r.7.4XHXNXxXmX&X&X&X&X%X&X$X$X&X$X4X%X3XU.B.1.w _ e.v.nXnX|.[.3X:Xn h f S vXJXhXNX",
"3X5XT.O 3 3 : z f g x >X:X3X5X5X<X,X,XR < < > Y.7XZXHXtX.X|.$X4X&X&X&X3X&X&X&X&X2X3X5XE.p i i Y AXHX{.$X2X1X6X;Xs r f U bXJXFXJX",
"J.F.S.e.z.0.a.&.' r Z 1.J.J.J.Z.Z.Z.!.n c X.l E.vXNXHXeX2X2X{.pX&X&X%X%X4X%X%X2X2XoXP.3.z l { y.AXFXwX|. X2Xk.L.{ ( C x E.%XVXGX",
"u   7.ZXnXAXZX3X_.l t b l p - l a q b b c c 2 ;XAXJXHXxX$X#X$X$X$X&X4X4X3X3X4X%X4XA.< c d #.,X4XHXFXwX2X2X].E v _.,XP - l 6 bXHX",
"J 8.u.ZXAXVXnX3X(.p V z p =.&.S x m f h  ...: =XZXCXVXvX2X3X4X1X2X&X1X#X#X#X%X1X5XV.i b k ] bXaXFXCX2X7X1X=XT v -XcX8.h.S F XX5X",
"0.ZXAXAXAXzX2X:X/.> l - I 6XbXK = V f t d p u T.6X2XcX3X%X3X1X1X3X4X#X2X2X|.#X5X,XC.k h i / ZXFXHXAX$X:X3X(.n l bXAXAXnXJ ; 3 # ",
"u.HXnX2X<XT.~./.V.{ ~ 7.0.vXnX9.@.z x @.] G ! i.F.'.U.OX4X3X3X1X%X3X3X1X X|.1XXX^.2.n b ` j.AXCXCXvX1X1X7XOXz l bXAXJXHXy.4.8.8.",
"ZXAX2X8 5 ; P A ! XX5XZXZXAXZX6X_.n p Y.3X5X,X| & & 3 U.4X+X1XoX3XoX4X2X}.3X,XY.y u z @.;X4XJXHXpX7X1X3X4X;Xb n mXJXPXJXAXZXnXZX",
"6X6X;Xy U _ W K 8. XmXmXAXAXbX=XQ.T S ^.sXvX4Xy.L L K U.OX+X6X3X3X#X2X2X$X3X/.3.a z z @.5XvXJXKXwX2X#X%X&X+Xv P nXJXLXKXCXAXZXZX",
"7 S x k n >X3XZXZXHXBXwXwX$X-X! p u A :XAXFXZXZXnXbXnXz.6 l.:X:X3X5X#X3XcXk.l d z l = :.ZXVXHXAX$X1X3X3X&X+Xv E nXAXJXJXqX0XzX X",
"O.k g b U >XvXFXJXGXCXwXpX3X,XI S F L 4XHXFXFXAXZXZXAXz.7 V._.^.(.=X=X:X4Xg.1  .T T y :.6XmXvX6X(.^.E.OX;XE.n x 6XvXbXbXcX*X1X1X",
"K.c z d ( >XsXHXGXJXHXwXzX3X(.Y D >XbXAXFXgXdXiXpXwXsX$XOXs.A F Y S 5 f.5XW.2 <.6X=X. p ! J K D Y U R S P P i F K K ! J OX4X1X4X",
"P.> U u ` _.oXZXHXCXAXzX*X+X>XE 4 6XHXHXCXaXsX2X7X2X[.1X3Xs.  S p x y <._.P.2 f.ZX}.4 S 5 S x s w r U p S F H H % * p y /.:X%X&X",
",X'.=X=XV.~ J 0 q.VXAXZXbX7.R p 4 6XAXgXxXzX$X4X[.|.1X<X3X:X;X(./.<.w b +.P k s.AXMX-X(.).!.i k y ( /.;XXX;X5X6XmX,X( r ( 5 +X4X",
".X.X2XvX@X8 8 8 4.6XnXbX6X! - x D 6XAXaX{.$X&X&X2X1X8X<X3X3X3X+X5Xf.l n d a a h.AXMX7X>X_.L.A G 6 7.3X4X$X{.AXAXHXvX! F u A R.:X",
"BXBXAXAXZXvXcXbX7X4.7.4.7.U.Q.Y 3 6XAXxX}.1XsX&X4X4X-X1X4X3X%X4X3XT.(.;.k z q } AXVX%XT.A [ 6XbXbXvXAXAXVXAXJXKXaXsXOXE.(._.` T ",
"FXFXHXCXAXHXHXAXbX% % + 8 :X,XD J 6XZXaX.X2X&X&X#X&X2X2X&X&X#X2X1X6X5Xx.S p s r.ZXnX:XT.O 7.JXFXHXHXAXHXCXHXHXCXsX&X4X3X:X>Xx g ",
"FXkXlXgXrXqXrXAXZX4X5X6X4XbX6XL 4 bXAXyX X1X%X&X4X#X&X$X&X&X3X3X1X1X%X+X(.J.Q.V.4.6.Q h.5X6XGXGXlXgXqXrXrXaXaXvX&X%X%X3X9.] z h "
};
