/* XPM */
static char *_34ade6a065e43b0b3dbb68c5f088bbb4aVllTw5cMFGASEf[] = {
/* columns rows colors chars-per-pixel */
"64 64 194 2 ",
"   c #000001",
".  c #000008",
"X  c #252E0F",
"o  c #302F16",
"O  c #452C0C",
"+  c #402F11",
"@  c #364318",
"#  c #44521E",
"$  c #774B19",
"%  c #69551A",
"&  c #414E20",
"*  c #5A6E29",
"=  c #5C7028",
"-  c #647A2A",
";  c #00435E",
":  c #005268",
">  c #025A72",
",  c #0B6278",
"<  c #507049",
"1  c #BD3118",
"2  c #BB2D19",
"3  c #B11932",
"4  c #F10015",
"5  c #8B5C17",
"6  c #A54616",
"7  c #956118",
"8  c #B5731F",
"9  c #A36A19",
"0  c #AA7321",
"q  c #B87822",
"w  c #C95D1D",
"e  c #C57C22",
"r  c #B3767B",
"t  c #6B883C",
"y  c #708830",
"u  c #7B9739",
"i  c #6C8728",
"p  c #7EA12D",
"a  c #7A8A49",
"s  c #94921B",
"d  c #97A909",
"f  c #A5B50E",
"g  c #A6A41F",
"h  c #988C2A",
"j  c #8A962D",
"k  c #979229",
"l  c #869932",
"z  c #A78A29",
"x  c #A89127",
"c  c #B09A22",
"v  c #8DA825",
"b  c #87A43A",
"n  c #8DAD3B",
"m  c #88A737",
"M  c #93AE3A",
"N  c #92AB36",
"B  c #8FB23E",
"V  c #93B53E",
"C  c #99B63E",
"Z  c #95B93D",
"A  c #99BA3E",
"S  c #ADA726",
"D  c #B8A221",
"F  c #AAB629",
"G  c #B6BA2B",
"H  c #A3BE3A",
"J  c #A5BB33",
"K  c #CD8625",
"L  c #D68D26",
"P  c #D99326",
"I  c #E09629",
"U  c #F5B628",
"Y  c #EBB723",
"T  c #BAC615",
"R  c #9DC63C",
"E  c #BBC227",
"W  c #A6C139",
"Q  c #AEC538",
"!  c #B4CA36",
"~  c #BBCC34",
"^  c #B3C130",
"/  c #C5CF1B",
"(  c #CAD31D",
")  c #D0D41D",
"_  c #ECF110",
"`  c #ECEB1D",
"'  c #CACA26",
"]  c #CBD12F",
"[  c #D6D827",
"{  c #C4D533",
"}  c #CCDB33",
"|  c #D1DD32",
" . c #DCDB36",
".. c #D9CD23",
"X. c #FFC62E",
"o. c #FFC82D",
"O. c #FFD123",
"+. c #E0DF35",
"@. c #EAD627",
"#. c #DDE326",
"$. c #DCE431",
"%. c #EBEC26",
"&. c #E4E42D",
"*. c #E5EB2B",
"=. c #E9EB27",
"-. c #EEF12C",
";. c #EFF523",
":. c #F4F423",
">. c #FDFD24",
",. c #F2F42C",
"<. c #FDFD2D",
"1. c #F7FA2F",
"2. c #E2E233",
"3. c #E4EA31",
"4. c #ECEE32",
"5. c #EEF133",
"6. c #F3F432",
"7. c #F7FA31",
"8. c #FEFE33",
"9. c #FFFF3A",
"0. c #FFF031",
"q. c #F8E83A",
"w. c #8EB442",
"e. c #8EB843",
"r. c #92B542",
"t. c #96B941",
"y. c #98BA41",
"u. c #95B444",
"i. c #92AF53",
"p. c #98AD4E",
"a. c #BABC4E",
"s. c #908069",
"d. c #8F9360",
"f. c #AE8D7E",
"g. c #B6B576",
"h. c #A9AF75",
"j. c #FAB153",
"k. c #E4AE66",
"l. c #9EC143",
"z. c #A1C645",
"x. c #A1C942",
"c. c #D2D445",
"v. c #D9D848",
"b. c #D1D25A",
"n. c #E1E342",
"m. c #FBEB43",
"M. c #FDF745",
"N. c #FEEE50",
"B. c #D0D07A",
"V. c #CED16D",
"C. c #418393",
"Z. c #61969C",
"A. c #6D99A4",
"S. c #A48281",
"D. c #AEB68D",
"F. c #B9B697",
"G. c #8DB3BC",
"H. c #B9BCB2",
"J. c #B7B5A6",
"K. c #BCC493",
"L. c #BCC3B7",
"P. c #CACD8D",
"I. c #C5C798",
"U. c #D0CF96",
"Y. c #E2E598",
"T. c #CDD0A1",
"R. c #D8D5A8",
"E. c #D0CFB1",
"W. c #D5D6B8",
"Q. c #DCE1B8",
"!. c #E5E3B5",
"~. c #BCC5C7",
"^. c #BBCFDA",
"/. c #DBD7C7",
"(. c #D5DDDF",
"). c #CDD0CC",
"_. c #E0D7CE",
"`. c #EEDCD1",
"'. c #E7E0CE",
"]. c #E5E6D6",
"[. c #DCDBE0",
"{. c #E4DBE4",
"}. c #DCE2EA",
"|. c #DFE4FA",
" X c #E6E3E4",
".X c #E9EAE5",
"XX c #E9E7E8",
"oX c #ECEDFC",
"OX c #E7E7F3",
"+X c #F3EFFE",
"@X c #EFF1FE",
"#X c #FEFEFE",
"$X c #F6F3FC",
"%X c #F1EAE2",
/* pixels */
"y.y.y.y.y.y.y.y.y.y.y.y.y.y.y.y.y.y.y.y.y.y.y.y.y.y.y.y.y.y.y.y.y.y.y.y.y.y.y.y.y.y.y.y.y.y.y.y.y.y.y.y.y.y.y.y.y.y.y.y.y.y.y.y.",
"y.y.y.y.y.y.y.y.y.y.y.y.y.y.y.y.y.y.y.y.y.y.y.y.y.y.y.y.y.y.y.y.y.y.y.y.y.y.y.y.y.y.y.y.y.y.y.y.y.y.y.y.y.y.y.y.y.y.y.y.y.y.y.y.",
"y.y.y.y.y.y.y.y.y.y.y.y.y.y.y.y.y.y.y.y.y.y.y.y.y.y.y.y.y.y.y.y.y.y.y.y.y.y.y.y.y.y.y.y.y.y.y.y.y.y.y.y.y.y.y.y.y.y.y.y.y.y.y.y.",
"y.y.y.y.y.y.y.y.y.y.y.y.y.y.y.y.y.y.y.y.y.y.y.y.y.y.y.y.y.y.y.y.y.y.y.y.y.y.y.y.y.y.y.y.y.y.y.y.y.y.y.y.y.y.y.y.y.y.y.y.y.y.y.y.",
"y.y.y.y.y.y.y.y.y.y.y.y.y.y.y.y.y.y.y.y.y.y.y.y.y.y.y.y.y.y.y.y.y.y.y.y.y.y.y.y.y.y.y.y.y.y.y.y.y.y.y.y.y.y.y.y.y.y.y.y.y.y.y.y.",
"y.y.y.y.y.y.y.y.y.y.y.y.y.y.y.y.y.y.y.y.y.y.y.y.y.y.y.y.y.y.y.y.y.y.y.y.y.y.y.y.y.y.y.y.y.y.y.y.y.y.y.y.y.y.y.y.y.y.y.y.y.y.y.y.",
"y.y.y.y.y.y.y.y.y.y.y.y.y.y.y.y.y.y.y.y.y.y.y.y.y.y.y.y.y.y.y.y.y.y.y.y.y.y.y.y.y.y.y.y.y.y.y.y.y.y.y.y.y.y.y.y.y.y.y.y.y.y.y.y.",
"y.y.y.y.y.y.y.y.y.y.y.y.y.y.y.y.y.y.y.y.y.y.y.y.y.y.y.y.y.y.y.y.y.y.y.y.y.y.y.y.y.y.y.y.y.y.y.y.y.y.y.y.y.y.y.y.y.y.y.y.y.y.y.y.",
"y.y.y.y.y.y.y.y.y.y.y.y.y.y.y.y.y.y.y.y.y.y.y.y.y.y.y.y.y.y.A y.y.y.y.y.y.y.y.y.y.y.y.y.y.y.y.y.y.y.y.y.y.y.y.y.y.y.y.y.y.y.y.y.",
"y.y.y.y.y.y.y.y.y.y.y.y.y.y.y.y.y.y.y.y.A y.y.y.y.y.y.y.A y.y.y.y.y.y.y.A y.y.y.y.y.y.y.y.y.y.y.y.y.y.y.y.y.y.y.y.y.y.y.y.y.y.y.",
"y.y.y.y.y.y.y.y.y.y.y.y.y.y.y.y.y.y.y.y.y.A y.y.y.y.y.y.y.y.y.y.y.y.y.y.y.y.A y.y.y.y.y.y.y.y.y.y.y.y.y.y.y.y.y.y.y.y.y.y.y.y.y.",
"y.y.y.y.y.y.y.y.y.y.y.y.y.y.y.y.y.y.A y.y.A y.y.y.y.y.A y.y.y.y.y.y.y.y.y.y.y.y.y.y.y.y.y.A y.y.y.y.y.y.y.y.y.y.y.y.y.y.y.y.y.y.",
"y.y.y.y.y.y.y.y.y.y.y.y.y.y.y.y.y.y.y.y.y.y.y.y.y.y.y.y.y.y.y.y.y.y.y.y.y.y.y.y.y.y.y.y.y.y.y.y.y.y.y.y.y.y.y.y.y.y.y.y.y.y.y.y.",
"y.y.y.y.y.y.y.y.y.y.y.y.y.y.y.y.y.y.y.A y.y.y.y.y.y.y.y.y.r.y.y.y.y.y.y.y.y.y.y.y.y.y.y.y.y.y.y.y.y.y.y.y.y.y.y.y.y.y.y.y.y.y.y.",
"y.y.y.y.y.y.y.y.y.y.y.y.y.y.y.y.y.y.y.y.y.A V V H H V A H Q A V B C C w.w.V A w.w.r.r.y.y.y.y.y.y.y.y.y.y.y.y.y.y.y.y.y.y.y.y.y.",
"y.y.y.y.y.y.y.y.y.y.y.y.y.y.y.y.y.y.y.y.r.$.5.3.8.8.4.6.<.8.7.3.$.5.6.| { 3.1.| { $.! r.y.y.y.y.y.y.y.y.y.y.y.y.y.y.y.y.y.y.y.y.",
"y.y.y.y.y.y.y.y.y.y.y.y.y.y.y.y.y.y.y.y.r.{ 8.8.( #.8.8.8.8.8.8.8.8.8.8.8.8.8.8.8.8.} w.y.y.y.y.y.y.y.y.y.y.y.y.y.y.y.y.y.y.y.y.",
"y.y.y.y.y.y.y.y.y.y.y.y.y.y.y.y.y.y.y.y.r.W 8.*.d *.8.8.8.8.8.8.8.8.8.8.8.8.8.8.7.<.H y.y.y.y.y.y.y.y.y.y.y.y.y.y.y.y.y.y.y.y.y.",
"y.y.y.y.y.y.y.y.y.y.y.y.y.y.y.y.y.y.y.y.r.~ 8.,.*.8.<.%.+.&.:.8.8.>.:.%.:.<.8.#.( 8.~ r.y.y.y.y.y.y.y.y.y.y.y.y.y.y.y.y.y.y.y.y.",
"y.y.y.y.y.y.y.y.y.y.y.y.y.y.y.y.y.y.y.y.y.W 8.,.7.<.c.W. X.XU.3.>.b.W./.T.c.>.6.7.8.~ r.y.y.y.y.y.y.y.y.y.y.y.y.y.y.y.y.y.y.y.y.",
"y.y.y.y.y.y.y.y.y.y.y.y.y.y.y.y.y.y.y.y.y.V 3./ ,. .[.#X#X}.|.R.a.+XoX#X#XOXc.<.8.$.V y.y.y.y.y.y.y.y.y.y.y.y.y.y.y.y.y.y.y.y.y.",
"y.y.y.y.y.y.y.y.y.y.y.y.y.y.y.y.y.y.y.y.y.H 1.8.>.V.#X#X(.> , ~.{.G.: A.#X#XW.;.8.$.V y.y.y.y.y.y.y.y.y.y.y.y.y.y.y.y.y.y.y.y.y.",
"y.y.y.y.y.y.y.y.y.y.y.y.y.y.y.y.y.y.y.y.t.H 8.8.O.k.#X#X(., , L.!.Z.; C.#X#X/.@.8.*.V y.y.y.y.y.y.y.y.y.y.y.y.y.y.y.y.y.y.y.y.y.",
"y.y.y.y.y.y.y.y.y.y.y.y.y.y.y.y.y.y.y.y.y.r.} o.U Y `.#X#X.XoXY._ !.^..X#X$Xj.U X.! r.y.y.y.y.y.y.y.y.y.y.y.y.y.y.y.y.y.y.y.y.y.",
"y.y.y.y.y.y.y.y.y.y.y.y.y.y.y.y.y.y.y.y.y.r.} 0.4.E v./.OX+X/.c.=.P.#X#X@XR...' X.~ r.y.y.y.y.y.y.y.y.y.y.y.y.y.y.y.y.y.y.y.y.y.",
"y.y.y.y.y.y.y.y.y.y.y.y.y.y.y.y.y.y.y.y.y.V 4.8.8.&.' %.n.v.%.<.6.,.c.b.v.[ ' 6.8.| w.y.y.y.y.y.y.y.y.y.y.y.y.y.y.y.y.y.y.y.y.y.",
"y.y.y.y.y.y.y.y.y.y.y.y.y.y.y.y.y.y.y.y.y.r.! 8.8.1.&.' &.<.>.>.8.>.>.=.' ] 8.8.8.Q u.y.y.y.y.y.y.y.y.y.y.y.y.y.y.y.y.y.y.y.y.y.",
"y.y.y.y.y.y.y.y.y.y.y.y.y.y.y.y.y.y.y.A y.y.V 5.,.T 8.8.&.G I.V.G E.g.[ 6.8.T ,.5.V y.A y.y.y.y.y.y.y.y.y.y.y.y.y.y.y.y.y.y.y.y.",
"y.y.y.y.y.y.y.y.y.y.y.y.y.y.y.y.y.y.A y.y.y.A <.8.7.1.8.8.4.P.B. .T.b.<.8./ f 8.6.V y.y.y.y.y.y.y.y.y.y.y.y.y.y.y.y.y.y.y.y.y.y.",
"y.y.y.y.y.y.y.y.y.y.y.y.y.y.y.y.y.y.y.y.y.y.V } 8.-.f -.8.M.q.m.N.q.m.8.8.-.7.8.~ V y.y.y.y.y.y.y.y.y.y.y.y.y.y.y.y.y.y.y.y.y.y.",
"y.y.y.y.y.y.y.y.y.y.y.y.y.y.y.y.y.y.y.y.y.y.u.K.8.( T 8.8.8.9.8.8.M.9.8.8.,.-.M.h.Z y.y.y.y.y.y.y.y.y.y.y.y.y.y.y.y.y.y.y.y.y.y.",
"y.y.y.y.y.y.y.y.y.y.y.y.y.y.y.y.y.y.y.y.y.Z i.Q.:.[ c.2.` 2.v.5.8.-.4.:.>.T ) <.I.r.A y.y.A y.y.y.y.y.y.y.y.y.y.y.y.y.y.y.y.y.y.",
"y.y.y.y.y.y.y.y.y.y.y.y.y.y.y.y.y.y.y.y.y.y.r.J.F.].@X.XW.H.}.f.6 H.L.I.R.].'.g.D.r.y.y.y.y.y.y.y.y.y.y.y.y.y.y.y.y.y.y.y.y.y.y.",
"y.y.y.y.y.y.y.y.y.y.y.y.y.y.y.y.y.y.y.y.y.y.y.v g.{.'.]. X_.).r 3 ~.). XXX%XOXg.v y.y.y.y.y.y.y.y.y.y.y.y.y.y.y.y.y.y.y.y.y.y.y.",
"y.y.y.y.y.y.y.y.y.y.y.y.y.y.y.y.y.y.y.A y.y.y.A D 7 O 5 9 O % 2 4 $ + 5 7 o $ D Z y.y.y.y.A y.y.y.y.y.y.y.y.y.y.y.y.y.y.y.y.y.y.",
"y.y.y.y.y.y.y.y.y.y.y.y.y.y.y.y.y.y.y.y.y.y.y.r.S K K P I K P w 1 L L P L e e S Z y.y.y.y.y.y.y.y.y.y.y.y.y.y.y.y.y.y.y.y.y.y.y.",
"y.y.y.y.y.y.y.y.y.y.y.y.y.y.y.y.y.A y.y.y.y.y.w.^ c z z 8 e q x x z 0 q 0 h x G r.y.A y.y.y.y.y.y.y.y.y.y.y.y.y.y.y.y.y.y.y.y.y.",
"y.y.y.y.y.y.y.y.y.y.y.y.y.y.y.y.y.y.y.y.y.y.y.n ] G n e.h z l e.r.w.j h m w.F  .n y.y.y.A y.y.y.y.y.y.y.y.y.y.y.y.y.y.y.y.y.y.y.",
"y.y.y.y.y.y.y.y.y.y.y.y.y.y.y.y.y.y.A y.y.y.y.w.E g l l.e.^ J t.y.r.F J y.M k ' M y.y.y.y.y.y.y.y.y.y.y.y.y.y.y.y.y.y.y.y.y.y.y.",
"y.y.y.y.y.y.y.y.y.y.y.y.y.y.y.y.y.y.y.y.y.y.y.r.J g j y.y.t t l.t.y.< u l.b s G V y.y.y.y.y.A y.y.y.y.y.y.y.y.y.y.y.y.y.y.y.y.y.",
"y.y.y.y.y.y.y.y.y.y.y.y.y.y.y.y.y.y.y.y.y.y.y.y.y.M y.z.R d.s.A y.C S.p.x.z.N V y.y.y.y.y.y.y.y.y.y.y.y.y.y.y.y.y.y.y.y.y.y.y.y.",
"y.y.y.y.y.y.y.y.y.y.y.y.y.y.y.y.y.y.y.y.y.y.y.y.y.y.B y p h.F.m l.b J.a i = r.y.y.y.y.y.y.y.y.y.y.y.y.y.y.y.y.y.y.y.y.y.y.y.y.y.",
"y.y.y.y.y.y.y.y.y.y.y.y.y.y.y.y.y.y.y.y.y.y.y.y.t.z.o     . X n z.u .       * z.y.y.y.y.y.y.y.y.y.y.y.y.y.y.y.y.y.y.y.y.y.y.y.y.",
"y.y.y.y.y.y.y.y.y.y.y.y.y.y.y.y.y.y.y.y.y.y.y.y.y.l.- X @ & - l.y.y.- * # # b y.y.y.y.y.y.y.y.y.y.y.y.y.y.y.y.y.y.y.y.y.y.y.y.y.",
"y.y.y.y.y.y.y.y.y.y.y.y.y.y.y.y.y.y.y.y.y.y.y.y.y.y.l.z.z.z.z.y.y.y.z.z.z.z.y.y.y.y.y.y.y.y.y.y.y.y.y.y.y.y.y.y.y.y.y.y.y.y.y.y.",
"y.y.y.y.y.y.y.y.y.y.y.y.y.y.y.y.y.y.y.y.y.y.y.y.y.y.Z y.y.y.y.y.y.y.r.r.y.y.y.y.y.y.y.y.y.y.y.y.y.y.y.y.y.y.y.y.y.y.y.y.y.y.y.y.",
"y.y.y.y.y.y.y.y.y.y.y.y.y.y.y.y.y.y.y.y.y.y.y.y.y.y.y.y.y.y.y.y.y.y.y.y.y.y.y.y.y.y.y.y.y.y.y.y.y.y.y.y.y.y.y.y.y.y.y.y.y.y.y.y.",
"y.y.y.y.y.y.y.y.y.y.y.y.y.y.y.y.y.y.y.y.y.y.y.y.y.y.y.y.y.y.A y.y.y.y.y.y.y.y.y.y.y.y.y.y.y.y.y.y.y.y.y.y.y.y.y.y.y.y.y.y.y.y.y.",
"y.y.y.y.y.y.y.y.y.y.y.y.y.y.y.y.y.y.y.y.y.y.y.y.y.y.y.y.y.y.y.y.y.y.y.y.y.y.y.y.y.y.y.y.y.y.y.y.y.y.y.y.y.y.y.y.y.y.y.y.y.y.y.y.",
"y.y.y.y.y.y.y.y.y.y.y.y.y.y.y.y.y.y.y.y.y.y.y.y.y.y.y.y.y.y.y.y.y.y.y.y.y.y.y.y.y.y.y.y.y.y.y.y.y.y.y.y.y.y.y.y.y.y.y.y.y.y.y.y.",
"y.y.y.y.y.y.y.y.y.y.y.y.y.y.y.y.y.y.y.y.y.y.y.y.y.y.y.y.y.y.y.y.y.y.y.y.y.y.y.y.y.y.y.y.y.y.y.y.y.y.y.y.y.y.y.y.y.y.y.y.y.y.y.y.",
"y.y.y.y.y.y.y.y.y.y.y.y.y.y.y.y.y.y.y.y.y.y.y.y.y.y.y.y.y.y.y.y.y.y.y.y.y.y.y.y.y.y.y.y.y.y.y.y.y.y.y.y.y.y.y.y.y.y.y.y.y.y.y.y.",
"y.y.y.y.y.y.y.y.y.y.y.y.y.y.y.y.y.y.y.y.y.y.y.y.y.y.y.y.y.y.y.y.y.y.y.y.y.y.y.y.y.y.y.y.y.y.y.y.y.y.y.y.y.y.y.y.y.y.y.y.y.y.y.y.",
"y.y.y.y.y.y.y.y.y.y.y.y.y.y.y.y.y.y.y.y.y.y.y.y.y.y.y.y.y.y.y.y.y.y.y.y.y.y.y.y.y.y.y.y.y.y.y.y.y.y.y.y.y.y.y.y.y.y.y.y.y.y.y.y.",
"y.y.y.y.y.y.y.y.y.y.y.y.y.y.y.y.y.y.y.y.y.y.y.y.y.y.y.y.y.y.y.y.y.y.y.y.y.y.y.y.y.y.y.y.y.y.y.y.y.y.y.y.y.y.y.y.y.y.y.y.y.y.y.y.",
"y.y.y.y.y.y.y.y.y.y.y.y.y.y.y.y.y.y.y.y.y.y.y.y.y.y.y.y.y.y.y.y.y.y.y.y.y.y.y.y.y.y.y.y.y.y.y.y.y.y.y.y.y.y.y.y.y.y.y.y.y.y.y.y.",
"y.y.y.y.y.y.y.y.y.y.y.y.y.y.y.y.y.y.y.y.y.y.y.y.y.y.y.y.y.y.y.y.y.y.y.y.y.y.y.y.y.y.y.y.y.y.y.y.y.y.y.y.y.y.y.y.y.y.y.y.y.y.y.y.",
"y.y.y.y.y.y.y.y.y.y.y.y.y.y.y.y.y.y.y.y.y.y.y.y.y.y.y.y.y.y.y.y.y.y.y.y.y.y.y.y.y.y.y.y.y.y.y.y.y.y.y.y.y.y.y.y.y.y.y.y.y.y.y.y.",
"y.y.y.y.y.y.y.y.y.y.y.y.y.y.y.y.y.y.y.y.y.y.y.y.y.y.y.y.y.y.y.y.y.y.y.y.y.y.y.y.y.y.y.y.y.y.y.y.y.y.y.y.y.y.y.y.y.y.y.y.y.y.y.y.",
"y.y.y.y.y.y.y.y.y.y.y.y.y.y.y.y.y.y.y.y.y.y.y.y.y.y.y.y.y.y.y.y.y.y.y.y.y.y.y.y.y.y.y.y.y.y.y.y.y.y.y.y.y.y.y.y.y.y.y.y.y.y.y.y.",
"y.y.y.y.y.y.y.y.y.y.y.y.y.y.y.y.y.y.y.y.y.y.y.y.y.y.y.y.y.y.y.y.y.y.y.y.y.y.y.y.y.y.y.y.y.y.y.y.y.y.y.y.y.y.y.y.y.y.y.y.y.y.y.y.",
"y.y.y.y.y.y.y.y.y.y.y.y.y.y.y.y.y.y.y.y.y.y.y.y.y.y.y.y.y.y.y.y.y.y.y.y.y.y.y.y.y.y.y.y.y.y.y.y.y.y.y.y.y.y.y.y.y.y.y.y.y.y.y.y.",
"y.y.y.y.y.y.y.y.y.y.y.y.y.y.y.y.y.y.y.y.y.y.y.y.y.y.y.y.y.y.y.y.y.y.y.y.y.y.y.y.y.y.y.y.y.y.y.y.y.y.y.y.y.y.y.y.y.y.y.y.y.y.y.y.",
"y.y.y.y.y.y.y.y.y.y.y.y.y.y.y.y.y.y.y.y.y.y.y.y.y.y.y.y.y.y.y.y.y.y.y.y.y.y.y.y.y.y.y.y.y.y.y.y.y.y.y.y.y.y.y.y.y.y.y.y.y.y.y.y."
};
