/* XPM */
static char *result[] = {
/* columns rows colors chars-per-pixel */
"64 64 172 2 ",
"   c #81711A",
".  c #867624",
"X  c #887727",
"o  c #847826",
"O  c #8D7C25",
"+  c #86752A",
"@  c #88762A",
"#  c #8C7B2C",
"$  c #927E2C",
"%  c #897631",
"&  c #8C7C34",
"*  c #8D7C3B",
"=  c #907F34",
"-  c #917E39",
";  c #93812C",
":  c #8E8235",
">  c #938334",
",  c #988636",
"<  c #9A8C34",
"1  c #94843B",
"2  c #99863B",
"3  c #95893A",
"4  c #9A8A3C",
"5  c #9E913F",
"6  c #A18E3D",
"7  c #A2923D",
"8  c #948542",
"9  c #998742",
"0  c #978943",
"q  c #9C8C42",
"w  c #97874B",
"e  c #9C8C49",
"r  c #9E9143",
"t  c #9D8D50",
"y  c #A08E44",
"u  c #A18E4C",
"i  c #A39344",
"p  c #A89644",
"a  c #A79846",
"s  c #AB9B44",
"d  c #A4944C",
"f  c #A9964D",
"g  c #A6994B",
"h  c #AB9B4B",
"j  c #B09E4C",
"k  c #A59551",
"l  c #A79953",
"z  c #AC9C53",
"x  c #AE9F5B",
"c  c #B19E53",
"v  c #B19F5A",
"b  c #AFA34E",
"n  c #B2A34D",
"m  c #B7A94D",
"M  c #BBAC4E",
"N  c #BEB04F",
"B  c #AEA255",
"V  c #AFA25C",
"C  c #B3A454",
"Z  c #B9A755",
"A  c #B6AA52",
"S  c #BCAB55",
"D  c #B5A55B",
"F  c #B9A75C",
"G  c #B6A95C",
"H  c #BCAC5C",
"J  c #BDB053",
"K  c #BFB15D",
"L  c #B6A662",
"P  c #B9A662",
"I  c #B7A961",
"U  c #BCAD62",
"Y  c #BCAD69",
"T  c #BEB264",
"R  c #BFB168",
"E  c #C0AE55",
"W  c #C0AF5B",
"Q  c #C2B255",
"!  c #CAB557",
"~  c #C6B857",
"^  c #C3B35C",
"/  c #CBB75E",
"(  c #C6B95D",
")  c #CBBA5D",
"_  c #D1BC5D",
"`  c #C0AF64",
"'  c #C0AE6B",
"]  c #C3B363",
"[  c #C8B764",
"{  c #C5BA64",
"}  c #CBBB64",
"|  c #C4B36A",
" . c #C9B76A",
".. c #C6BA6C",
"X. c #CCBC6B",
"o. c #D0BF65",
"O. c #D0BF6C",
"+. c #C8B571",
"@. c #C7B875",
"#. c #CEBD72",
"$. c #D0BF72",
"%. c #CFC05B",
"&. c #D7C95C",
"*. c #DAC95F",
"=. c #CEC166",
"-. c #CDC16C",
";. c #D4C465",
":. c #DBC565",
">. c #DBCB65",
",. c #D4C46C",
"<. c #D9C76C",
"1. c #D7C86C",
"2. c #DCCB6C",
"3. c #DDD065",
"4. c #DED16A",
"5. c #CDC172",
"6. c #D5C472",
"7. c #D9C773",
"8. c #D6C973",
"9. c #DDCC73",
"0. c #D6C67B",
"q. c #DAC77B",
"w. c #D7CA7B",
"e. c #DCCC7A",
"r. c #DED073",
"t. c #DFD179",
"y. c #E0CF65",
"u. c #E1CD6D",
"i. c #E2D26D",
"p. c #E8D76F",
"a. c #E1CE73",
"s. c #E0CD7A",
"d. c #E3D273",
"f. c #E9D675",
"g. c #E6D974",
"h. c #EBDB75",
"j. c #E4D47B",
"k. c #EAD67A",
"l. c #E6D97D",
"z. c #ECDC7B",
"x. c #F1DE77",
"c. c #F1DE7D",
"v. c #EEE077",
"b. c #EEE17B",
"n. c #F0E277",
"m. c #F2E27D",
"M. c #CDBD82",
"N. c #D4C582",
"B. c #DECD82",
"V. c #E0CF81",
"C. c #E4D383",
"Z. c #E9D682",
"A. c #E3D980",
"S. c #ECDD82",
"D. c #E4D788",
"F. c #EDDC8A",
"G. c #F1DF83",
"H. c #F1DF8C",
"J. c #EFE182",
"K. c #F3E283",
"L. c #F9E583",
"P. c #F4E48B",
"I. c #F9E68B",
"U. c #F7E889",
"Y. c #F9EA8B",
"T. c #FFF18E",
"R. c #F4E492",
"E. c #F8E692",
"W. c #F6EA93",
"Q. c #FAEA93",
"!. c #FBEB9C",
"~. c #FFF2A7",
/* pixels */
"2.u.a.9.<.[ Z 4 2 F ] 0.e.9.8.9.e.e.9.9.e.9.9.} S S ^ p : h R I G ..e.t.8.>.4.3.b.g.H P ' U 2 < E ! y.u.2.1.J.S.k 1 D H ` H 1.9.",
"u.2.2.7.7.6.e.e.q.i 4 K ^ 8.t.9.8.] ] h 5 S ( ^ Z d.Z.9.V.H 3 i 4 b @.R T X.3.4.b.z.C.w.q d e.9.d.d.x.k.l.z.K.F.k & D T X.6.a.2.",
"a.2.d.a.d.1.a.P.Z.< ; S K ,.8.8.e.K K i @ h [ S C 9.S.P.W.^ O > : r | R I ] 1.r.v.J.U.C.$ 6 J.U.G.G.L.c.S.P.l.P.d 1 F T 6.j.9.<.",
"a.2.9.9.9.<.<.S.S.d.1.p < K ] ] [ f 4 ..C.| H  .t.9.t.l.J.l.8.r.r.^ 0 e e g { %.K.b.J.9.j ^ r.<.f.u.y.u.g.S.m a z D H S 7.2.2.2.",
"2.2.9.2.2.d.i.z.z.U.K.< O m S S T q @ e.~.#.F 6.9.7.9.j.b.J.J.J.U.;.# - 1 y Z ( G.K.P.Z.T ^ r.r.u.u.2.i.b.b.4 # F [ T Z <.2.2.r.",
"9.a.4.2.2.g.g.m.b.4.2.1.9.9.l.B q C B | ..z y ] j.9.2.r.d.g.b.v.b.d.,.e.O.O.S / j.1.s C S K 8.1.<.<.i.2.h.l.7 0 F F 6.=.2.4.>.2.",
"2.i.1.2.2.z.K.b.J.d.1.P.U.F.P.5 @ I R U U i @ K j.2.2.4.2.4.K.m.m.m.K.Y.U.j.M E a.[ # 1 R ..8.t.9.9.9.4.b.J.r * D U e.9.r.4.2.2.",
"2.a.2.k.z.K.z.;.;.;.4.j.2.J.S.6.5.z e F I [ K ,.9.r.2.>.4.4.d.i.j.d.2.d.K.d.>.i.c.O.4 y U Y { { 7.9.9.2.J.l.i 1 G U ] } <.;.2.9.",
"4.;.d.G.P.I.G.E J 1.a.<.7.S.K.P.!.d & V U 6.j.<.2.4.2.>.<.u.7.a.2.9.9.d.c.K.c.m.L.9.# 2 [ Y Z T 9.e.t.t.S.S.d 1 G ] F K 1.9.7.9.",
"2.k.k.,.o.O.,.W H 7.a.a.2.f.i.1.6.f : C H -.t.r.4.2.u.a.a.a.a.a.9.<.a.d.c.c.x.h.g.2.} [ i f ] S X.[ { } t.C.d 1 C F ] H ^ ,.} X.",
"d.K.l.W Z Z H Z ^ 9.a.a.2.>.:.J C q : C T -.t.1.<.2.<.u.u.7.a.a.u.u.<.u.c.L.c.x.2.2.U.j.# 1 U | U ^ H H e.0.3 & F [ U H H K F K ",
"=.7.o.S W W H O.O.e.7.a.2.f.h.2.e.d 1 F S [ } ,.r.r.<.u.u.a.a.a.u.u.d.h.c.x.d.u.>.2.f.9.[ | k l g h H F #.5.| ..b i G Y U H G ] ",
"S m A H S S ^ 9.7.a.a.a.>.c.K.G.P.7 # Z U ] F ,.9.9.9.9.a.a.2.<.:.p.m.L.m.h.<.u.i.4.1.9.E.C.1 & # > H ..F Y Z.P.5 @ K ..R Y U T ",
",.Z W O.[ ( } 7.a.<.a.f.d.c.c.c.F.[ S c h C i | X.8.9.9.>.u.d.f.g.f.f.g.f.d.u.u.2.u.a.a.Z.e.H S K S z z z B A.K.( K b t x l I G ",
"C.` [ e.7.j.9.a.<.a.u.c.m.m.c.G.J.Q.P.z % % & f U 5.s.2.2.p.m.K.P.z.d.<.a.u.a.a.a.7.a.<.<.d.K.U.U.Z.4 % 1 0 9.J.J.P.r & 8 8 G T ",
"V.c C X.,.9.<.u.u.a.<.c.L.k.k.f.j.Z.S.^ C F F D c ] ,.9.d.c.h.i.} O.} ,.,.o.o.<.9.s.a.<.d.2.v.v.z.l.F F g r b.b.K.A.K G w 8 g V ",
"N.& 2 S ^ 9.r.2.r.2.<.K.S.d.a.<.a.9.<.S.K.Q.P.A   b C 6.U.S.Y.^ o r R S H W S W 9.s.2.9.<.i.m.b.m.m.I.P.^ J k.b.v.b.L.P.f * - & ",
"C.c C C Z ,.=.9.1.2.9.z.S.<.o.9.<.2.2.k.g.z.m.( b ^ } 9.j.t.j.} g B U T H ` H [ s.a.a.d.d.i.h.p.h.f.l.j.} { j.v.h.p.c.G.S j D z ",
"P.P.B.> 1 F [ 8.r.9.4.J.P.! m 1.a.a.a.2.2.j.U.z.m.m.m.;.n m H  .C.0.H U U ` H } Y.G.m.m.m.x.g.2.u.2.<.<.d.9.9.<.i.u.h.K.K.K.H.R.",
"k.K.j.h C z C 6.-.t.l.4.d.~ Z <.>.>.2.9.9.l.z.z.n.h.n.:.~ o.} [ { T B D ' P F [ 9.d.v.p.h.d.2.<.9.a.i.<.7.8.7.s.) ( k.G.b.z.d.Z.",
"d.z.P.P.F.4 2 D T J.b.J A A J 8.u.y.a.2.a.s.7.u.<.f.m.c.P.L.L.} # : 1 t ' ' ' ` S / u.<.2.2.<.r.9.a.4.2.r.j.w.V.6 $ a.K.>.>.>.>.",
"i.z.Z.H.V.- y D G V.V.K J J =.=.:.2.a.9.7.a.7.a.2.k.x.h.c.k.L.! : 0 t k L P F D H ^ 1.;.9.9.e.9.a.<.9.2.1.t.X.#.f 4 s.K.2.4.4.4.",
">.y.>.S.Z.6 - - : Y R G K 8.r.J S =.9.a.9.a.u.u.u.a.<.k.m.K.Y.} & l R l 9 - > 4 W H S ^ 9.7.9.7.u.>.<.l.J.S.f & F W <.a.9.4.1.>.",
"*.y.i.c.k.p 6 u l I I T G -.8.K H #.7.9.7.<.u.<.a.<.<.k.l.k.j.{ : V R G 4 a 6 h  .W H ] e.,.e.9.>.u.<.9.t.t.r 4 F  .,.9.9.1.r.8.",
"u.d.i.c.S.S.S.P.D.> 1 I U T U I Y R H 6.t.9.8.9.9.9.9.7.t.S O s G } 8.t.J.S.J.S.H.9.W E ^ ^ 9.9.2.4.K.Z.5 0 G K O.a.9.a.a.<.9.9.",
"u.;.2.K.b.k.J.S.l.7 r G U V Y Y U I U 5.7.1.9.8.1.6.e.e.e.S ; s K =.9.r.b.A.b.J.K.g.Q S S ^ 7.<.<.2.F.C.q : G K <.a.9.u.9.2.9.q.",
"7.d.a.d.9.Q ~ k.K.g.j.< 2 0 8 w 0 : 3 b ^ S ^ h 2 v | I H ] A ( >.>.r.r.d.d.J.z.b.z.z.k.E S [ H Q ^ ] Y w 8 H J ;.2.2.u.a.u.a.9.",
"r.9.7.,.,.S ^ j.g.U.J.7 2 q w 9 0 4 3 b ~ S Q s > c I ' G K K ( r.4.1.1.7.j.z.S.m.k.m.j.S S F U W ^ P L e 1 H G 1.2.2.>.2.a.2.2.",
"2.m.d.7 6 F ` ] { 8.9.l.A.j.Z.d : V F r.b.g.z.g.H.D - c ' | 6.9.2.<.9.a.9.a.s.a.>.f.c.c.H.s.2 y 7.6.y 9 I G I T 7.d.u.2.u.u.<.>.",
"r.U.7.> 2 U H U H 9.9.K.K.K.K.s > D K d.K.b.z.m.P.W , f P O.e.7.a.a.9.a.9.a.2.<.u.u.c.c.P.s., 2 9.6.2 1 T R I T 6.6.9.2.9.a.2.2.",
"B.q a F ^ 6.6.8.8.r.<.<.<.u.2.d.j.Z.d.l.m.d.d.a.a.s.s.H , c ]  .9.a.<.u.u.u.u.p.c.f.K.c.a.9.,.1.7.1.j.t.r 3 U L | ] 6.a.2.a.9.9.",
"N.1 q U ^ 7.9.9.9.2.9.i.d.<.2.c.K.J.K.P.P.a.a.<.<.j.Q.E O s F #.e.s.7.a.y.u.:.u.K.K.c.k.2.>.d.2.2.d.P.l.< : I | U I 6.s.9.9.9.9.",
"Y 1 q T T 8.e.8.9.9.a.2.9.2.a._ [ {  .7.j.9.4.9.9.r.r.r.9.W 8 C | [ W } a.r.F.9.f v [ / y.>.4.9.2.d.z.b.d.w.k t t e S ( Q ( ^ [ ",
"V 3 3 U T 8.9.j.9.1.9.a.a.a.<.W S S F =.r.>.2.r.e.r.;.g.T.^ # k U U H [ 2.r.F.e.* t W W 3.>.9.9.a.>.v.m.m.F.e * - 1 b J N J S F ",
"0.8 1 ] K 1.<.<.d.<.2.^ ^ j.G.[ S X.8.1.2.2.2.2.1.9.3.i.3.2.7.H e d y S v.h.U.1.- u ' W 2.2.9.e.k.h.x.n.h.K.7.7.6.,.d.d.4.d.9.j.",
"w.& 4 U K 9.j.>.2.9.u.^ ^ Z.H.X.S <.t.r.1.r.r.9.9.r.4.>.&.h.I.} @ 1 X n K.b.K.9.- u W ] d.d.0.C.P.Y.m.n.v.m.K.K.E.P.K.K.m.K.K.P.",
"F.7.X.7 s [ ^ [ [ } ( W S ) } Q J K =.T ] { ] ] ] 6.<.<.>.p.G.k.,.7.=.9.Y.>.b b z L $.O.2.<.h v  . .a.a.i.p.y.i.u.a.u.a.f.d.a.d.",
"S.P.j.O ; Z S S S S Z S Z M M Q K A A T U ' ] | Y 6.C.f.:.k.I.G.K.K.U.K.J.=.O 2 +.+.C.e.9.} - - ' ` s.7.>.:.:.u.u.u.u.u.9.9.<.<.",
"k.G.c./ } 7.7.j s 7.9.9.9.2.2.<.8.C g l u f u u u c j  .F.9.X.8.k.i.d.g.b.j.~ [ d l #.X.r.7.] U d c ` O.9.<.d.>.u.u.a.7.9.a.u.2.",
"i.h.m.I.K.I.F.; > Z.P.K.K.K.K.P.P.a X : & - - - = & @ [ !.6.m { <.2.>.d.m.m.Y.7.# 4 F S 9.4.j.8.= - U ` q.s.2.u.u.o.7.s.a.9.a.>.",
"u.p.k.a.f.c.c./ / k.S.j.d.d.f.Z.F.O.W [ [ [ [ ` T K K K A H T -.9.9.2.a.i.g.c.j.Q } 7.<.) ) <.8.{ T g l ....8.r.u.:.d.9.9.9.2.3.",
"u.2.>.<.u.h.G.L.K.U.K.2.2.<.9.l.K.I.I.I.H.I.Q.K.P.b.r.b : g H { j.9.7.>.>.i.m.m.P.K.U.g.N Q 9.t.W.A.4 0 I | w.8.a.a.7.7.9.r.>.4.",
"u.<.u.k.f.z.G.k.g.l.d.d.r.2.4.f.f.d.d.G.G.l.c.k.g.4.z.A # g T -.a.u.a.u.2.u.k.k.k.g.m.g.%.;.f.j.j.r.1 : z l R w.[ X.7.t.t.r.4.4.",
">.u.a.L.U.U.G.<.2.<.<.2.2.2.2.i.u.u.u.d.G.I.U.d.4.r.P.K & l H T 9.u.a.a.a.9.9.<.>.i.b.m.m.K.K.z.>.1.2 & 8 8 V T H ] 9.t.9.1.2.;.",
"d.k.9.~ [ <.7.s.e.9.9.9.>.2.4.4.<.a.a.h.G.<.^ ,.1.g.U.G & V Y X.9.a.2.2.9.9.a.9.<.j.k.k.f.f.x.x.g.r.S G l l B g c z ` H 6.9.l.k.",
"P.E.j.$ ; S Z 9.9.9.a.d.2.9.4.2.i.2.<.F.Q.j   Q 4.g.R.U * z F [ 9.a.<.2.r.<.a.a.a.2.a.a.;.i.c.x.J.K.P.R.K G 3 : & & # $ [ 9.f.K.",
"C.6.#.7 7 } } 7.d.9.9.<.2.2.9.2.>.d.d.,.,.Z 4 } d.j.H.H & z U } ,.,.o.7.9.7.2.u.u.>.>.u.<.a.c.f.c.f.z.z.=.=.A B C A c j a.x.x.x.",
"| # > [ { 7.j.<.9.2.2.9.d.9.<.2.<.G.I.s X c ` o.7.l.E.U + z [ F S ^ Z } j.e.9.2.>.d.2.u.u.u.<.u.:.>.m.b.K.J.J.P.W.R.!.E.G.G.c.x.",
"<.h C C C $.6.7.9.2.<.2.d.i.>.i.d.9.1.h i F | 1.7.j.b.{ h z I L V G B K q.7.} 2.2.2.r.2.u.<.f.u.u.p.c.c.b.b.l.A.w.w.t.e.j.d.z.G.",
"K.K.j.$ = [ W e.r.;.d.r.<.2.y.x.K.7 ; C U $.B.9.9.2.<.g.!.] + 1 : : # 5 F H S ^ 9.r.1.4.2.a.G.L.L.m.x.k.K.b.r.r.4 : B G Z S a.I.",
"m.z.s.j a c H O.8.<.2.2.2.,.<.C.H.h < F ] ,.j.9.2.r.2.r.P.[ 5 a r r p Z } ^ W [ t.w.X.,.<.7.j.s.a.d.L.G.j.j.,.=.a < K { / E a.G.",
"2.z.G.P.C.2 2 F ] 7.r.r.s.W W C.R.X.Z 7.s.9.6.<.9.9.r.z.J.g.2.<.r.l.S.S.K.9.W [ W.D.K K K ^ ] K E ! c.k.} F 3 > G A 8.r.9.<.a.u.",
"d.c.h.z.j.s a D G 5.9.;.,.[ D N.V.| S o.1.<.1.<.,.8.<.e.j.f.r.i.r.j.K.h.L.a.j ` B.0.V G G B G F E _ h.Z.W D i q A ( 1.2.9.a.2.>.",
"9.>.a.G.c.G.F.2 2 U U F U [ U y > C ] S M N M ^ H ] ` ` S 1.z.c.J.z.m.c.m.;.$ 6 0 3 : 3 3 3 0 3 <.2.K.S.4 - Y Y ,.r.2.2.9.a.<.d.",
"7.s.u.x.z.m.z.7 q F L Y I C I d q Z { Q ( Q Q S T D D U D 6.P.l.c.h.x.x.m.:.6 4 0 0 r 0 3 r q q 9.2.P.S.i y P H 8.8.9.2.2.a.<.u.",
"s.7.u.y.y.n.z.J.C.q 8 8 0 , > 7.K.Z.G.b.h.z.U.Z = 2 9 9 = [ R.C.2.i.u.p.n.P.Z.V.U T w.w.6.0.e.e.<.d.l.F.H.Z.y > C K 7.9.9.9.a.>.",
"q.a.9.:.y.m.h.K.Z.i 1 9 9 4 < 9.K.S.c.m.k.K.S.W 2 , q r = ] F.j.7.<.2.4.b.z.I.C.F | 0.e.9.e.9.9.9.4.S.S.P.l.7 < C S 6.7.a.9.<.a.",
"s.s.a.2.4.h.v.m.S.S W I F e.l.J.K.a.2.r.2.l.P.j.l.e.X.6.7.O.^ ^ S =.4.2.i.d.P.7.> a ^ ] 9.<.7.d.r.2.2.9.z.P.j.Z.a > F ` O.a.9.7.",
"7.7.9.9.9.K.m.h.z.Q Z W ] j.J.b.h.u.<.u.9.j.G.K.U.l.<.1.r.( m E S =.4.1.<.u.S.9.; i Z ] t.<.2.>.<.4.2.d.g.z.c.K.i 2 F W 6.r.9.e.",
"! [ ^ ^ ( z.m.u.i.g.h.j.d.j.r.d.u.y.a.7.9.d.a.r.2.d.v.b.K.<.E / 1.1.8.r.2.d.K.l.l.X.2 i S } i.>.2.r.9.2.i.i.c.z.j.V.f > S [ H T ",
"Z S S W ! j.c.y.y.c.G.G.K.d.1.<.<.u.a.<.9.9.<.<.<.g.L.z.G.;.Z } j.<.2.7.4.a.c.z.P.9.& d U S 2.>.4.2.9.1.>.u.c.c.P.P.p > b H T H ",
"y 4 h l.s.f.a.x.x.x.x.f.a.>.a.a.a.u.u.u.9.r.2.d.i.2.r.J p j H } 9.<.9.a.2.u.p.d.K.e.: q ..T >.<.9.<.i.2.<.u.u.u.k.S.d.t.h 3 q 4 ",
"1 & i K.G.u.u.c.G.c.c.u.:.o.f.<.7.a.<.a.a.9.7.9.7.1.Z.Z + z ' ..9.2.a.u.u.>.>.>.J.6.8 w L | t.9.9.2.2.a.a.a.2.2.b.h.U.J.h : 3 : ",
"@.#. .K.f.x.x.c.c._ ! :.f.u.u.a.a.a.a.9.a.2.a.9.e.e.B.C * z Y #.a.u.7.u.a.i.>.i.K.Z.N.M.t k ] ( <.d.<.u.<.a.9.2.3.g.g.J.e.5.5..."
};
