/* XPM */
static char *result[] = {
/* columns rows colors chars-per-pixel */
"64 64 232 2 ",
"   c #4B3405",
".  c #4C340C",
"X  c #4F390D",
"o  c #523C0D",
"O  c #553D06",
"+  c #4D3514",
"@  c #4E3A14",
"#  c #4E351B",
"$  c #4E391B",
"%  c #513613",
"&  c #523B14",
"*  c #583E16",
"=  c #51361B",
"-  c #533B1C",
";  c #593E1B",
":  c #462D0C",
">  c #4E3523",
",  c #4E3922",
"<  c #4F362C",
"1  c #4F3928",
"2  c #513623",
"3  c #543C24",
"4  c #583E24",
"5  c #52362B",
"6  c #543B2B",
"7  c #583E2B",
"8  c #553C32",
"9  c #593E32",
"0  c #513631",
"q  c #5A440B",
"w  c #564114",
"e  c #5A4314",
"r  c #56421C",
"t  c #5B441C",
"y  c #5E491D",
"u  c #5E4816",
"i  c #624B14",
"p  c #60461D",
"a  c #634C1C",
"s  c #604516",
"d  c #665116",
"f  c #66511D",
"g  c #6A551B",
"h  c #725D1B",
"j  c #654F0C",
"k  c #7D6A04",
"l  c #564122",
"z  c #5B4324",
"x  c #5E4824",
"c  c #56402A",
"v  c #5A422B",
"b  c #5F4929",
"n  c #574031",
"m  c #5A4133",
"M  c #5C413A",
"N  c #634C23",
"B  c #644D2B",
"V  c #654A26",
"C  c #665225",
"Z  c #6A5524",
"A  c #65512A",
"S  c #6A532B",
"D  c #6E5B2B",
"F  c #6E5A24",
"G  c #735D2C",
"H  c #755C29",
"J  c #644B33",
"K  c #6C5433",
"L  c #6D5A32",
"P  c #6C5839",
"I  c #735D34",
"U  c #755E3B",
"Y  c #725635",
"T  c #75622B",
"R  c #7A642D",
"E  c #7D6B2D",
"W  c #796625",
"Q  c #7F7129",
"!  c #766233",
"~  c #7A6434",
"^  c #7D6B33",
"/  c #7C643B",
"(  c #7E6B3B",
")  c #77623C",
"_  c #7C6941",
"`  c #88741E",
"'  c #816D2C",
"]  c #847425",
"[  c #867A25",
"{  c #85742C",
"}  c #89762D",
"|  c #86782D",
" . c #8B7B2D",
".. c #8A7421",
"X. c #927F28",
"o. c #826D34",
"O. c #836D3C",
"+. c #847333",
"@. c #897534",
"#. c #8C7B34",
"$. c #85733A",
"%. c #8A743B",
"&. c #8C7A3A",
"*. c #877A34",
"=. c #917C3B",
"-. c #937C36",
";. c #846E43",
":. c #846E49",
">. c #847242",
",. c #8A7343",
"<. c #8C7945",
"1. c #8B7349",
"2. c #937C42",
"3. c #937B4B",
"4. c #907645",
"5. c #8D7254",
"6. c #8E832C",
"7. c #93842E",
"8. c #9C8B29",
"9. c #938334",
"0. c #9B8B35",
"q. c #95843C",
"w. c #9D8C3C",
"e. c #998539",
"r. c #9F913C",
"t. c #9B9037",
"y. c #8D8032",
"u. c #A38D2D",
"i. c #A8952D",
"p. c #A28E33",
"a. c #A28E3B",
"s. c #A49234",
"d. c #A99535",
"f. c #AD9B34",
"g. c #A5943C",
"h. c #AA963C",
"j. c #AC9B3B",
"k. c #A3983C",
"l. c #B19C34",
"z. c #B29D3C",
"x. c #B6A33C",
"c. c #BAA53D",
"v. c #BCAA3B",
"b. c #B8A537",
"n. c #BCA82F",
"m. c #C2AD3E",
"M. c #C6B23D",
"N. c #968243",
"B. c #9B8544",
"V. c #9E8C43",
"C. c #9E8D4B",
"Z. c #99834A",
"A. c #9E9242",
"S. c #9C8655",
"D. c #A28F43",
"F. c #A38D4C",
"G. c #A49343",
"H. c #A99542",
"J. c #AB9A43",
"K. c #A5924B",
"L. c #AA964B",
"P. c #AC994B",
"I. c #A69845",
"U. c #B29E43",
"Y. c #B29C4C",
"T. c #A48C59",
"R. c #AC9652",
"E. c #AD9954",
"W. c #AE995B",
"Q. c #A99356",
"!. c #B39E53",
"~. c #B39C5D",
"^. c #B6A344",
"/. c #BAA543",
"(. c #BDAA44",
"). c #B4A24B",
"_. c #BAA54C",
"`. c #BDAA4C",
"'. c #B7A841",
"]. c #BEB04B",
"[. c #B6A252",
"{. c #BAA554",
"}. c #BDAA53",
"|. c #B6A35C",
" X c #BAA45B",
".X c #BEAB5B",
"XX c #AC9763",
"oX c #B29B62",
"OX c #BBA564",
"+X c #C2AD44",
"@X c #C2AD4C",
"#X c #C5B244",
"$X c #CAB545",
"%X c #CEBA45",
"&X c #C5B34B",
"*X c #CAB54B",
"=X c #CDBB4C",
"-X c #D3BE46",
";X c #D2BD4B",
":X c #D9BF49",
">X c #C1AD54",
",X c #C3AD5A",
"<X c #C5B254",
"1X c #CBB553",
"2X c #CDBB54",
"3X c #CEBC5A",
"4X c #C9B55C",
"5X c #D2BD52",
"6X c #D3BE5B",
"7X c #D8BF58",
"8X c #C3AC64",
"9X c #C2AC6B",
"0X c #C8B564",
"qX c #D3BC70",
"wX c #D5C245",
"eX c #DAC447",
"rX c #D5C24C",
"tX c #DAC44C",
"yX c #DCC84D",
"uX c #D5C252",
"iX c #DAC553",
"pX c #DDC953",
"aX c #D6C35A",
"sX c #DAC55B",
"dX c #DDCA5B",
"fX c #E0C752",
"gX c #E0CA59",
"hX c #E5D158",
"jX c #DBC663",
"kX c #D9C765",
"lX c #D9C875",
"zX c #E2D071",
/* pixels */
"4 3 8 < 9 2 y XX|.lX0XK.K.D.G.#.+.O.1.l , z o w.+XM.yXwXiX5XpXx.t.I.K.I.A.9.*.T X T `.b.m.m.fX:XtX2X_.L.& - 6 3 / ,.>.>.>._ $.%.",
"2 5 M 9 6 4 ; f d &.N.*.*.#.#.' $.t t 3 1 4 . B.@X;XyXyXgX/.f.f.s.I.A.I.J.q.Q T . R _.v.gX;X:XtXtX*XX.@.e 3 m 7 b z r y r y y w ",
"9 5 5 6 5 3 - % t ( $.$.o.+.@.O.>.x $ 1 6 c X V._.=XiX5XjX{.a.h.k.J.g.g.k.q.$./ + ~ >X+XiX:XiXtXsX1X` ] e - 5 8 , , , 6 2 3 $ ; ",
"3 7 3 6 3 7 4 4 - b t r t t e t r l c 6 n c . N.>X3XjX+XU.H.D.G.g.g.G.0.[ *.$.! % I _.M.iXtXfX=Xd.h.a.w.o.( 6 8 6 3 6 6 4 z 2 l ",
"* % 4 4 3 2 3 3 3 3 , , c 3 - - 3 6 6 < 8 1 ; S.,X4XjX_.p.a.J.H.G.G.g.8...} $./ + G >X#XyXwXtX5Xd.g.J.G.] >.3 8 7 = 7 4 % e * o ",
"F.T.4.= 4 9 5 4 3 , 6 1 9 5 4 3 4 2 6 n 8 8 $ N g ' e.X. .X. .} @.=. .} | W y x = ~  X/.tXyXfX*Xs.g.I.r.] o.v 1 4 4 4 ; 3.W.F.T.",
"/.4XF.  ; 4 2 3 c 3 c 1 < 8 5 6 z 3 6 1 < n 7 =   T @.@.@.@.o.$.,.,.$.$.,.I = - # / 8X<XiXrXaX5XH.P.r.t.[ ^ z 3 4 = % O L.>X_.>X",
";X1X>XF.3.= 4 7 1 3 6 n 1 8 8 8 2 6 c , 8 1 3 4 ; V a N C a C C J B B N B b 2 4 4 t F  .jX=Xx.^.g.w.6.6.| ^ l 1 3 t 3.a.+Xz.5X1X",
"pXiXaX,XQ.o = 6 c c 1 c c 2 5 M 6 5 7 5 7 3 3 3 c , 3 $ = = 2 2 5 2 $ - 2 c 1 v 4 ; : W lXaX0.g.I.A.Q [ %.>.v 5 8 ; ~.>Xx.b.:XsX",
"rXiX*Xj.G.T Y 4 1 6 3 3 - v 6 2 7 3 4 3 4 4 4 7 3 1 3 c 7 7 9 9 2 c 3 6 5 9 5 6 2 3 ; Z A.w.7.7.q.y.| Q A B c 6 5 4 E.`.$X%XiXiX",
"iXdX*Xd.w.%.;.3 6 < 6 c % r @ & % - ; % % % ; = c c c 6 6 7 7 5 c 6 3 c 6 6 6 7 7 6 2 A +.| @.@.$.( $.( r 1 8 5 9 z P.b.rXeXtXiX",
"'.'.x.g.w.{ ( l n 8 6 c t ,.2.=.=.4.=.=.2.2.3.S $ < 6 5 2 6 9 5 c 3 , c 6 7 4 5 4 6 , v D g C Z C D A A c 1 6 6 5 ; Y.v.tXeXtXtX",
"s.s.h.G.A.%.( l 2 7 2 % e !.8X`.`.`.`.}.@X!.9XH $ 6 n 8 6 2 7 9 5 6 7 2 ; % ; % % - - = . o = = $ $ @ 3 9 9 5 6 4 r Y.v.-XrXyXiX",
"I.G.g.X.9.@.( @ 4 4 z ;.@.Y.(.&X*X=X$X=X#X@XqXW $ 1 n 8 4 2 5 5 7 3 2 Y 4.o.O.%.@.%.O.O.%.~ 4 7 c c 4 6 5 6 6 6 3 e J./.rXrX$Xv.",
"L.L.w.| | +.( l 3 + i OX>Xc.b.iXiXuXiX7XgXjXlXW X , 1 1 4 7 9 9 7 = % o.,X>X_.@X`.@X}..X0XF.& = z 6 c 6 6 6 6 4 4 p E.>XsXjXU.g.",
"N.N.9.] Q T L - 4 r e E.(.#XM.tXtXiXiX$XM.+X>X] f b c 1 5 7 5 7 3 Y o.-.@X+X#X#Xm.#X&X`.J.K.f S 2 6 4 5 v 6 6 6 2 ; %.#.J.>X-.e.",
"%.+.+.*.E w @ 6 8 = s !.+X:XyXrXyXiXjXz.u.s.p.9.$.A 3 6 8 6 9 2 % 4.0X_./.#XiXpXgXsXdX2Xt.t.y.( r , 3 3 7 7 2 3 6 , $ w W [ | +.",
"! T T ! D r , 1 5 3 a Y.^.*X=XtXrX&X<XH.g.J.J.#.$.C , 6 9 6 6 4 % $.`.(.*X*XiX;X#X&X&X(.k.r.$.T l c 3 6 5 6 7 4 v 2 c , D T R G ",
"@ r 3 , , 3 6 6 7 # V OX,X(.z.uXiXf.d.h.h.w.I.9.$.A $ 3 7 3 3 4 % 4.`.#XiXiXsX*Xi.i.s.d.g.w.| ^ 1 8 < 6 # = - = + , 6 n 4 2 - $ ",
"r , 1 n 6 3 2 v 7 3 z 3.B._./.*X&Xj.k.g.I.w.V.E I x - c 4 3 4 7 + %._.&XpX;X#X(.u.d.k.G.K.V.Q E l m 8 m o.I H H R ! 5 < < 6 6 6 ",
"- = > 5 5 5 c 4 3 4 - & q G._.d.s.d.G.G.G.=.+.y $ 1 c c 7 7 7 6 + 4.0X1XaXv.d.d.h.H.H.F.P.C.Q E @ l + t ~.,XY.>X,XoXB 5 8 6 8 8 ",
"F G K P P , 4 2 4 3 3 & w W..Xk.k.G.G.w.C.*.$.C @ c c 6 3 5 8 0 3 I D.).kX#Xs.j.g.h.g.D.N.N.6.Q w - Y R Y.+Xm.m.+X{.z 5 7 6 0 8 ",
".X!.{.9XT.; $ 3 = - 3 @ t W..Xh.g.J.A.| [ *.%.N r c c 1 5 5 8 9 v +   &.lX].s.J.g.H.H.V.[ *.+.^ $ C OX{.+Xb.fXeXiX2Xa = 4 5 3 2 ",
"/.+X(._.K.d F N g g C w t S.D.a.w.0.A.&.Q E ^ y $ 3 3 6 8 c 8 0 5 v + $.kX^.k.a.a.w.r.e.Q *.^ ! $ S !.(.m.M.:X:XtX5Xh p 4 3 N C ",
"m.iXiXb.(.^._._.^.{.W.w - ; O '  .Q *.+.;.a & t 2 6 6 6 6 8 8 6 6 6 - L } 7.P.w.] } { @.%.^ @ l = C [.c.iXtXiXtXtXuXh.F.V & K..X",
"%X:X-Xn.M.v.v.(.(.^.L.i ; ; z ~ +.E ( _ :.N = 3 m 6 9 9 3 3 7 6 6 3 5 B ^ #.C.N.' o.o.;.;.L - - 3 C }.#XiXtX5X5X5X2Xj.F.x & G._.",
":XfXeXeXyXrXrXsX3XJ.G.@.O.; + z w r r 3 4 2 3 2 2 2 6 3 = 3 4 2 6 c 6 c t t ; - 4 4 - 5 4 v 6 c = a ).(.jX7Xf.d.j.k.G.F.x & K.}.",
"fX:XtXeXwXyXrXuX1XH.w.&.O.y 4 2 c l 4 6 3 x V y p N p p N t ; 4 1 c 6 3 3 3 2 7 7 5 9 7 5 6 3 3 - C [./.6X6Xd.h.g.K.G.F.x @ A.`.",
"iX7XiXtXtXpX=Xj.H.G.V.*.E r 6 8 < 1 6 - w B.|.Y.!.Y.P.|.|.~ % 3 4 5 3 7 v 6 3 = 6 5 7 3 = 5 4 4 - f `.c.s.h.g.I.r.r.| $.z % L.`.",
":XiXiX:XuXuX&Xk.K.D.K.&.O.t 1 8 8 n 3 t q w.`.(.+X(.v./.>X' o 4 7 6 6 7 1 2 N e y t * * p x = 7 = S P.).G.K.G.r.k.g.| $.x o H.`.",
"iXiX;Xl.f.l.^.g.w.&.%.w w $ c 1 < # ; S.P.^.(.=X;XuXrXuXjXG.R K 2 5 5 7 3 ~ E.U.J.J.P.[.!.Z.; 6 5 z V a *.y.A.A.6.[ | +.y O G.@X",
"iXiX1Xs.s.p.g.G.G.' ^ r 3 l 1 c c y O I.&Xx.v.=XsX;XuXuXaXJ.@.I 3 6 4 4 X E >Xx.(.v.v./.@XD.O ; t = # z _ &.C.C.| E $.;.t o G.`.",
"'.f.j.g.V. .#. . .*.( w c 1 2 3 t Z.I.v.b.%XrXuXsXc.l.J.J.A.F.! - 6 = ~ R.U.U.*X:X;X;X;X5X1X<X}.,XW.@ 6 v V N V t x x b 4 o G.(.",
"U.r.G.K.F.@.+.%.*.$.( l c c 6 3 ; E._.v.n.rXdXsXaX/.g.g.I.K.K.^ + 7 = O.>X/.c.+XfXyXyXtXiXgXsXkXzX}.r 4 2 2 - # 3 6 5 5 5 ; K..X",
"6.y.{ Z A x x y x b J , 1 n 6 4 & E.].#X=XrXuXx.z.j.g.g.I.9.q.F = b . ' >X+X5XfX:X-XeXtXrX;Xl.z.U.J.R I v 3 6 c 6 7 6 6 7 5 S D ",
"Q %.! @ @ 3 l , 3 2 5 1 6 6 5 4 t K.`.rXjXaXkX_.p.h.h.g.g. .*.F % z % %._.+XiX:XyXfXyXgXiX2Xd.u.s.a.#.O.z 6 5 < 6 6 5 8 9 5 2 # ",
"x A c , 3 3 3 - c 6 6 4 4 4 2 = e K._.(.`.u.0.0.h.g.g.s.I.6.} F 2 7 : o.`.#XyXtXiX5Xl.z.U.z.i.k.H.w.} W ; 6 n 8 1 1 3 , 5 7 8 9 ",
"$ c 6 c m 6 , c 4 2 3 6 4 4 4 4 r W.OX}. X-.] V.H.G.J.G.P.q.^ I 2 9 3 :.8X>XuXtXjX4Xu.a.h.k.k.I.I.V.y.o.; 6 8 < l l c c 4 3 0 8 ",
"6 m 8 0 5 3 7 3 7 6 6 6 2 6 7 2 $ ! ~ R ) F i } 9. .=.T T S B v 6 7 > B ! =.>X(.^.U.p.g.h.G.A.A.9.#.] ^ 4 6 n 1 c $ , 3 z 7 0 0 ",
"= + = 2 = 3 3 6 6 6 7 6 6 7 9 3 l : :   . $ o I &.@.<.N @ $ 1 1 4 2 7 3 : R 0X^.g.g.h.k.I.L.Q.C.{ +.%.$.c < n 6 c l 6 5 4 = 7 7 ",
"-.-.=.2.O.; 7 6 8 0 8 8 8 6 4 ; & %.q.&.3.B 3 J K P B x l $ n 6 3 , 1 l = G q.0.X.9.7.7.y.y.N.y.} +.f B 6 6 8 6 1 c 5 6 v - 3 7 ",
"+X@X@X,XK.o = 3 0 8 < n , $ &   O !..X}.OXZ : - # , 3 3 c c 6 1 3 c 3 3 5 J <.*.*.] | | y.Q ( *.$.^ r c 1 8 8 5 n 1 5 # % % % % ",
"M.M.M.*X_.h S 7 , c c 3 r O.#.] ` ,X*X*X<X7.] W F y 1 > , c 1 c 6 6 6 n 9 J Y C D Z D Z L L K U D S $ 6 6 8 6 6 5 - :.,.o.@.@.{ ",
"fXiXyXgX4X#.( 4 c 3 - . q W..X_.@X5XtXuXiX&X].7.*.f c 8 8 8 6 6 5 1 # + # + & o X X - $ $ , , $ @ l 2 m 6 5 3 4 + y W..X>X{.{.@X",
"5X(.#X2X).+.O.- 4 = r o.@.,X1X1X&X:XtXtXiX'.f.t.q.N $ m 8 5 6 2 2 I $.{ } ' ' ' +.! - 3 4 5 4 3 2 4 5 8 7 7 3 ; ~ } `.&X*X#X$X#X",
"4Xs.t.t.0.{ ^ X % - a OX,X6XsX:X7XyXtX:XiXj.t.J.P.Z $ c 6 6 6 4 + %.,X+X@X@X}. X8XB.; 2 4 3 4 4 c c 8 6 0 7 - * |.>XaXtXiXtXyXfX",
",Xp.J.r.t.6.^ F V * s !.@X1XfXfXfX:XeXyXdXz.d.r.K.R C z l z - S H a.=Xm.M.#X<X,X4Xg.a S 4 7 5 5 2 4 8 8 8 0 - e Y.(.rXrXtXtX:XtX",
"0Xp.h.h.A.| ^ <.;.* q Y.+X7X:XtX:XfXiXiXjXU.I.G.L.&.3.C = - + 1.8X2XfX-XyXiXuXsXjX@X@.I % 4 2 9 c 5 8 6 8 7 - e U.c.rXtX;XfXiXfX",
"}.G.h.0.9.| ( ! ) @ i ~._.;XfX:XrX%X*X<X4XJ.g.g.I.#.>.N - z X ,.>X#XiXtXrXpXuXuX&XU.-.o.a x c , c 3 1 8 7 7 - e U.(.rX-XrXiX*X*X",
"L.G.0.` 6.( ( r $ ; a ~.<XaXfX:XrXl.s.k.g.g.h.k.I.q.<.S - 3 . o.@X#XtXrXdXsXaX*Xd.J.G.V.&.! ; l , c 8 n 5 3 4 * ~.>XaXgXpXsXz.u.",
"w.w.e.*.Q ( P c 8 c z N.H.1X-XtXuXf.d.J.a.r.J.t.A.{ ! B - z = ,.Y.%XhXwX+X1XaX/.8.h.K.B.&.~ $ 6 c c > c 5 4 7 - T.F.{.@X@X@Xh.p.",
"@.@.*.&.L w l 1 n 1 - w q ).@X6XkXj.s.G.K.G.I. .} i & 4 2 2 $ ,.>X*XyXi.k X.d.i.h.h.L.V.{ ^ 4 8 1 c 1 c 4 7 2 3 = * @.{  .} } @.",
"! ~ ! ^ L r c c 1 1 v - O B.K.,X<Xk.0.w.V.V.w.*.+.y $ v n 1 1 / F.+XgX/.8.u.s.f.h.t.t.q.+.~ 6 8 < 6 4 - 3 7 3 7 3 3 ) T ^ ~ ~ / ",
"; r @ r l r c 1 8 6 2 z r * & o.} [ } @.*.| +.*.<.A , 1 8 8 1 z O -.zXjXkX.Xt.k.J.0.] } %._ 2 8 8 n l = 3 4 % - - . w q X & @ @ ",
"3 3 , l 1 1 l c 3 c 2 3 4 3 v / ^ E ^ ~ ( ( ( ( ( A 1 < n 0 n - + 2.9X8XaX_.t.w.r.e.] +.^ ! 4 5 8 8 6 6 6 2 C s d d i d j d d f ",
"3 6 c 1 l c 1 l l $ ; - - = = 3 w w t r r - - r l , 6 n n > c c - ; & h  ...] *.| &.*.T w - 3 3 8 8 5 6 2 N W. X[.[.!.[.[.Y.|.|.",
"4 4 5 7 9 4 5 4 - x e s a a s t x l 3 3 1 3 6 c 6 6 6 7 7 5 5 4 4 3 - S O.o.R >.( ~ >.! r l 3 3 c , 3 ; p d !._.(.v.&X(./.'.&X/.",
"U 4 = 7 5 9 9 = y oX~.E.!.Y.Y.~.XXx $ c c c 6 1 c 5 5 5 6 4 - 4 6 7 2 4 V t z t r l z c 3 c ; 3 $ c - y ~.!._.c.tXrX;X;XiXuXiXiX",
"Y = 2 9 7 5 4 * d [.}.^.(.c.+X`. Xf t ; , 3 6 9 1 6 7 7 7 7 6 7 2 2 7 7 , 4 3 , 3 c 2 2 6 6 4 4 c - ; y {._./.+XtXyXrXiX7X7X7XaX",
"O.; 4 7 5 5 V Q.{.6X7XrXrX;X-XuX0X&.~ y 3 6 6 6 6 6 3 = 3 3 4 2 4 - 4 7 6 6 5 c c 2 6 9 6 1 8 5 3 6 3 t _.(.1X7XrXrXtXiXz.h.z.z.",
"Y - 5 7 9 = a  X@XuXtXeXpXtXtXsX0X0.' u ; = 5 3 ; ; & e t u ; p e e w X r t # 6 v 1 7 c 6 6 7 5 n 5 2 N E._.jXgXiXiXrXuXz.a.g.h.",
"U 4 7 5 6 - d !.(.yXeXwXtXrXiXl.j.X.@.a % 5 V 3 ; <.W.R.K.R.R.F.F.L.R.W.~.,.- 2 5 5 6 2 7 7 5 7 1 5 7 x i j Y.+XiX5Xb.f.s.h.D.H.",
"L @ 4 6 6 - g Y.+XwXtXtXfXiXjXj.a.} $.p = 7 2 - o q.,X`.(.(.`.(.@X(./.`.<X#.o 4 7 9 7 4 4 = 3 - ; & o & % i Y./.uX2Xf.s.s.J.a.D.",
") r 3 5 7 - i ).+XrXtXtX:Xz.h.J.D.-.O.x 3 6 1 5.Q.!./.#XrX;X%XrX=X=X2X2XaXP.! P 0 5 3 ; - J T.T.T.S.XXS.; s 0X2Xb.x.d.k.g.k.9. ."
};
