/* XPM */
static char *result[] = {
/* columns rows colors chars-per-pixel */
"64 64 252 2 ",
"   c #AC4E0B",
".  c #B54F0B",
"X  c #BC4D0D",
"o  c #B54E05",
"O  c #AE5306",
"+  c #AD530B",
"@  c #A65609",
"#  c #B15306",
"$  c #B3530D",
"%  c #BA520D",
"&  c #B35B0D",
"*  c #B85707",
"=  c #BC4E14",
"-  c #BE4F18",
";  c #AE5A11",
":  c #B45412",
">  c #BB5313",
",  c #B55B13",
"<  c #BC5B14",
"1  c #BD5419",
"2  c #BC5D19",
"3  c #B7561A",
"4  c #AB4918",
"5  c #B5620F",
"6  c #B46211",
"7  c #BB6313",
"8  c #B66B15",
"9  c #BD6B14",
"0  c #B66519",
"q  c #BB631C",
"w  c #BA691D",
"e  c #B66E19",
"r  c #BB7319",
"t  c #AE630F",
"y  c #BC6B22",
"u  c #BD6621",
"i  c #BD7622",
"p  c #C2540A",
"a  c #C24F14",
"s  c #C94E12",
"d  c #C25313",
"f  c #C45B14",
"g  c #C25518",
"h  c #CE541B",
"j  c #C45A1B",
"k  c #CD5A1C",
"l  c #CB5714",
"z  c #D15C1C",
"x  c #D3551A",
"c  c #C24D0A",
"v  c #C2631E",
"b  c #CC651D",
"n  c #C46D1D",
"m  c #C46919",
"M  c #D5681B",
"N  c #C4711C",
"B  c #CB7119",
"V  c #D7741D",
"C  c #C75C25",
"Z  c #D25B24",
"A  c #C56321",
"S  c #C56E26",
"D  c #CB6D24",
"F  c #CC6928",
"G  c #D46423",
"H  c #D96627",
"J  c #DA6C26",
"K  c #DD6C2C",
"L  c #D56829",
"P  c #C47326",
"I  c #C37A25",
"U  c #C47D29",
"Y  c #CB7D2C",
"T  c #CA7629",
"R  c #D27325",
"E  c #D97123",
"W  c #D4742B",
"Q  c #DA742C",
"!  c #D47B2D",
"~  c #D77C28",
"^  c #C96C36",
"/  c #DC6D33",
"(  c #D76833",
")  c #CB7636",
"_  c #D67334",
"`  c #DC7333",
"'  c #D57C33",
"]  c #DC7C33",
"[  c #DB743A",
"{  c #DD7B3C",
"}  c #D5753A",
"|  c #E26E23",
" . c #E36D2C",
".. c #E2722C",
"X. c #E8712D",
"o. c #E36E32",
"O. c #E86F34",
"+. c #E37233",
"@. c #E47B3C",
"#. c #E47639",
"$. c #D47A45",
"%. c #E27E42",
"&. c #E97F43",
"*. c #CC842B",
"=. c #CC8A2E",
"-. c #C98328",
";. c #D3842D",
":. c #D7862C",
">. c #D4952E",
",. c #D59B2E",
"<. c #D99D2D",
"1. c #D59629",
"2. c #CC8532",
"3. c #CD8934",
"4. c #D48433",
"5. c #DC8434",
"6. c #D58B35",
"7. c #DA8C34",
"8. c #DA843B",
"9. c #D58C3C",
"0. c #DA8C3B",
"q. c #D68438",
"w. c #CE9A35",
"e. c #CF9C3C",
"r. c #D49534",
"t. c #DB9636",
"y. c #D49B35",
"u. c #DA9C35",
"i. c #D5943C",
"p. c #DB953C",
"a. c #D49C3B",
"s. c #DA9C3B",
"d. c #CF992F",
"f. c #EA8A2E",
"g. c #E48E3C",
"h. c #E5873A",
"j. c #E19C36",
"k. c #E2953B",
"l. c #E29B3D",
"z. c #E6963B",
"x. c #D5A136",
"c. c #DBA235",
"v. c #D5A13B",
"b. c #DCA23C",
"n. c #DDA93D",
"m. c #D7A83E",
"M. c #CFA23D",
"N. c #E2A335",
"B. c #E2A43C",
"V. c #EBA73E",
"C. c #E4A93D",
"Z. c #E9AB3E",
"A. c #E1A937",
"S. c #E9B13E",
"D. c #F3AF3F",
"F. c #DA8943",
"G. c #CF9B46",
"H. c #D79441",
"J. c #DB9543",
"K. c #D59C42",
"L. c #DB9C43",
"P. c #DB9649",
"I. c #D69C4B",
"U. c #DC9B4A",
"Y. c #D7974E",
"T. c #DD9C51",
"R. c #DD8F51",
"E. c #E88445",
"W. c #EA8D45",
"Q. c #E58D4C",
"!. c #EB8C4C",
"~. c #E68848",
"^. c #F38D4F",
"/. c #E39544",
"(. c #E99544",
"). c #E29B44",
"_. c #E4954C",
"`. c #EB934C",
"'. c #E39B4B",
"]. c #EC9F4F",
"[. c #EA8C54",
"{. c #F38D52",
"}. c #EC9354",
"|. c #E49C53",
" X c #EA9B54",
".X c #E49D5B",
"XX c #EC9C5B",
"oX c #E49558",
"OX c #F19354",
"+X c #F39C54",
"@X c #F39459",
"#X c #F49B5D",
"$X c #FB9859",
"%X c #CEA040",
"&X c #D5A142",
"*X c #DBA242",
"=X c #DEA843",
"-X c #DCA14A",
";X c #DBA649",
":X c #DBA050",
">X c #E3A542",
",X c #EBA444",
"<X c #E5AA43",
"1X c #EBAC44",
"2X c #E4A34C",
"3X c #EAA44C",
"4X c #E5AC48",
"5X c #EBAE4A",
"6X c #F1AD45",
"7X c #F4AD4A",
"8X c #F7A348",
"9X c #ECB245",
"0X c #EEB944",
"qX c #E6B249",
"wX c #EDB34B",
"eX c #EEB94C",
"rX c #E6B244",
"tX c #F3B445",
"yX c #FAB746",
"uX c #F4B947",
"iX c #FBB846",
"pX c #F3B44B",
"aX c #FAB64C",
"sX c #F5BA4C",
"dX c #FBBA4C",
"fX c #E4A254",
"gX c #E9A154",
"hX c #E6A25C",
"jX c #ECA25C",
"kX c #EEAD53",
"lX c #F5A15B",
"zX c #F5AB58",
"xX c #EFB952",
"cX c #F5B552",
"vX c #FBB652",
"bX c #F5BB52",
"nX c #FBBB52",
"mX c #FCBC59",
"MX c #FAB85B",
"NX c #EB9B62",
"BX c #E99D64",
"VX c #F39B64",
"CX c #F99A65",
"ZX c #EBA163",
"AX c #E5A164",
"SX c #F4A265",
"DX c #FBB761",
"FX c #FCB964",
"GX c #F4C153",
"HX c #FBC253",
"JX c #FDC35C",
"KX c #F9C04F",
/* pixels */
"vXvXtXu.c.y.x.y.x.a.).k.~.f - / o.#.} Q.jXU.P.K.a.5XcXaXdXyXsXsXbX4Xa.s.L.a.P./._.q.g d d s ....K [ ZXAXAXhXI.P.u.s.GXeXbXnXpXbX",
"B.s.C.pXwXwX0XeXqXs.t.;.' < = j j L _ }.lXU.K.K.r.cXnXvXnXvXdX9X*X&Xa.s.s.=.0 8 u q = h J J +... .[ XXhXBXhXK.p.B.>.x.b.sXvX<Xb.",
"y.y.b.bXbXnXsXnXsXl.j.-.P 6 & $ < D ' (.fXL.K.*Xa.wXnXsXsXaXpX1Xr.a.t.t.>X*.O , : 1 1 Z ` / o. .X.`  XXX.XfXI.s.u.u.,.c.tXvXj.>.",
"s.b.a.s.b.s.B.sXvX7X7Xk.t.7.6.5.h.g.0./.>XH.b.s.r.pXsX,Xb.B.b.b.s.b.s.y.*X=.O > 3 1 1 1 C f g Z  ...`.|.'.U.*Xb.1XsXsXwXvXvXs.c.",
"s.p.a.s.s.y.l.nXvXvXaXj.j.l.u.l.z.z.k.t.u.y.a.y.u.pXvX,X>.y.a.e.y.y.s.y.s.*.& & $ : > : $ $ # < E ~ /./.H.i.a.y.pXHXbXsXvXcXB.y.",
"9.e i L.L.r.s.b.V.aXaX6X6X6XwXpX1XpXpXwXwXwXwX9X1XC.C.s.a.v.a.v.v.a.s.s.s.t.4.4.4.8.8.5.0.6.;.7.f.f.l.H.s.*XwXwXsXsXC.b.>X1Xb.a.",
"5.& t J.K.K.K.a.u.dXdXdXdXuXsXnXnXsXbXsXbXGXHXsXnXc.>.u.b.a.a.&Xa.a.a.a.y.s.s.s.l.l.z.z.j.s.u.u.u.<.t.y.a.a.bXsXdXeXA.y.y.a.a.a.",
"G : u  X'.-Xe.K.y.<XA.tXdXuXnXsXsXrXC.n.C.tXsXsXdXtXtXB.y.s.K.e.a.=X5XwX5X5XwX1X1X1X6X7X6X1X9XS.9X9X5X5X5X4XbXeXC.n.b.a.H.a.&Xa.",
"X = C #XhXI.;Xe.a.y.1.sXdXdXsXdXbXx.x.,.x.9XsXdXdXaXdXC.r.y.a.v.a.C.mXvXmXmXbXbXnXnXdXvXnXHXsXJXGXGXnXmXmXmXGXsX<.y.a.L.P.U.L.).",
"H G ( @XXXT.I.I.a.b.c.sXyXdXvXdXsXv.x.y.u.C.,XtXnXyXsXpX1X4X4X4X1X9XmX1XB.>X<X<X4XB.V.,X,X1X1XB.C.*X>X>X*X>X<XC.c.b.a.H.-.P T P ",
"O.O.&.$X#XZX|.I.a.s.u.sXdXsXsXdXsXb.y.a.y.y.u.,XsXnXsXnXnXbXnXnXmXnXmX<Xu.u.s.t.j.p.s.).p.p.).9.s.j.j.k.s.u.y.y.d.b.)._.q   % % ",
"O. .[ E.~.XX XP.L.s.u.nXnX,XC.5X4X4X4Xb.u.u.u.C.C.1XC.pXnX1X<X9XZ.Z.C.n.s.s.L.r.5.4.i *.|._.oX}.5.:.h.5.p.s.v.x.v.a.Y T 2 : G Z ",
"|  .K / } #XoXP.L.s.s.sXpXc.u.u.y.cXMX>Xa.H.b.a.u.y.>.9XnXC.>.1.>.<.y.a.s.).).g.! S @ y #XZXVXNXW E Q ~ p.s.v.a.a.i., . : g K +.",
"X.X.+.` } CX#XP.L.a.v.bXsXb.y.s.s.4X4XL.s.a.a.a.a.x.x.n.1X1X1X,X1XB.a.t.6.;.Y W b b v ^ ~.[.VX[.` Q ..Q J.a.v.v.a.).q > 1 > k H ",
"| | J / [ @X X'.J.a.v.bXbXB.s.s.B.u.a.b.L.a.G.v.v.v.v.d.y.1XnXnXbX5Xs.6.R b o % c x +.+./ $.$X@XQ | ..Q P.v.%Xv.s.p.< . > : % $ ",
"M J K %.~.#X XP.L.*Xb.rX5Xb.t.:.Y 6.i.H.H.K.K.v.v.w.v.y.y.>X4XpXnX4Xk.7.5.Q * d s x O. .o.%.CX{.` ..#.4.L.a.M.a.s.J.T D S S P P ",
"o o A VXVXNXXXH.u.nXeX,.u.y.l.7 $ R T J.P.a.K.e.v.y.b.a.u.a.y.4XnX4Xs.s.).Y $ % s Z O.+.Q #.CX@XW ! (.(.L.e.&Xe.v.K.).L.L.L.*X*X",
"b S ) NXBXBXjX>XC.tX9XA.B.).(.v d / W W.'.J.&Xa.a.s.s.s.s.s.e.4XmX1Xy.s.s.=.n v - C J M Q #.{.!.4.:.p.p.s.a.&Xa.a.a.a.a.s.a.a.v.",
").).P.hXhXDXFXmXtX<.u.sXmXFXMXm % L ] $XlX'.P.s.J.a.s.a.v.a.y.<XvX,Xr.s.s.s.).0.+ $ * p V J K R z.p.l.s.y.y.a.y.v.v.s.s.s.H.a.a.",
"s.a.L.-XfXDXvXaXsXj.B.wX5X(.(.m % J Q h.W.`._._.'.I.K.K.&Xa.y.<XHXZ.N.C.B.B.s.=.8 n B V f.f.h.h.,XN.B.B.n.B.b.b.s.s.s.s.s.p.s.s.",
"w.y.a.y.b.vXaXdXdXyXsXl.p.6 & * % | X.H Q {.#XjXfXI.G.&Xa.u.j.V.dXaXdXvXvX6Xu.a.s.,XvXaXaXyXvXmXvXvXaXvXdXnXnXbXu.x.y.v.a.b.a.s.",
"n.B.b.c.B.aXaXdXiXdXvXi.(.6 . f l | X. .+.^.[.XXAXI.G.G.a.t.V.V.tXaXvXaXdX6Xb.B.s.<XaXaXiXiX7X7XpXpXpX7XdXdXaXsXn.b.b.m.b.*Xb.n.",
"yXsXvXdXdXdXiXiXyXnXbXt./.7 > K | |  .O.o./ } [.jXT.I.I.a.1XsXD.1.Z.aXvXvXmXcXvXmXvXvXdXiXtXu.y.s.a.b.B.aXaXnXsXsXbXsXxXbXbXsXdX",
"aXaXaXaXtXD.iXiXyXuXsXB.k.7 % H ..| o.O./ #.[ Q.XX_.K.a.y.1XdXZ.1.1XsXdX6XpXnXkXcXzXpXyXaX6Xs.L.K.e.y.y.pXyXaXsXwXeXeXeXeXtXtXuX",
"l.vXdXj.u.u.j.tXiXuXuXc.t.7 > g g H +./ / ^.$XF.T 9.L.s.u.C.dXuXsXrXy.x.y.x.v.*XK.-Xa.a.y.a.G.K.G.&Xa.a.<.u.tXnXc.x.a.v.x.y.N.<.",
"B.cX5Xu.u.u.j.sXKXuXuXA.t.8 2 = d K ` / [ W.+Xq.Y 6.L.B.l.Z.dXsXsX9Xy.y.v.a.r.i.H.F.i.K.*XK.:XT.K.a.a.u.N.B.pXsXb.y.a.a.a.a.u.u.",
"v.&X*Xa.a.a.b.nXsXuXuXsXnXp.~.u > = > ~.+X`././.p.p.s.1XpXsXdXdXvX6Xt.s.s.-.& , 2 2 , u 2XfX.XT.K.b.y.u.tXtXdXbXb.i.*XK.L.-Xa.s.",
"K.M.e.e.&Xa.s.wXsXuXKXuXpX*Xp.w 2 2 < /.3X'.).p.l.j.<.6XvXdXdXaXnX6Xt.s.).;.+ < - g > C +X XNXBXI.a.u.c.sXsXsXsXb.L.H.H.J.J.F.J.",
":X-X&Xv.e.v.a.l.B.aXsXc.c.y.*Xp.0./.9.J.s.kXcXcXpXaXyXvXdXsXsXbXnX4Xa.s.l.*.O > a h O.o.@.} VXoXK.b.y.x.uXKXuXaXz./.w q 3 q 2 2 ",
" XJ.J.s.a.v.s.r.s.vXsXc.x.,.y.L.L.s.s.s.s.cXbXnXdXvXvXaXpXsXdXbXsX<Xa.b.s.-.& < a Z O.o.+.} CXNXK.L.y.c.sXsXsXdXz.g.< > > > > $ ",
"{.} 4.p.y.b.s.s.s.cXnXwXwXc.x.x.s.y.b.4XwXbXxXn.u.c.u.c.N.1XnXsXnX4Xy.a.a.a.i.2.: j l l #.{ NXXXP.H.a.b.sXsXaXaX:.] f > J K  .J ",
"{._ ! J.s.y.a.s.).cXcXnXsX<.c.y.c.y.y.eXmXeXGX=Xy.c.u.u.u.,XnXdXnX1Xy.v.y.v.K.3.@ > a k Q #.#X#XP.s.s.b.sXdXvXaX;.R f X / o.+. .",
"^ #X_.J.L.G.e.K.L.s.B.dXsXpXpXpXpXpXwXb.a.b.B.u.u.u.a.a.v.b.b.1XvX6Xy.s.a.m.eX4X7.! * f ....` E.i.*Xa.y.=Xv.=Xb.p.W.< % f f x h ",
"^ oX XU.K.K.&XK.v.u.u.yXaXyXdXvXnXnXbX=Xv.a.u.y.u.s.a.a.G.a.y.4XvX6Xs.y.w.n.GX4Xs.*.# < V V K R s.v.s.r.v.w.x.a.k.p.7 O + $ % > ",
"Q.XXjXJ.e.K.*Xw.b.1XtXiXaXdXsXC.B.<X=XM.v.e.e.b.a.v.M.%Xv.M.r.<XHXZ.u.C.wXpXdXsXaX8Xz.z.8X8X8X8Xt.j.pX5XwXeXv.b.s.j.6.6.6.6.q.q.",
"lX X2Xi.*Xv.y.a.s.sXdXdXsXdXsXc.d.y.v.w.e.&XK.L.a.*Xa.a.a.v.y.<XHXA.1.C.dXyXdXyXdXmXmXmXHXvXmXvXj.N.nXvXnXsXy.y.t.t.s.s.a.L.s.s.",
"SXzXkXa.c.y.y.wXtXdXsXiXuXZ.C.x.y.x.v.&XK.-X'.9.q.9.s.a.a.b.a.<XKXuXS.tXsXdXvXyXB.Z.C.n.B.b.B.N.Z.D.dXiXiXuX9XS.pXtXwX9XqXqXqXqX",
"FXFXcXc.u.<.c.dXvXdXiXdXuX<.y.v.v.y.a.K.J.|.#XF.) 9.J.s.y.y.y.1XsXKXdXiXaXvXvX5X>.>.>.y.y.x.v.x.uXdXdXuXuXsXKXHXdXsXnXnXGXGXGXbX",
"-X3X4X<XZ.S.V.yXdXdXdXdXsXc.x.v.v.a.a.H.U. XBXR.F.P.K.L.y.u.u.1XHXwXB.B.1X>X3X3Xs.s.*Xv.&Xe.y.x.nXsXdXbXC.A.<Xb.4XC.>X>X>X*X4X<X",
"L.a.b.sXKXdXdXdXaXdXiXdXsXx.a.e.a.&Xs.).|.NXSXSXZX|.a.a.y.y.d.4XmX,X>.u.s.i.K.i.H.s.s.a.K.v.y.n.bXnXnXeXx.a.y.a.a.t.t.s.l.r.a.y.",
"a.a.b.Z.Z.KXsXaXvXdXdXZ.B.c.a.&XK.s.L.Y ^ } ) BXNXT.K.a.y.n.4XkXnXwXr.s.i.P.gXL.=.r.K.K.H.K.s.n.vXvX1X>X*Xa.a.K.a.K.a.s.a.a.*Xs.",
"a.y.,.,.<.tXvXdXaXvXpXu.c.y.K.a.a.).(.n . 3 4 $.SXU.J.b.y.4XbXbXMX4Xs.l.(.+XlX_.T 2.p.P.H.a.u.u.vXpXy.u.s.s.a.v.K.K.K.a.H.a.a.a.",
"b.a.c.<XZ.sXdX1X1XnXnXC.b.v.v.K.s.7.5.< - ( C [.lX_.s.s.y.n.9X4XqX*Xt.t.5.h.E.~.8.0.L.s.s.s.C.Z.aXsXu.y.v.y.a.a.&Xa.a.a.s.b.w.v.",
"y.a.c.sXnXvXsXs.s.cXnXbXcXb.a.a.s.Y ' j - ( ( [.lX'.i.a.u.u.y.y.v.a.l.g.Q Q Q #.lX].U.a.y.B.pXdXnXpXx.v.y.v.L.*XL.a.a.H.s.s.y.a.",
"s.<X<XsXdX<X<Xu.b.4X<XbXsXb.y.s.l.r S v = %.&.Q.'.K.v.x.y.b.<XB.a.=.Y R G H / #.$X].K.s.a.B.sXdX1X<Xa.v.i.L.*.) _.'.'.'.0.2.L.K.",
"4XbXnXnXpXu.s.y.s.a.u.sXpXc.u.s.u.t   3 4 &.SX_.K.w.v.v.y.5XmX6Xj.Y $ . X k  .&.@X XJ.K.y.c.sXpXy.&Xe.&XU./., ; OXlX#X+Xq.P J.K.",
"s.sXnX1X1Xu.s.a.a.a.v.sXsX<XB.s.u.-.F j = %.^.(.s.b.4X=Xb.5X5X).f.R $ j Z ( ( %.CXXXI.L.a.n.sXsXa.s.r.K.q.' 1 j E.^.{.~.h.8.J.J.",
"B.nXpXu.s.p.s.L.L.a.a.bXGXsXpXB.t.L./.A . F T 7.s.pXbXcXmX1X>.7.! b X G o.o.#.$.VX XJ.K.y.b.bXwXb.a.K.J.& : > = J ` / ` OX#XoXU.",
"C.wX,X*.q.'._._.|.T.L.wXwXsXsXs.s.J.p.I w U ;.t.s.pXcX5XcX3Xs.6.D G % k +.o./ F.#X XP.s.s.b.nXwXa.v.&Xi., > Z x  .O.o.` @X#XoXoX",
"<XB.t.@ S @XCX#XoXAXhX*Xy.pXnXc.r.s.>Xi.t.>Xs.u.=.pXmX>Xi.i.H.Y $ > X G +./ / { lX'.s.a.y.b.cXsXy.v.a.p.& d K +.O.o.o./ }.NXBXBX",
"wXu.6.@ 2 !.OXOXNXNXhXI.i.tXsXB.b.a.s.s.s.b.y.s.B.9XcX<Xy.b.;Xi + > a z +.+.{ 8.gXU.;Xb.B.C.wXeXu.>Xt./.< d K K  .H X.` @XNXBXBX",
"u.u.6.& 2 R [ ^ $.oX.XI.a.j.>.pXcXb.u.y.y.r.u.9XnXN.y.>.y.a.b.U , > p z ..@.`./.H.;XbXsXsX9X<.<.aXpXj.p.* # % o * . R Q }.VXBXBX",
"r.>X7.$ f Q / { $.NXAXP.s.b.j.aXsXB.u.B.B.j.N.9XsXS.c.c.c.c.v.=.w 1 > z E ] (.s.a.*XGXsXdXyXN.N.vXpXB.k.N B m 7 m 9 ! 4.U.|..XhX",
"a.P.0.O % o.+.$XCXSX.XP.P.nXvXsXnXsXsXbXsXpXsXdXiXsXsXsXbX<Xa.r._.T * b Q :.P.*Xv.m.sXtXiXdXtXdXsXyXnXvX7X7Xl.k.t.t.(.J.P.I.Y.Y.",
"b.H.p., f ..+.$X}.XX XI.s.wXmX7XpXsXsXdXaXaXdXvXdXdXuXaXnXC.u.s.'.Y 6 9 ~ :.u.a.x.n.KXiXdXiXyXyXyXsXpXsXmXcX).s.l.>Xs.L.K.K.I.I.",
"a.L.q.: j o.+.K _ _.K.i.b.pXvXB.c.y.u.pXvXcXaXaXdXdXyXvXnXC.s.t.K.H.t.k.z.j.s.x.w.n.sXuXiXaXvXaXdXpXc.c.aXvXsXnXcXbXs.a.a.G.K.K.",
"a.a.J.+ > ` Q Q ! J.s.u.c.wXnXb.y.u.y.pXnXcXsXcXdXtXaXdXaX5Xu.b.a.*XB.u.u.l.u.u.s.C.sXdXKXyXpXvXsXwXc.c.sXvXsXdXbXcXl.s.a.K.s.K.",
"y.b.9.; 2 > f g.(.t.c.0X0XsXnXs.y.>Xa.s.a.b.b.s.B.u.u.9XnXvXcXkXxXwXsXsXyXyXsXnXpXcXdXsXvXsXl.s.b.c.y.y.u.l.u.l.5XdXaXpXb.y.a.s.",
"x.b.3.; 7 $ < z.z.>.c.0XKXsXpX>Xi.H.a.v.K.*Xa.a.a.s.y.4XcXbXmXbXbXsXsXuXsXaXaXvXvXnXsXbXwXwXb.a.a.y.v.v.t.u.u.u.nXaXnXcXb.y.s.a.",
",.x.p.6.0.0.7.k.l.sXuXuXuXN.s.s.U.K.K.2X-XK.e.a.y.v.y.b.*Xb.b.b.u.1XuXdXdXdXvXcXu.B.b.b.b.*Xe.-XK.a.K.a.s.s.b.y.u.c.pXnXn.,.b.u.",
"<.>.b.L.>X).).u.u.pXsXuXuXc.s.P.J._.U.fXfXU.K.L.v.w.x.w.x.y.y.u.u.V.iXiXiXdXnX5Xa.a.s.y.u.a.a.K.I.I.&XG.a.a.y.y.x.s.sXbXb.d.x.,.",
"uXsXpXpXpXwXtXpXsXbXsXC.c.u.s.i 0 q u F.gXT.K.K.&Xa.v.x.x.a.a.<XsXuXiXdXaX6X>Xb.v.a.s.y.s.L.K.K.T.|.I.K.I.L.a.a.a.y.wXbXeX9XpXsX",
"uXdXbXcXHXHXsXsXbXbXcXy.r.l.).t + : : W.lX'.K.K.a.y.v.v.v.y.s.>XyXsXdXdXdX1Xv.w.&Xe.s.j.p.k.s.U.jX}.T.U.J.J.a.y.y.b.cXvXnXdXdXvX",
"tXN.C.b.c.c.x.n.b.>X>Xu.s.s.J.0 1 F F OX#XP.'.H.L.v.w.<XpX5XpXpXnXdXaXD.N.u.v.M.%Xa.s.>.9 8 r i #XoXXX|.3.3.a.v.a.y.B.B.aXnXaXaX"
};
